<?xml version="1.0" encoding="UTF-8"?>
<svg width="1204px" height="508px" viewBox="0 0 1204 508" version="1.1" xmlns="http://www.w3.org/2000/svg" xmlns:xlink="http://www.w3.org/1999/xlink">
    <!-- Generator: Sketch 41.2 (35397) - http://www.bohemiancoding.com/sketch -->
    <title>cover</title>
    <desc>Created with Sketch.</desc>
    <defs>
        <path d="M928.707057,143.403754 L928.707057,167.275988 L836.071128,167.275988 L836.071128,141.130208 C836.071128,134.183228 837.106682,128.246806 839.177821,123.320765 C841.24896,118.394724 844.19872,114.226598 848.027188,110.816262 C851.855657,107.405926 856.468579,104.595598 861.866092,102.385195 C867.263606,100.174792 873.351407,98.3117662 880.12968,96.7960613 C885.150623,95.6592826 889.261458,94.3646374 892.462309,92.9120868 C895.66316,91.4595363 898.204974,89.8175472 900.087827,87.9860705 C901.970681,86.1545937 903.257278,84.1336841 903.947658,81.9232811 C904.638037,79.7128781 904.983222,77.2183179 904.983222,74.4395255 C904.983222,69.1345583 903.069016,64.7138186 899.240547,61.1771738 C895.412079,57.640529 890.108788,55.8722331 883.330515,55.8722331 C876.175672,55.8722331 870.464435,58.0510262 866.196634,62.4086779 C861.928833,66.7663295 859.794964,72.7974815 859.794964,80.5023149 L859.794964,88.8386502 L834.941422,88.8386502 L834.941422,78.2287689 C834.941422,72.0396404 836.039737,66.1347953 838.236399,60.5140562 C840.433062,54.8933171 843.571104,49.96735 847.65062,45.7360071 C851.730135,41.5046642 856.719622,38.1575328 862.61923,35.6945123 C868.518838,33.2314918 875.171487,32 882.577377,32 C890.485362,32 897.389055,33.1683383 903.288662,35.5050501 C909.18827,37.8417618 914.114996,40.9047029 918.068988,44.6939652 C922.022981,48.4832275 924.97274,52.8723905 926.918355,57.8615859 C928.863971,62.8507812 929.836764,67.9977853 929.836764,73.3027525 L929.836764,75.5762985 C929.836764,86.6914679 926.730102,95.9118678 920.516686,103.237775 C914.303269,110.563682 904.167393,115.86857 890.108754,119.152597 C884.209146,120.541993 879.345181,121.962945 875.516712,123.415496 C871.688243,124.868046 868.707103,126.478459 866.573203,128.246781 C864.439302,130.015103 862.964422,131.941283 862.148519,134.025377 C861.332616,136.109471 860.92467,138.477725 860.92467,141.130208 L860.92467,143.403754 L928.707057,143.403754 Z M980.861838,100.964229 C980.861838,96.6697317 982.430859,92.9436796 985.568949,89.7859611 C988.707038,86.6282425 992.409927,85.0494069 996.677729,85.0494069 C1000.94553,85.0494069 1004.64842,86.6282425 1007.78651,89.7859611 C1010.9246,92.9436796 1012.49362,96.6697317 1012.49362,100.964229 C1012.49362,105.258726 1010.9246,108.984778 1007.78651,112.142497 C1004.64842,115.300215 1000.94553,116.879051 996.677729,116.879051 C992.409927,116.879051 988.707038,115.300215 985.568949,112.142497 C982.430859,108.984778 980.861838,105.258726 980.861838,100.964229 Z M948.100351,86.1861799 C948.100351,69.0081908 952.399469,55.6828183 960.997833,46.2096626 C969.596198,36.7365068 981.489377,32 996.677729,32 C1011.86608,32 1023.75926,36.7365068 1032.35762,46.2096626 C1040.95599,55.6828183 1045.25511,69.0081908 1045.25511,86.1861799 L1045.25511,115.742278 C1045.25511,133.425502 1040.95599,146.877181 1032.35762,156.09772 C1023.75926,165.318258 1011.86608,169.928458 996.677729,169.928458 C981.489377,169.928458 969.596198,165.318258 960.997833,156.09772 C952.399469,146.877181 948.100351,133.425502 948.100351,115.742278 L948.100351,86.1861799 Z M996.677729,147.192998 C1001.19658,147.192998 1004.96223,146.466733 1007.97479,145.014183 C1010.98736,143.561632 1013.43503,141.509146 1015.31789,138.856662 C1017.20074,136.204179 1018.51872,133.046508 1019.27186,129.383554 C1020.025,125.720601 1020.40156,121.678781 1020.40156,117.257975 L1020.40156,84.6704825 C1020.40156,80.502294 1019.96224,76.5867817 1019.08357,72.9238282 C1018.20491,69.2608746 1016.82417,66.1032034 1014.94132,63.4507198 C1013.05846,60.7982362 1010.61079,58.6825965 1007.59822,57.1037372 C1004.58566,55.5248779 1000.94553,54.7354601 996.677729,54.7354601 C992.409927,54.7354601 988.769799,55.5248779 985.757233,57.1037372 C982.744667,58.6825965 980.296995,60.7982362 978.414141,63.4507198 C976.531288,66.1032034 975.150549,69.2608746 974.271884,72.9238282 C973.393219,76.5867817 972.953893,80.502294 972.953893,84.6704825 L972.953893,117.257975 C972.953893,121.678781 973.330458,125.720601 974.0836,129.383554 C974.836741,133.046508 976.154719,136.204179 978.037572,138.856662 C979.920426,141.509146 982.368099,143.561632 985.380664,145.014183 C988.39323,146.466733 992.15888,147.192998 996.677729,147.192998 Z M873.539726,292.447326 L873.539726,196.200545 L870.150606,196.200545 L857.723835,241.671465 L834,241.671465 L834,239.397919 L849.81589,183.696042 L898.393268,183.696042 L898.393268,292.447326 L931.154755,292.447326 L931.154755,316.319559 L836.259413,316.319559 L836.259413,292.447326 L873.539726,292.447326 Z M1016.44759,221.209551 C1016.44759,216.788745 1014.84719,212.967963 1011.64634,209.74709 C1008.44549,206.526217 1003.456,204.915805 996.677729,204.915805 C989.899456,204.915805 984.533404,206.905138 980.579412,210.883863 C976.625419,214.862588 974.648453,220.072746 974.648453,226.514492 L974.648453,243.566087 L978.037572,243.566087 C980.171473,239.145281 983.623319,235.577112 988.393215,232.861474 C993.16311,230.145837 998.560543,228.788038 1004.58567,228.788038 C1009.98319,228.788038 1015.06682,229.766916 1019.83671,231.724701 C1024.60661,233.682487 1028.74882,236.461238 1032.26348,240.061037 C1035.77814,243.660836 1038.53962,248.049999 1040.548,253.228657 C1042.55637,258.407316 1043.56055,264.280584 1043.56055,270.848639 L1043.56055,273.122185 C1043.56055,279.816548 1042.46223,285.974007 1040.26557,291.594746 C1038.06891,297.215485 1034.93086,302.046722 1030.85135,306.088602 C1026.77183,310.130482 1021.84511,313.288153 1016.07102,315.561711 C1010.29694,317.835268 1003.83257,318.97203 996.677729,318.97203 C990.150503,318.97203 984.031321,317.898421 978.319999,315.751173 C972.608677,313.603924 967.65057,310.604136 963.445531,306.75172 C959.240491,302.899303 955.914167,298.289103 953.466457,292.920982 C951.018747,287.55286 949.794911,281.648015 949.794911,275.206269 L949.794911,226.893416 C949.794911,219.946435 951.050128,213.631093 953.560599,207.947199 C956.07107,202.263306 959.460156,197.432069 963.727957,193.453344 C967.995758,189.474618 972.922485,186.411677 978.508283,184.264429 C984.094082,182.11718 990.024982,181.043572 996.30116,181.043572 C1002.57734,181.043572 1008.44548,181.959296 1013.90575,183.790773 C1019.36603,185.62225 1024.13585,188.274694 1028.21537,191.748184 C1032.29488,195.221675 1035.49569,199.452954 1037.81787,204.442149 C1040.14006,209.431345 1041.30113,215.020423 1041.30113,221.209551 L1016.44759,221.209551 Z M996.677729,295.099796 C1003.07943,295.099796 1008.35134,293.173617 1012.49362,289.3212 C1016.6359,285.468784 1018.707,280.32178 1018.707,273.880034 C1018.707,267.438288 1016.6359,262.291284 1012.49362,258.438867 C1008.35134,254.58645 1003.07943,252.660271 996.677729,252.660271 C990.276027,252.660271 985.004116,254.58645 980.861838,258.438867 C976.719561,262.291284 974.648453,267.438288 974.648453,273.880034 C974.648453,280.32178 976.719561,285.468784 980.861838,289.3212 C985.004116,293.173617 990.276027,295.099796 996.677729,295.099796 Z" id="path-1"></path>
        <filter x="-50%" y="-50%" width="200%" height="200%" filterUnits="objectBoundingBox" id="filter-2">
            <feMorphology radius="7.5" operator="dilate" in="SourceAlpha" result="shadowSpreadOuter1"></feMorphology>
            <feOffset dx="0" dy="0" in="shadowSpreadOuter1" result="shadowOffsetOuter1"></feOffset>
            <feMorphology radius="7.5" operator="erode" in="SourceAlpha" result="shadowInner"></feMorphology>
            <feOffset dx="0" dy="0" in="shadowInner" result="shadowInner"></feOffset>
            <feComposite in="shadowOffsetOuter1" in2="shadowInner" operator="out" result="shadowOffsetOuter1"></feComposite>
            <feGaussianBlur stdDeviation="2.5" in="shadowOffsetOuter1" result="shadowBlurOuter1"></feGaussianBlur>
            <feColorMatrix values="0 0 0 0 0   0 0 0 0 1   0 0 0 0 0.900475543  0 0 0 1 0" type="matrix" in="shadowBlurOuter1"></feColorMatrix>
        </filter>
        <path d="M7,175 L35.2898279,175 L35.2898279,298.787391 L103.442595,298.787391 L103.442595,325.960233 L7,325.960233 L7,175 Z M126.212142,175 L220.940202,175 L220.940202,202.172842 L154.50197,202.172842 L154.50197,236.678038 L218.3684,236.678038 L218.3684,263.85088 L154.50197,263.85088 L154.50197,298.787391 L223.512005,298.787391 L223.512005,325.960233 L126.212142,325.960233 L126.212142,175 Z M232.993906,175 L262.141001,175 L291.502414,311.72684 L295.360118,311.72684 L324.72153,175 L353.868625,175 L320.006558,325.960233 L266.855973,325.960233 L232.993906,175 Z M364.636427,175 L459.364487,175 L459.364487,202.172842 L392.926255,202.172842 L392.926255,236.678038 L456.792685,236.678038 L456.792685,263.85088 L392.926255,263.85088 L392.926255,298.787391 L461.93629,298.787391 L461.93629,325.960233 L364.636427,325.960233 L364.636427,175 Z M483.84857,175 L512.138398,175 L512.138398,298.787391 L580.291165,298.787391 L580.291165,325.960233 L483.84857,325.960233 L483.84857,175 Z M642.066384,298.787391 L642.066384,189.233393 L638.20868,189.233393 L624.063767,240.991188 L597.05984,240.991188 L597.05984,238.403298 L615.062458,175 L670.356212,175 L670.356212,298.787391 L707.647349,298.787391 L707.647349,325.960233 L599.631642,325.960233 L599.631642,298.787391 L642.066384,298.787391 Z" id="path-3"></path>
        <filter x="-50%" y="-50%" width="200%" height="200%" filterUnits="objectBoundingBox" id="filter-4">
            <feMorphology radius="7.5" operator="dilate" in="SourceAlpha" result="shadowSpreadOuter1"></feMorphology>
            <feOffset dx="0" dy="0" in="shadowSpreadOuter1" result="shadowOffsetOuter1"></feOffset>
            <feMorphology radius="7.5" operator="erode" in="SourceAlpha" result="shadowInner"></feMorphology>
            <feOffset dx="0" dy="0" in="shadowInner" result="shadowInner"></feOffset>
            <feComposite in="shadowOffsetOuter1" in2="shadowInner" operator="out" result="shadowOffsetOuter1"></feComposite>
            <feGaussianBlur stdDeviation="2.5" in="shadowOffsetOuter1" result="shadowBlurOuter1"></feGaussianBlur>
            <feColorMatrix values="0 0 0 0 1   0 0 0 0 0   0 0 0 0 0  0 0 0 1 0" type="matrix" in="shadowBlurOuter1"></feColorMatrix>
        </filter>
        <path d="M351.881442,34.7801217 C353.102272,36.0112764 355.54393,37.2424312 357.985589,37.2424312 C360.427247,37.2424312 362.868906,36.0112764 364.089735,34.7801217 C367.752223,31.0866574 367.752223,24.9308837 364.089735,21.2374194 L345.777296,2.77009819 C342.114808,-0.923366062 336.010661,-0.923366062 332.348173,2.77009819 C328.685685,6.46356243 328.685685,12.6193362 332.348173,16.3128004 L351.881442,34.7801217 Z" id="path-5"></path>
        <filter x="-50%" y="-50%" width="200%" height="200%" filterUnits="objectBoundingBox" id="filter-6">
            <feMorphology radius="1" operator="dilate" in="SourceAlpha" result="shadowSpreadOuter1"></feMorphology>
            <feOffset dx="0" dy="0" in="shadowSpreadOuter1" result="shadowOffsetOuter1"></feOffset>
            <feMorphology radius="1.5" operator="erode" in="SourceAlpha" result="shadowInner"></feMorphology>
            <feOffset dx="0" dy="0" in="shadowInner" result="shadowInner"></feOffset>
            <feComposite in="shadowOffsetOuter1" in2="shadowInner" operator="out" result="shadowOffsetOuter1"></feComposite>
            <feGaussianBlur stdDeviation="2.5" in="shadowOffsetOuter1" result="shadowBlurOuter1"></feGaussianBlur>
            <feColorMatrix values="0 0 0 0 0.537190083   0 0 0 0 0   0 0 0 0 1  0 0 0 1 0" type="matrix" in="shadowBlurOuter1"></feColorMatrix>
        </filter>
        <path d="M407.044841,72.0225528 C408.26567,73.2537076 410.707329,74.4848623 413.148987,74.4848623 C415.590646,74.4848623 418.032305,73.2537076 419.253134,72.0225528 C422.915622,68.3290886 422.915622,62.1733148 419.253134,58.4798506 L400.940694,40.0125293 C397.278206,36.3190651 391.17406,36.3190651 387.511572,40.0125293 C383.849084,43.7059936 383.849084,49.8617673 387.511572,53.5552316 L407.044841,72.0225528 Z" id="path-7"></path>
        <filter x="-50%" y="-50%" width="200%" height="200%" filterUnits="objectBoundingBox" id="filter-8">
            <feMorphology radius="1" operator="dilate" in="SourceAlpha" result="shadowSpreadOuter1"></feMorphology>
            <feOffset dx="0" dy="0" in="shadowSpreadOuter1" result="shadowOffsetOuter1"></feOffset>
            <feMorphology radius="1.5" operator="erode" in="SourceAlpha" result="shadowInner"></feMorphology>
            <feOffset dx="0" dy="0" in="shadowInner" result="shadowInner"></feOffset>
            <feComposite in="shadowOffsetOuter1" in2="shadowInner" operator="out" result="shadowOffsetOuter1"></feComposite>
            <feGaussianBlur stdDeviation="2.5" in="shadowOffsetOuter1" result="shadowBlurOuter1"></feGaussianBlur>
            <feColorMatrix values="0 0 0 0 0.537190083   0 0 0 0 0   0 0 0 0 1  0 0 0 1 0" type="matrix" in="shadowBlurOuter1"></feColorMatrix>
        </filter>
        <path d="M339.673149,74.4848623 C342.114808,74.4848623 344.556466,73.2537076 345.777296,72.0225528 L364.089735,53.5552316 C367.752223,49.8617673 367.752223,43.7059936 364.089735,40.0125293 C360.427247,36.3190651 354.323101,36.3190651 350.660613,40.0125293 L332.348173,58.4798506 C328.685685,62.1733148 328.685685,68.3290886 332.348173,72.0225528 C334.789832,73.2537076 337.23149,74.4848623 339.673149,74.4848623 Z" id="path-9"></path>
        <filter x="-50%" y="-50%" width="200%" height="200%" filterUnits="objectBoundingBox" id="filter-10">
            <feMorphology radius="1" operator="dilate" in="SourceAlpha" result="shadowSpreadOuter1"></feMorphology>
            <feOffset dx="0" dy="0" in="shadowSpreadOuter1" result="shadowOffsetOuter1"></feOffset>
            <feMorphology radius="1.5" operator="erode" in="SourceAlpha" result="shadowInner"></feMorphology>
            <feOffset dx="0" dy="0" in="shadowInner" result="shadowInner"></feOffset>
            <feComposite in="shadowOffsetOuter1" in2="shadowInner" operator="out" result="shadowOffsetOuter1"></feComposite>
            <feGaussianBlur stdDeviation="2.5" in="shadowOffsetOuter1" result="shadowBlurOuter1"></feGaussianBlur>
            <feColorMatrix values="0 0 0 0 0.537190083   0 0 0 0 0   0 0 0 0 1  0 0 0 1 0" type="matrix" in="shadowBlurOuter1"></feColorMatrix>
        </filter>
        <path d="M393.915753,37.2424312 C396.440179,37.2424312 398.964606,36.0112764 400.22682,34.7801217 L419.16002,16.3128004 C422.94666,12.6193362 422.94666,6.46356243 419.16002,2.77009819 C415.37338,-0.923366062 409.062313,-0.923366062 405.275673,2.77009819 L387.604686,21.2374194 C383.818046,24.9308837 383.818046,31.0866574 387.604686,34.7801217 C388.866899,37.2424312 391.391326,37.2424312 393.915753,37.2424312 Z" id="path-11"></path>
        <filter x="-50%" y="-50%" width="200%" height="200%" filterUnits="objectBoundingBox" id="filter-12">
            <feMorphology radius="1" operator="dilate" in="SourceAlpha" result="shadowSpreadOuter1"></feMorphology>
            <feOffset dx="0" dy="0" in="shadowSpreadOuter1" result="shadowOffsetOuter1"></feOffset>
            <feMorphology radius="1.5" operator="erode" in="SourceAlpha" result="shadowInner"></feMorphology>
            <feOffset dx="0" dy="0" in="shadowInner" result="shadowInner"></feOffset>
            <feComposite in="shadowOffsetOuter1" in2="shadowInner" operator="out" result="shadowOffsetOuter1"></feComposite>
            <feGaussianBlur stdDeviation="2.5" in="shadowOffsetOuter1" result="shadowBlurOuter1"></feGaussianBlur>
            <feColorMatrix values="0 0 0 0 0.537190083   0 0 0 0 0   0 0 0 0 1  0 0 0 1 0" type="matrix" in="shadowBlurOuter1"></feColorMatrix>
        </filter>
        <path d="M92.3986928,83.4506328 C92.3986928,87.933518 94.936886,92.4164032 99.167208,92.4164032 L223.538674,92.4164032 C226.922932,92.4164032 230.30719,89.0542393 230.30719,83.4506328 C230.30719,77.8470262 227.768996,74.4848623 223.538674,74.4848623 L99.167208,74.4848623 C95.7829504,75.6055836 92.3986928,78.9677475 92.3986928,83.4506328 Z" id="path-13"></path>
        <filter x="-50%" y="-50%" width="200%" height="200%" filterUnits="objectBoundingBox" id="filter-14">
            <feMorphology radius="1" operator="dilate" in="SourceAlpha" result="shadowSpreadOuter1"></feMorphology>
            <feOffset dx="0" dy="0" in="shadowSpreadOuter1" result="shadowOffsetOuter1"></feOffset>
            <feMorphology radius="1.5" operator="erode" in="SourceAlpha" result="shadowInner"></feMorphology>
            <feOffset dx="0" dy="0" in="shadowInner" result="shadowInner"></feOffset>
            <feComposite in="shadowOffsetOuter1" in2="shadowInner" operator="out" result="shadowOffsetOuter1"></feComposite>
            <feGaussianBlur stdDeviation="2.5" in="shadowOffsetOuter1" result="shadowBlurOuter1"></feGaussianBlur>
            <feColorMatrix values="0 0 0 0 0.537190083   0 0 0 0 0   0 0 0 0 1  0 0 0 1 0" type="matrix" in="shadowBlurOuter1"></feColorMatrix>
        </filter>
        <path d="M55.1633987,83.4506328 C55.1633987,78.9677475 52.494202,74.4848623 48.0455408,74.4848623 L6.22812566,74.4848623 C2.66919671,75.6055836 0,78.9677475 0,83.4506328 C0,87.933518 2.66919671,92.4164032 7.1178579,92.4164032 L48.935273,92.4164032 C52.494202,92.4164032 55.1633987,87.933518 55.1633987,83.4506328 Z" id="path-15"></path>
        <filter x="-50%" y="-50%" width="200%" height="200%" filterUnits="objectBoundingBox" id="filter-16">
            <feMorphology radius="1" operator="dilate" in="SourceAlpha" result="shadowSpreadOuter1"></feMorphology>
            <feOffset dx="0" dy="0" in="shadowSpreadOuter1" result="shadowOffsetOuter1"></feOffset>
            <feMorphology radius="1.5" operator="erode" in="SourceAlpha" result="shadowInner"></feMorphology>
            <feOffset dx="0" dy="0" in="shadowInner" result="shadowInner"></feOffset>
            <feComposite in="shadowOffsetOuter1" in2="shadowInner" operator="out" result="shadowOffsetOuter1"></feComposite>
            <feGaussianBlur stdDeviation="2.5" in="shadowOffsetOuter1" result="shadowBlurOuter1"></feGaussianBlur>
            <feColorMatrix values="0 0 0 0 0.537190083   0 0 0 0 0   0 0 0 0 1  0 0 0 1 0" type="matrix" in="shadowBlurOuter1"></feColorMatrix>
        </filter>
        <path d="M6.02318306,55.1739721 L93.7895648,55.1739721 C97.2313837,55.1739721 100.673203,51.8118082 100.673203,46.2082016 C100.673203,41.7253164 98.0918384,37.2424312 93.7895648,37.2424312 L6.02318306,37.2424312 C2.58136417,38.3631525 0,42.8460377 0,47.3289229 C0,51.8118082 2.58136417,55.1739721 6.02318306,55.1739721 Z" id="path-17"></path>
        <filter x="-50%" y="-50%" width="200%" height="200%" filterUnits="objectBoundingBox" id="filter-18">
            <feMorphology radius="1" operator="dilate" in="SourceAlpha" result="shadowSpreadOuter1"></feMorphology>
            <feOffset dx="0" dy="0" in="shadowSpreadOuter1" result="shadowOffsetOuter1"></feOffset>
            <feMorphology radius="1.5" operator="erode" in="SourceAlpha" result="shadowInner"></feMorphology>
            <feOffset dx="0" dy="0" in="shadowInner" result="shadowInner"></feOffset>
            <feComposite in="shadowOffsetOuter1" in2="shadowInner" operator="out" result="shadowOffsetOuter1"></feComposite>
            <feGaussianBlur stdDeviation="2.5" in="shadowOffsetOuter1" result="shadowBlurOuter1"></feGaussianBlur>
            <feColorMatrix values="0 0 0 0 0.537190083   0 0 0 0 0   0 0 0 0 1  0 0 0 1 0" type="matrix" in="shadowBlurOuter1"></feColorMatrix>
        </filter>
        <path d="M127.607576,55.1739721 L164.758437,55.1739721 C169.261571,55.1739721 173.764706,51.8118082 173.764706,46.2082016 C173.764706,41.7253164 170.387355,37.2424312 164.758437,37.2424312 L127.607576,37.2424312 C123.104442,37.2424312 118.601307,40.6045951 118.601307,46.2082016 C119.727091,51.8118082 123.104442,55.1739721 127.607576,55.1739721 Z" id="path-19"></path>
        <filter x="-50%" y="-50%" width="200%" height="200%" filterUnits="objectBoundingBox" id="filter-20">
            <feMorphology radius="1" operator="dilate" in="SourceAlpha" result="shadowSpreadOuter1"></feMorphology>
            <feOffset dx="0" dy="0" in="shadowSpreadOuter1" result="shadowOffsetOuter1"></feOffset>
            <feMorphology radius="1.5" operator="erode" in="SourceAlpha" result="shadowInner"></feMorphology>
            <feOffset dx="0" dy="0" in="shadowInner" result="shadowInner"></feOffset>
            <feComposite in="shadowOffsetOuter1" in2="shadowInner" operator="out" result="shadowOffsetOuter1"></feComposite>
            <feGaussianBlur stdDeviation="2.5" in="shadowOffsetOuter1" result="shadowBlurOuter1"></feGaussianBlur>
            <feColorMatrix values="0 0 0 0 0.537190083   0 0 0 0 0   0 0 0 0 1  0 0 0 1 0" type="matrix" in="shadowBlurOuter1"></feColorMatrix>
        </filter>
        <path d="M114.506816,57.2327715 C114.506816,62.7660819 117.65232,68.2993923 122.894826,68.2993923 L277.024502,68.2993923 C281.218507,68.2993923 285.412512,64.1494095 285.412512,57.2327715 C285.412512,50.3161335 282.267008,46.1661507 277.024502,46.1661507 L122.894826,46.1661507 C118.700821,47.5494783 114.506816,51.6994611 114.506816,57.2327715 Z" id="path-21"></path>
        <filter x="-50%" y="-50%" width="200%" height="200%" filterUnits="objectBoundingBox" id="filter-22">
            <feMorphology radius="1" operator="dilate" in="SourceAlpha" result="shadowSpreadOuter1"></feMorphology>
            <feOffset dx="0" dy="0" in="shadowSpreadOuter1" result="shadowOffsetOuter1"></feOffset>
            <feMorphology radius="1.5" operator="erode" in="SourceAlpha" result="shadowInner"></feMorphology>
            <feOffset dx="0" dy="0" in="shadowInner" result="shadowInner"></feOffset>
            <feComposite in="shadowOffsetOuter1" in2="shadowInner" operator="out" result="shadowOffsetOuter1"></feComposite>
            <feGaussianBlur stdDeviation="2.5" in="shadowOffsetOuter1" result="shadowBlurOuter1"></feGaussianBlur>
            <feColorMatrix values="0 0 0 0 0.537190083   0 0 0 0 0   0 0 0 0 1  0 0 0 1 0" type="matrix" in="shadowBlurOuter1"></feColorMatrix>
        </filter>
        <path d="M68.3622782,57.2327715 C68.3622782,51.6994611 65.0544261,46.1661507 59.5413391,46.1661507 L7.71832174,46.1661507 C3.30785217,47.5494783 8.4805843e-15,51.6994611 8.4805843e-15,57.2327715 C8.4805843e-15,62.7660819 3.30785217,68.2993923 8.82093913,68.2993923 L60.6439565,68.2993923 C65.0544261,68.2993923 68.3622782,62.7660819 68.3622782,57.2327715 Z" id="path-23"></path>
        <filter x="-50%" y="-50%" width="200%" height="200%" filterUnits="objectBoundingBox" id="filter-24">
            <feMorphology radius="1" operator="dilate" in="SourceAlpha" result="shadowSpreadOuter1"></feMorphology>
            <feOffset dx="0" dy="0" in="shadowSpreadOuter1" result="shadowOffsetOuter1"></feOffset>
            <feMorphology radius="1.5" operator="erode" in="SourceAlpha" result="shadowInner"></feMorphology>
            <feOffset dx="0" dy="0" in="shadowInner" result="shadowInner"></feOffset>
            <feComposite in="shadowOffsetOuter1" in2="shadowInner" operator="out" result="shadowOffsetOuter1"></feComposite>
            <feGaussianBlur stdDeviation="2.5" in="shadowOffsetOuter1" result="shadowBlurOuter1"></feGaussianBlur>
            <feColorMatrix values="0 0 0 0 0.537190083   0 0 0 0 0   0 0 0 0 1  0 0 0 1 0" type="matrix" in="shadowBlurOuter1"></feColorMatrix>
        </filter>
        <path d="M7.46434277,22.330352 L116.23048,22.330352 C120.495819,22.330352 124.761158,18.1803692 124.761158,11.2637312 C124.761158,5.73042082 121.562154,0.197110423 116.23048,0.197110423 L7.46434277,0.197110423 C3.19900405,1.58043802 0,7.11374842 0,12.6470588 C0,18.1803692 3.19900405,22.330352 7.46434277,22.330352 Z" id="path-25"></path>
        <filter x="-50%" y="-50%" width="200%" height="200%" filterUnits="objectBoundingBox" id="filter-26">
            <feMorphology radius="1" operator="dilate" in="SourceAlpha" result="shadowSpreadOuter1"></feMorphology>
            <feOffset dx="0" dy="0" in="shadowSpreadOuter1" result="shadowOffsetOuter1"></feOffset>
            <feMorphology radius="1.5" operator="erode" in="SourceAlpha" result="shadowInner"></feMorphology>
            <feOffset dx="0" dy="0" in="shadowInner" result="shadowInner"></feOffset>
            <feComposite in="shadowOffsetOuter1" in2="shadowInner" operator="out" result="shadowOffsetOuter1"></feComposite>
            <feGaussianBlur stdDeviation="2.5" in="shadowOffsetOuter1" result="shadowBlurOuter1"></feGaussianBlur>
            <feColorMatrix values="0 0 0 0 0.537190083   0 0 0 0 0   0 0 0 0 1  0 0 0 1 0" type="matrix" in="shadowBlurOuter1"></feColorMatrix>
        </filter>
        <path d="M158.140087,22.330352 L204.179988,22.330352 C209.760582,22.330352 215.341176,18.1803692 215.341176,11.2637312 C215.341176,5.73042082 211.155731,0.197110423 204.179988,0.197110423 L158.140087,0.197110423 C152.559492,0.197110423 146.978898,4.34709322 146.978898,11.2637312 C148.374047,18.1803692 152.559492,22.330352 158.140087,22.330352 Z" id="path-27"></path>
        <filter x="-50%" y="-50%" width="200%" height="200%" filterUnits="objectBoundingBox" id="filter-28">
            <feMorphology radius="1" operator="dilate" in="SourceAlpha" result="shadowSpreadOuter1"></feMorphology>
            <feOffset dx="0" dy="0" in="shadowSpreadOuter1" result="shadowOffsetOuter1"></feOffset>
            <feMorphology radius="1.5" operator="erode" in="SourceAlpha" result="shadowInner"></feMorphology>
            <feOffset dx="0" dy="0" in="shadowInner" result="shadowInner"></feOffset>
            <feComposite in="shadowOffsetOuter1" in2="shadowInner" operator="out" result="shadowOffsetOuter1"></feComposite>
            <feGaussianBlur stdDeviation="2.5" in="shadowOffsetOuter1" result="shadowBlurOuter1"></feGaussianBlur>
            <feColorMatrix values="0 0 0 0 0.537190083   0 0 0 0 0   0 0 0 0 1  0 0 0 1 0" type="matrix" in="shadowBlurOuter1"></feColorMatrix>
        </filter>
        <path d="M174.713539,61.4425285 C174.713539,67.3767067 178.057011,73.310885 183.629465,73.310885 L347.459611,73.310885 C351.917574,73.310885 356.375537,68.8602513 356.375537,61.4425285 C356.375537,54.0248057 353.032065,49.574172 347.459611,49.574172 L183.629465,49.574172 C179.171502,51.0577165 174.713539,55.5083502 174.713539,61.4425285 Z" id="path-29"></path>
        <filter x="-50%" y="-50%" width="200%" height="200%" filterUnits="objectBoundingBox" id="filter-30">
            <feMorphology radius="1" operator="dilate" in="SourceAlpha" result="shadowSpreadOuter1"></feMorphology>
            <feOffset dx="0" dy="0" in="shadowSpreadOuter1" result="shadowOffsetOuter1"></feOffset>
            <feMorphology radius="1.5" operator="erode" in="SourceAlpha" result="shadowInner"></feMorphology>
            <feOffset dx="0" dy="0" in="shadowInner" result="shadowInner"></feOffset>
            <feComposite in="shadowOffsetOuter1" in2="shadowInner" operator="out" result="shadowOffsetOuter1"></feComposite>
            <feGaussianBlur stdDeviation="2.5" in="shadowOffsetOuter1" result="shadowBlurOuter1"></feGaussianBlur>
            <feColorMatrix values="0 0 0 0 0.537190083   0 0 0 0 0   0 0 0 0 1  0 0 0 1 0" type="matrix" in="shadowBlurOuter1"></feColorMatrix>
        </filter>
        <path d="M72.6647993,61.8683565 C72.6647993,55.9341782 69.1487606,50 63.2886961,50 L8.20409024,50 C3.51603867,51.4835446 0,55.9341782 0,61.8683565 C0,67.8025347 3.51603867,73.736713 9.37610313,73.736713 L64.460709,73.736713 C69.1487606,73.736713 72.6647993,67.8025347 72.6647993,61.8683565 Z" id="path-31"></path>
        <filter x="-50%" y="-50%" width="200%" height="200%" filterUnits="objectBoundingBox" id="filter-32">
            <feMorphology radius="1" operator="dilate" in="SourceAlpha" result="shadowSpreadOuter1"></feMorphology>
            <feOffset dx="0" dy="0" in="shadowSpreadOuter1" result="shadowOffsetOuter1"></feOffset>
            <feMorphology radius="1.5" operator="erode" in="SourceAlpha" result="shadowInner"></feMorphology>
            <feOffset dx="0" dy="0" in="shadowInner" result="shadowInner"></feOffset>
            <feComposite in="shadowOffsetOuter1" in2="shadowInner" operator="out" result="shadowOffsetOuter1"></feComposite>
            <feGaussianBlur stdDeviation="2.5" in="shadowOffsetOuter1" result="shadowBlurOuter1"></feGaussianBlur>
            <feColorMatrix values="0 0 0 0 0.537190083   0 0 0 0 0   0 0 0 0 1  0 0 0 1 0" type="matrix" in="shadowBlurOuter1"></feColorMatrix>
        </filter>
        <path d="M60.9341266,24.011558 L176.545685,24.011558 C181.079472,24.011558 185.613259,19.5609243 185.613259,12.1432015 C185.613259,6.20902327 182.212919,0.274845028 176.545685,0.274845028 L60.9341266,0.274845028 C56.40034,1.75838959 53,7.69256783 53,13.6267461 C53,19.5609243 56.40034,24.011558 60.9341266,24.011558 Z" id="path-33"></path>
        <filter x="-50%" y="-50%" width="200%" height="200%" filterUnits="objectBoundingBox" id="filter-34">
            <feMorphology radius="1" operator="dilate" in="SourceAlpha" result="shadowSpreadOuter1"></feMorphology>
            <feOffset dx="0" dy="0" in="shadowSpreadOuter1" result="shadowOffsetOuter1"></feOffset>
            <feMorphology radius="1.5" operator="erode" in="SourceAlpha" result="shadowInner"></feMorphology>
            <feOffset dx="0" dy="0" in="shadowInner" result="shadowInner"></feOffset>
            <feComposite in="shadowOffsetOuter1" in2="shadowInner" operator="out" result="shadowOffsetOuter1"></feComposite>
            <feGaussianBlur stdDeviation="2.5" in="shadowOffsetOuter1" result="shadowBlurOuter1"></feGaussianBlur>
            <feColorMatrix values="0 0 0 0 0.537190083   0 0 0 0 0   0 0 0 0 1  0 0 0 1 0" type="matrix" in="shadowBlurOuter1"></feColorMatrix>
        </filter>
        <path d="M221.092959,24.011558 L270.030477,24.011558 C275.962297,24.011558 281.894118,19.5609243 281.894118,12.1432015 C281.894118,6.20902327 277.445252,0.274845028 270.030477,0.274845028 L221.092959,0.274845028 C215.161139,0.274845028 209.229318,4.72547871 209.229318,12.1432015 C210.712273,19.5609243 215.161139,24.011558 221.092959,24.011558 Z" id="path-35"></path>
        <filter x="-50%" y="-50%" width="200%" height="200%" filterUnits="objectBoundingBox" id="filter-36">
            <feMorphology radius="1" operator="dilate" in="SourceAlpha" result="shadowSpreadOuter1"></feMorphology>
            <feOffset dx="0" dy="0" in="shadowSpreadOuter1" result="shadowOffsetOuter1"></feOffset>
            <feMorphology radius="1.5" operator="erode" in="SourceAlpha" result="shadowInner"></feMorphology>
            <feOffset dx="0" dy="0" in="shadowInner" result="shadowInner"></feOffset>
            <feComposite in="shadowOffsetOuter1" in2="shadowInner" operator="out" result="shadowOffsetOuter1"></feComposite>
            <feGaussianBlur stdDeviation="2.5" in="shadowOffsetOuter1" result="shadowBlurOuter1"></feGaussianBlur>
            <feColorMatrix values="0 0 0 0 0.537190083   0 0 0 0 0   0 0 0 0 1  0 0 0 1 0" type="matrix" in="shadowBlurOuter1"></feColorMatrix>
        </filter>
        <path d="M21,0 C9.39473684,0 0,9.39473684 0,21 C0,32.6052632 9.39473684,42 21,42 C32.6052632,42 42,32.6052632 42,21 C42,9.39473684 32.6052632,0 21,0 Z M21.5833333,34.4166667 C14.3297101,34.4166667 8.75,28.8369565 8.75,21.5833333 C8.75,14.3297101 14.3297101,8.75 21.5833333,8.75 C28.8369565,8.75 34.4166667,14.3297101 34.4166667,21.5833333 C34.4166667,28.8369565 28.8369565,34.4166667 21.5833333,34.4166667 Z" id="path-37"></path>
        <filter x="-50%" y="-50%" width="200%" height="200%" filterUnits="objectBoundingBox" id="filter-38">
            <feMorphology radius="1" operator="dilate" in="SourceAlpha" result="shadowSpreadOuter1"></feMorphology>
            <feOffset dx="0" dy="0" in="shadowSpreadOuter1" result="shadowOffsetOuter1"></feOffset>
            <feMorphology radius="1.5" operator="erode" in="SourceAlpha" result="shadowInner"></feMorphology>
            <feOffset dx="0" dy="0" in="shadowInner" result="shadowInner"></feOffset>
            <feComposite in="shadowOffsetOuter1" in2="shadowInner" operator="out" result="shadowOffsetOuter1"></feComposite>
            <feGaussianBlur stdDeviation="2.5" in="shadowOffsetOuter1" result="shadowBlurOuter1"></feGaussianBlur>
            <feColorMatrix values="0 0 0 0 0.537190083   0 0 0 0 0   0 0 0 0 1  0 0 0 1 0" type="matrix" in="shadowBlurOuter1"></feColorMatrix>
        </filter>
        <path d="M21.5409836,35.4876033 C22.7213115,36.7438017 25.0819672,38 27.442623,38 C29.8032787,38 32.1639344,36.7438017 33.3442623,35.4876033 C36.8852459,31.7190083 36.8852459,25.4380165 33.3442623,21.6694215 L15.6393443,2.82644628 C12.0983607,-0.94214876 6.19672131,-0.94214876 2.6557377,2.82644628 C-0.885245902,6.59504132 -0.885245902,12.8760331 2.6557377,16.6446281 L21.5409836,35.4876033 Z" id="path-39"></path>
        <filter x="-50%" y="-50%" width="200%" height="200%" filterUnits="objectBoundingBox" id="filter-40">
            <feMorphology radius="1" operator="dilate" in="SourceAlpha" result="shadowSpreadOuter1"></feMorphology>
            <feOffset dx="0" dy="0" in="shadowSpreadOuter1" result="shadowOffsetOuter1"></feOffset>
            <feMorphology radius="1.5" operator="erode" in="SourceAlpha" result="shadowInner"></feMorphology>
            <feOffset dx="0" dy="0" in="shadowInner" result="shadowInner"></feOffset>
            <feComposite in="shadowOffsetOuter1" in2="shadowInner" operator="out" result="shadowOffsetOuter1"></feComposite>
            <feGaussianBlur stdDeviation="2.5" in="shadowOffsetOuter1" result="shadowBlurOuter1"></feGaussianBlur>
            <feColorMatrix values="0 0 0 0 0.537190083   0 0 0 0 0   0 0 0 0 1  0 0 0 1 0" type="matrix" in="shadowBlurOuter1"></feColorMatrix>
        </filter>
        <path d="M76.5409836,73.4876033 C77.7213115,74.7438017 80.0819672,76 82.442623,76 C84.8032787,76 87.1639344,74.7438017 88.3442623,73.4876033 C91.8852459,69.7190083 91.8852459,63.4380165 88.3442623,59.6694215 L70.6393443,40.8264463 C67.0983607,37.0578512 61.1967213,37.0578512 57.6557377,40.8264463 C54.1147541,44.5950413 54.1147541,50.8760331 57.6557377,54.6446281 L76.5409836,73.4876033 Z" id="path-41"></path>
        <filter x="-50%" y="-50%" width="200%" height="200%" filterUnits="objectBoundingBox" id="filter-42">
            <feMorphology radius="1" operator="dilate" in="SourceAlpha" result="shadowSpreadOuter1"></feMorphology>
            <feOffset dx="0" dy="0" in="shadowSpreadOuter1" result="shadowOffsetOuter1"></feOffset>
            <feMorphology radius="1.5" operator="erode" in="SourceAlpha" result="shadowInner"></feMorphology>
            <feOffset dx="0" dy="0" in="shadowInner" result="shadowInner"></feOffset>
            <feComposite in="shadowOffsetOuter1" in2="shadowInner" operator="out" result="shadowOffsetOuter1"></feComposite>
            <feGaussianBlur stdDeviation="2.5" in="shadowOffsetOuter1" result="shadowBlurOuter1"></feGaussianBlur>
            <feColorMatrix values="0 0 0 0 0.537190083   0 0 0 0 0   0 0 0 0 1  0 0 0 1 0" type="matrix" in="shadowBlurOuter1"></feColorMatrix>
        </filter>
        <path d="M9.73770492,76 C12.0983607,76 14.4590164,74.7438017 15.6393443,73.4876033 L33.3442623,54.6446281 C36.8852459,50.8760331 36.8852459,44.5950413 33.3442623,40.8264463 C29.8032787,37.0578512 23.9016393,37.0578512 20.3606557,40.8264463 L2.6557377,59.6694215 C-0.885245902,63.4380165 -0.885245902,69.7190083 2.6557377,73.4876033 C5.01639344,74.7438017 7.37704918,76 9.73770492,76 Z" id="path-43"></path>
        <filter x="-50%" y="-50%" width="200%" height="200%" filterUnits="objectBoundingBox" id="filter-44">
            <feMorphology radius="1" operator="dilate" in="SourceAlpha" result="shadowSpreadOuter1"></feMorphology>
            <feOffset dx="0" dy="0" in="shadowSpreadOuter1" result="shadowOffsetOuter1"></feOffset>
            <feMorphology radius="1.5" operator="erode" in="SourceAlpha" result="shadowInner"></feMorphology>
            <feOffset dx="0" dy="0" in="shadowInner" result="shadowInner"></feOffset>
            <feComposite in="shadowOffsetOuter1" in2="shadowInner" operator="out" result="shadowOffsetOuter1"></feComposite>
            <feGaussianBlur stdDeviation="2.5" in="shadowOffsetOuter1" result="shadowBlurOuter1"></feGaussianBlur>
            <feColorMatrix values="0 0 0 0 0.537190083   0 0 0 0 0   0 0 0 0 1  0 0 0 1 0" type="matrix" in="shadowBlurOuter1"></feColorMatrix>
        </filter>
        <path d="M63.8474576,38 C66.2881356,38 68.7288136,36.7438017 69.9491525,35.4876033 L88.2542373,16.6446281 C91.9152542,12.8760331 91.9152542,6.59504132 88.2542373,2.82644628 C84.5932203,-0.94214876 78.4915254,-0.94214876 74.8305085,2.82644628 L57.7457627,21.6694215 C54.0847458,25.4380165 54.0847458,31.7190083 57.7457627,35.4876033 C58.9661017,38 61.4067797,38 63.8474576,38 Z" id="path-45"></path>
        <filter x="-50%" y="-50%" width="200%" height="200%" filterUnits="objectBoundingBox" id="filter-46">
            <feMorphology radius="1" operator="dilate" in="SourceAlpha" result="shadowSpreadOuter1"></feMorphology>
            <feOffset dx="0" dy="0" in="shadowSpreadOuter1" result="shadowOffsetOuter1"></feOffset>
            <feMorphology radius="1.5" operator="erode" in="SourceAlpha" result="shadowInner"></feMorphology>
            <feOffset dx="0" dy="0" in="shadowInner" result="shadowInner"></feOffset>
            <feComposite in="shadowOffsetOuter1" in2="shadowInner" operator="out" result="shadowOffsetOuter1"></feComposite>
            <feGaussianBlur stdDeviation="2.5" in="shadowOffsetOuter1" result="shadowBlurOuter1"></feGaussianBlur>
            <feColorMatrix values="0 0 0 0 0.537190083   0 0 0 0 0   0 0 0 0 1  0 0 0 1 0" type="matrix" in="shadowBlurOuter1"></feColorMatrix>
        </filter>
        <path d="M21.1440188,59.3513939 L15.0754819,80.4387683 L47.5990869,72.4109476 L55.3922313,85.1191627 L59.4111976,77.1610799 L67.3399566,80.8510172 L66.0665447,67.8523741 L79.2151836,64.6073479 L70.5435298,55.1203244 L75.8973184,44.5201407 L87.0586501,36.483492 L81.3568695,33.7098597 L85.9387642,24.6377335 L64.6131664,25.563749 L61.7908488,24.191057 L60.6905799,12.9535203 L52.0078384,19.432097 L27.3831399,7.45304176 L28.9866326,27.1112275 L20.0582497,27.4987593 L26.6931266,38.3196333 L7.20131002,52.8622241 L21.1440188,59.3513939 L21.1440188,59.3513939 Z M12.5806863,52.2981401 L26.0696407,42.2337917 L21.9227362,56.645734 L12.5806863,52.2981401 L12.5806863,52.2981401 Z M61.5358254,49.3391281 L61.7294384,51.3120971 L45.1733779,63.2328903 L33.0311866,43.4334627 L32.539904,37.4068591 L43.293539,29.3825696 L61.5358254,49.3391281 L61.5358254,49.3391281 Z M46.792223,29.1389276 L59.5041662,28.5863197 L61.0897474,44.7787893 L46.792223,29.1389276 L46.792223,29.1389276 Z M33.5224693,49.4556524 L42.9515173,64.8324518 L41.6013426,65.8043706 L34.5894743,62.5408063 L33.5224693,49.4556524 L33.5224693,49.4556524 Z M31.7697156,61.2290246 L24.4098555,57.8039154 L28.9559275,42.0086878 L30.3931001,44.3524162 L31.7697156,61.2290246 L31.7697156,61.2290246 Z M39.0135785,67.6678771 L35.2300183,70.3920752 L34.8496154,65.7302187 L39.0135785,67.6678771 L39.0135785,67.6678771 Z M41.888777,69.0061416 L44.6095967,70.2729025 L37.7930478,71.9545607 L41.888777,69.0061416 L41.888777,69.0061416 Z M62.0091968,65.9773915 L48.9168507,69.2091764 L48.8059709,69.1579763 L46.6233447,65.5969218 L62.0407549,54.4962131 L62.9781156,64.0600365 L62.0091968,65.9773915 L62.0091968,65.9773915 Z M60.3494113,69.2639077 L58.1957843,73.5276391 L52.9554343,71.0885729 L60.3494113,69.2639077 L60.3494113,69.2639077 Z M64.5799022,52.6688994 L64.5799022,52.6680166 L67.2538115,55.5934839 L65.2537104,59.5535459 L64.5799022,52.6688994 L64.5799022,52.6688994 Z M64.1329715,48.1076778 L62.2096333,28.4689126 L64.0630318,28.3885814 L77.6543371,35.0004552 L73.8085137,42.6151442 L64.9449527,48.9966174 L64.1329715,48.1076778 L64.1329715,48.1076778 Z M47.4105912,26.3114468 L52.2978318,22.6647647 L58.7783298,25.8171011 L47.4105912,26.3114468 L47.4105912,26.3114468 Z M32.4810523,29.7603909 L38.5163251,29.4982111 L32.2746452,34.1547709 L32.0409448,31.2893313 L32.4810523,29.7603909 L32.4810523,29.7603909 Z M33.2964451,26.9240825 L35.1524025,20.4764023 L40.7501268,26.6001093 L33.2964451,26.9240825 L33.2964451,26.9240825 Z M23.631991,60.509575 L32.0298567,64.4175545 L32.7454578,73.2010179 L19.0031857,76.5925823 L23.631991,60.509575 L23.631991,60.509575 Z M55.1653541,79.5277597 L51.4389398,73.4508391 L56.9411367,76.0117261 L55.1653541,79.5277597 L55.1653541,79.5277597 Z M60.6658453,74.6769929 L63.4728101,69.119135 L64.1773235,76.3118647 L60.6658453,74.6769929 L60.6658453,74.6769929 Z M74.0328321,63.0095518 L65.7919039,65.0443139 L65.7492577,64.6117616 L69.2189428,57.7430048 L74.0328321,63.0095518 L74.0328321,63.0095518 Z M68.5783987,52.9708035 L66.824792,51.0525657 L71.1030464,47.97085 L68.5783987,52.9708035 L68.5783987,52.9708035 Z M81.6707445,36.9540034 L78.6027858,39.163552 L80.1030749,36.1912986 L81.6707445,36.9540034 L81.6707445,36.9540034 Z M81.3730749,27.6364699 L78.9081316,32.5181335 L69.8978684,28.1352293 L81.3730749,27.6364699 L81.3730749,27.6364699 Z M58.472984,18.0576394 L58.9378262,22.8033581 L54.806274,20.7933132 L58.472984,18.0576394 L58.472984,18.0576394 Z M49.4993962,21.3035484 L43.6312957,25.6811562 L33.8977549,15.0333032 L31.4174589,23.6508077 L30.471569,12.0469256 L49.4993962,21.3035484 L49.4993962,21.3035484 Z M29.2143626,29.9016324 L29.3039193,30.9971376 L28.058654,35.324428 L24.8499631,30.0914258 L29.2143626,29.9016324 L29.2143626,29.9016324 Z" id="path-47"></path>
        <filter x="-50%" y="-50%" width="200%" height="200%" filterUnits="objectBoundingBox" id="filter-48">
            <feMorphology radius="1" operator="dilate" in="SourceAlpha" result="shadowSpreadOuter1"></feMorphology>
            <feOffset dx="0" dy="0" in="shadowSpreadOuter1" result="shadowOffsetOuter1"></feOffset>
            <feMorphology radius="1.5" operator="erode" in="SourceAlpha" result="shadowInner"></feMorphology>
            <feOffset dx="0" dy="0" in="shadowInner" result="shadowInner"></feOffset>
            <feComposite in="shadowOffsetOuter1" in2="shadowInner" operator="out" result="shadowOffsetOuter1"></feComposite>
            <feGaussianBlur stdDeviation="2.5" in="shadowOffsetOuter1" result="shadowBlurOuter1"></feGaussianBlur>
            <feColorMatrix values="0 0 0 0 0.816203773   0 0 0 0 0.00751322834   0 0 0 0 0.106696017  0 0 0 1 0" type="matrix" in="shadowBlurOuter1"></feColorMatrix>
        </filter>
        <filter x="-50%" y="-50%" width="200%" height="200%" filterUnits="objectBoundingBox" id="filter-49">
            <feMorphology radius="1" operator="dilate" in="SourceAlpha" result="shadowSpreadOuter1"></feMorphology>
            <feOffset dx="0" dy="0" in="shadowSpreadOuter1" result="shadowOffsetOuter1"></feOffset>
            <feMorphology radius="1.5" operator="erode" in="SourceAlpha" result="shadowInner"></feMorphology>
            <feOffset dx="0" dy="0" in="shadowInner" result="shadowInner"></feOffset>
            <feComposite in="shadowOffsetOuter1" in2="shadowInner" operator="out" result="shadowOffsetOuter1"></feComposite>
            <feGaussianBlur stdDeviation="2.5" in="shadowOffsetOuter1" result="shadowBlurOuter1"></feGaussianBlur>
            <feColorMatrix values="0 0 0 0 0   0 0 0 0 1   0 0 0 0 0.776176547  0 0 0 1 0" type="matrix" in="shadowBlurOuter1" result="shadowMatrixOuter1"></feColorMatrix>
            <feMerge>
                <feMergeNode in="shadowMatrixOuter1"></feMergeNode>
                <feMergeNode in="SourceGraphic"></feMergeNode>
            </feMerge>
        </filter>
        <filter x="-50%" y="-50%" width="200%" height="200%" filterUnits="objectBoundingBox" id="filter-50">
            <feMorphology radius="1" operator="dilate" in="SourceAlpha" result="shadowSpreadOuter1"></feMorphology>
            <feOffset dx="0" dy="0" in="shadowSpreadOuter1" result="shadowOffsetOuter1"></feOffset>
            <feMorphology radius="1.5" operator="erode" in="SourceAlpha" result="shadowInner"></feMorphology>
            <feOffset dx="0" dy="0" in="shadowInner" result="shadowInner"></feOffset>
            <feComposite in="shadowOffsetOuter1" in2="shadowInner" operator="out" result="shadowOffsetOuter1"></feComposite>
            <feGaussianBlur stdDeviation="7.5" in="shadowOffsetOuter1" result="shadowBlurOuter1"></feGaussianBlur>
            <feColorMatrix values="0 0 0 0 0.756453804   0 0 0 0 0   0 0 0 0 1  0 0 0 1 0" type="matrix" in="shadowBlurOuter1" result="shadowMatrixOuter1"></feColorMatrix>
            <feMerge>
                <feMergeNode in="shadowMatrixOuter1"></feMergeNode>
                <feMergeNode in="SourceGraphic"></feMergeNode>
            </feMerge>
        </filter>
        <path d="M30.3,40.8 L9.9,40.8 C4.5,40.8 0.1,45.2 0.1,50.6 L0.1,91.9 C0.1,97.3 4.5,101.7 9.9,101.7 L30.2,101.7 C35.6,101.7 40,97.3 40,91.9 L40,50.6 C40.1,45.2 35.7,40.8 30.3,40.8 Z M9.9,42.3 L19.3,42.3 L19.3,53.2 L18.6,53.2 C17.1,53.2 15.9,54.4 15.9,55.9 L15.9,59 L1.6,59 L1.6,50.6 C1.6,46 5.3,42.3 9.9,42.3 Z M22.7,63.6 C22.7,64.3 22.2,64.8 21.5,64.8 L18.7,64.8 C18,64.8 17.5,64.3 17.5,63.6 L17.5,55.9 C17.5,55.2 18,54.7 18.7,54.7 L21.5,54.7 C22.2,54.7 22.7,55.2 22.7,55.9 L22.7,63.6 Z M30.3,100.2 L9.9,100.2 C5.3,100.2 1.6,96.5 1.6,91.9 L1.6,60.5 L16,60.5 L16,63.6 C16,65.1 17.2,66.3 18.7,66.3 L21.5,66.3 C23,66.3 24.2,65.1 24.2,63.6 L24.2,60.5 L38.6,60.5 L38.6,91.9 C38.6,96.5 34.9,100.2 30.3,100.2 Z M38.6,59 L24.2,59 L24.2,55.9 C24.2,54.4 23,53.2 21.5,53.2 L20.9,53.2 L20.9,42.3 L30.3,42.3 C34.9,42.3 38.6,46 38.6,50.6 L38.6,59 L38.6,59 Z" id="path-51"></path>
        <filter x="-50%" y="-50%" width="200%" height="200%" filterUnits="objectBoundingBox" id="filter-52">
            <feMorphology radius="1" operator="dilate" in="SourceAlpha" result="shadowSpreadOuter1"></feMorphology>
            <feOffset dx="0" dy="0" in="shadowSpreadOuter1" result="shadowOffsetOuter1"></feOffset>
            <feMorphology radius="1.5" operator="erode" in="SourceAlpha" result="shadowInner"></feMorphology>
            <feOffset dx="0" dy="0" in="shadowInner" result="shadowInner"></feOffset>
            <feComposite in="shadowOffsetOuter1" in2="shadowInner" operator="out" result="shadowOffsetOuter1"></feComposite>
            <feGaussianBlur stdDeviation="2.5" in="shadowOffsetOuter1" result="shadowBlurOuter1"></feGaussianBlur>
            <feColorMatrix values="0 0 0 0 0.537190083   0 0 0 0 0   0 0 0 0 1  0 0 0 1 0" type="matrix" in="shadowBlurOuter1"></feColorMatrix>
        </filter>
        <path d="M24.4,30.1 C21.9,31.6 19.1,33.2 19.1,36.6 C19.1,37 19.4,37.4 19.9,37.4 C20.3,37.4 20.7,37.1 20.7,36.6 C20.7,34.1 22.9,32.8 25.3,31.4 C27.8,29.9 30.6,28.3 30.6,24.9 C30.6,21.6 27.8,19.9 25.3,18.4 C22.9,17 20.7,15.7 20.7,13.2 C20.7,10.7 22.9,9.4 25.3,8 C27.8,6.5 30.6,4.9 30.6,1.5 C30.6,1.1 30.3,0.7 29.8,0.7 C29.4,0.7 29,1 29,1.5 C29,4 26.8,5.3 24.4,6.7 C21.9,8.2 19.1,9.8 19.1,13.2 C19.1,16.5 21.9,18.2 24.4,19.7 C26.8,21.1 29,22.4 29,24.9 C29,27.5 26.8,28.8 24.4,30.1 Z" id="path-53"></path>
        <filter x="-50%" y="-50%" width="200%" height="200%" filterUnits="objectBoundingBox" id="filter-54">
            <feMorphology radius="1" operator="dilate" in="SourceAlpha" result="shadowSpreadOuter1"></feMorphology>
            <feOffset dx="0" dy="0" in="shadowSpreadOuter1" result="shadowOffsetOuter1"></feOffset>
            <feMorphology radius="1.5" operator="erode" in="SourceAlpha" result="shadowInner"></feMorphology>
            <feOffset dx="0" dy="0" in="shadowInner" result="shadowInner"></feOffset>
            <feComposite in="shadowOffsetOuter1" in2="shadowInner" operator="out" result="shadowOffsetOuter1"></feComposite>
            <feGaussianBlur stdDeviation="2.5" in="shadowOffsetOuter1" result="shadowBlurOuter1"></feGaussianBlur>
            <feColorMatrix values="0 0 0 0 0.537190083   0 0 0 0 0   0 0 0 0 1  0 0 0 1 0" type="matrix" in="shadowBlurOuter1"></feColorMatrix>
        </filter>
        <path d="M60.2,51.4 L52,51.4 C51.6,51.4 51.2,51.7 51.2,52.2 C51.2,52.7 51.5,53 52,53 L60.3,53 C60.7,53 61.1,52.7 61.1,52.2 C61.1,51.7 60.7,51.4 60.2,51.4 Z" id="path-55"></path>
        <filter x="-50%" y="-50%" width="200%" height="200%" filterUnits="objectBoundingBox" id="filter-56">
            <feMorphology radius="1" operator="dilate" in="SourceAlpha" result="shadowSpreadOuter1"></feMorphology>
            <feOffset dx="0" dy="0" in="shadowSpreadOuter1" result="shadowOffsetOuter1"></feOffset>
            <feMorphology radius="1.5" operator="erode" in="SourceAlpha" result="shadowInner"></feMorphology>
            <feOffset dx="0" dy="0" in="shadowInner" result="shadowInner"></feOffset>
            <feComposite in="shadowOffsetOuter1" in2="shadowInner" operator="out" result="shadowOffsetOuter1"></feComposite>
            <feGaussianBlur stdDeviation="2.5" in="shadowOffsetOuter1" result="shadowBlurOuter1"></feGaussianBlur>
            <feColorMatrix values="0 0 0 0 0.537190083   0 0 0 0 0   0 0 0 0 1  0 0 0 1 0" type="matrix" in="shadowBlurOuter1"></feColorMatrix>
        </filter>
        <path d="M59.7,31.6 C59.4,31.9 59.4,32.4 59.7,32.7 L65.5,38.5 C65.6,38.6 65.8,38.7 66,38.7 C66.2,38.7 66.4,38.6 66.5,38.5 C66.8,38.2 66.8,37.7 66.5,37.4 L60.7,31.6 C60.5,31.3 60,31.3 59.7,31.6 Z" id="path-57"></path>
        <filter x="-50%" y="-50%" width="200%" height="200%" filterUnits="objectBoundingBox" id="filter-58">
            <feMorphology radius="1" operator="dilate" in="SourceAlpha" result="shadowSpreadOuter1"></feMorphology>
            <feOffset dx="0" dy="0" in="shadowSpreadOuter1" result="shadowOffsetOuter1"></feOffset>
            <feMorphology radius="1.5" operator="erode" in="SourceAlpha" result="shadowInner"></feMorphology>
            <feOffset dx="0" dy="0" in="shadowInner" result="shadowInner"></feOffset>
            <feComposite in="shadowOffsetOuter1" in2="shadowInner" operator="out" result="shadowOffsetOuter1"></feComposite>
            <feGaussianBlur stdDeviation="2.5" in="shadowOffsetOuter1" result="shadowBlurOuter1"></feGaussianBlur>
            <feColorMatrix values="0 0 0 0 0.537190083   0 0 0 0 0   0 0 0 0 1  0 0 0 1 0" type="matrix" in="shadowBlurOuter1"></feColorMatrix>
        </filter>
        <path d="M80.2,32.9 C80.6,32.9 81,32.6 81,32.1 L81,23.8 C81,23.4 80.7,23 80.2,23 C79.8,23 79.4,23.3 79.4,23.8 L79.4,32.1 C79.5,32.6 79.8,32.9 80.2,32.9 Z" id="path-59"></path>
        <filter x="-50%" y="-50%" width="200%" height="200%" filterUnits="objectBoundingBox" id="filter-60">
            <feMorphology radius="1" operator="dilate" in="SourceAlpha" result="shadowSpreadOuter1"></feMorphology>
            <feOffset dx="0" dy="0" in="shadowSpreadOuter1" result="shadowOffsetOuter1"></feOffset>
            <feMorphology radius="1.5" operator="erode" in="SourceAlpha" result="shadowInner"></feMorphology>
            <feOffset dx="0" dy="0" in="shadowInner" result="shadowInner"></feOffset>
            <feComposite in="shadowOffsetOuter1" in2="shadowInner" operator="out" result="shadowOffsetOuter1"></feComposite>
            <feGaussianBlur stdDeviation="2.5" in="shadowOffsetOuter1" result="shadowBlurOuter1"></feGaussianBlur>
            <feColorMatrix values="0 0 0 0 0.537190083   0 0 0 0 0   0 0 0 0 1  0 0 0 1 0" type="matrix" in="shadowBlurOuter1"></feColorMatrix>
        </filter>
        <path d="M100.7,31.6 C100.4,31.3 99.9,31.3 99.6,31.6 L93.8,37.4 C93.5,37.7 93.5,38.2 93.8,38.5 C93.9,38.6 94.1,38.7 94.3,38.7 C94.5,38.7 94.7,38.6 94.8,38.5 L100.6,32.7 C101,32.4 101,31.9 100.7,31.6 Z" id="path-61"></path>
        <filter x="-50%" y="-50%" width="200%" height="200%" filterUnits="objectBoundingBox" id="filter-62">
            <feMorphology radius="1" operator="dilate" in="SourceAlpha" result="shadowSpreadOuter1"></feMorphology>
            <feOffset dx="0" dy="0" in="shadowSpreadOuter1" result="shadowOffsetOuter1"></feOffset>
            <feMorphology radius="1.5" operator="erode" in="SourceAlpha" result="shadowInner"></feMorphology>
            <feOffset dx="0" dy="0" in="shadowInner" result="shadowInner"></feOffset>
            <feComposite in="shadowOffsetOuter1" in2="shadowInner" operator="out" result="shadowOffsetOuter1"></feComposite>
            <feGaussianBlur stdDeviation="2.5" in="shadowOffsetOuter1" result="shadowBlurOuter1"></feGaussianBlur>
            <feColorMatrix values="0 0 0 0 0.537190083   0 0 0 0 0   0 0 0 0 1  0 0 0 1 0" type="matrix" in="shadowBlurOuter1"></feColorMatrix>
        </filter>
        <path d="M100.2,52.9 L108.5,52.9 C108.9,52.9 109.3,52.6 109.3,52.1 C109.3,51.6 109,51.3 108.5,51.3 L100.2,51.3 C99.8,51.3 99.4,51.6 99.4,52.1 C99.4,52.6 99.8,52.9 100.2,52.9 Z" id="path-63"></path>
        <filter x="-50%" y="-50%" width="200%" height="200%" filterUnits="objectBoundingBox" id="filter-64">
            <feMorphology radius="1" operator="dilate" in="SourceAlpha" result="shadowSpreadOuter1"></feMorphology>
            <feOffset dx="0" dy="0" in="shadowSpreadOuter1" result="shadowOffsetOuter1"></feOffset>
            <feMorphology radius="1.5" operator="erode" in="SourceAlpha" result="shadowInner"></feMorphology>
            <feOffset dx="0" dy="0" in="shadowInner" result="shadowInner"></feOffset>
            <feComposite in="shadowOffsetOuter1" in2="shadowInner" operator="out" result="shadowOffsetOuter1"></feComposite>
            <feGaussianBlur stdDeviation="2.5" in="shadowOffsetOuter1" result="shadowBlurOuter1"></feGaussianBlur>
            <feColorMatrix values="0 0 0 0 0.537190083   0 0 0 0 0   0 0 0 0 1  0 0 0 1 0" type="matrix" in="shadowBlurOuter1"></feColorMatrix>
        </filter>
        <path d="M98.3,71.4 L103.8,69.9 C104.1,69.8 104.3,69.6 104.3,69.3 L104.4,68.7 C104.5,68.4 104.3,68.1 104.1,67.9 L80.6,53.2 C80.3,53 80,53 79.8,53.2 C79.6,53.4 79.4,53.7 79.5,54 L84.7,82 C84.8,82.3 85,82.5 85.3,82.6 C85.6,82.7 85.9,82.6 86.1,82.3 L90,77.1 L101.1,93.4 C101.2,93.6 101.4,93.7 101.6,93.7 L101.7,93.7 C101.8,93.7 102,93.7 102.1,93.6 L109.3,88.7 C109.6,88.5 109.7,88 109.5,87.7 L98.3,71.4 Z M101.8,92 L90.6,75.4 C90.5,75.2 90.2,75.1 90,75.1 L90,75.1 C89.8,75.1 89.5,75.2 89.4,75.4 L85.8,80 L81.3,55.4 L102.5,68.7 L96.9,70.2 C96.7,70.3 96.5,70.4 96.4,70.7 C96.3,70.9 96.3,71.2 96.5,71.4 L107.7,88 L101.8,92 Z" id="path-65"></path>
        <filter x="-50%" y="-50%" width="200%" height="200%" filterUnits="objectBoundingBox" id="filter-66">
            <feMorphology radius="1" operator="dilate" in="SourceAlpha" result="shadowSpreadOuter1"></feMorphology>
            <feOffset dx="0" dy="0" in="shadowSpreadOuter1" result="shadowOffsetOuter1"></feOffset>
            <feMorphology radius="1.5" operator="erode" in="SourceAlpha" result="shadowInner"></feMorphology>
            <feOffset dx="0" dy="0" in="shadowInner" result="shadowInner"></feOffset>
            <feComposite in="shadowOffsetOuter1" in2="shadowInner" operator="out" result="shadowOffsetOuter1"></feComposite>
            <feGaussianBlur stdDeviation="2.5" in="shadowOffsetOuter1" result="shadowBlurOuter1"></feGaussianBlur>
            <feColorMatrix values="0 0 0 0 0.537190083   0 0 0 0 0   0 0 0 0 1  0 0 0 1 0" type="matrix" in="shadowBlurOuter1"></feColorMatrix>
        </filter>
        <path d="M65.2,53.8 C65.2,54.2 65.5,54.6 65.9,54.6 L65.9,54.6 C66.3,54.6 66.7,54.3 66.7,53.8 C66.7,53.1 66.8,52.3 66.9,51.6 C67.6,47.3 70.5,43.5 74.4,41.6 C74.8,41.4 74.9,41 74.8,40.6 C74.6,40.2 74.2,40.1 73.8,40.2 C69.4,42.3 66.2,46.4 65.4,51.3 C65.3,52.1 65.2,52.9 65.2,53.8 Z" id="path-67"></path>
        <filter x="-50%" y="-50%" width="200%" height="200%" filterUnits="objectBoundingBox" id="filter-68">
            <feMorphology radius="1" operator="dilate" in="SourceAlpha" result="shadowSpreadOuter1"></feMorphology>
            <feOffset dx="0" dy="0" in="shadowSpreadOuter1" result="shadowOffsetOuter1"></feOffset>
            <feMorphology radius="1.5" operator="erode" in="SourceAlpha" result="shadowInner"></feMorphology>
            <feOffset dx="0" dy="0" in="shadowInner" result="shadowInner"></feOffset>
            <feComposite in="shadowOffsetOuter1" in2="shadowInner" operator="out" result="shadowOffsetOuter1"></feComposite>
            <feGaussianBlur stdDeviation="2.5" in="shadowOffsetOuter1" result="shadowBlurOuter1"></feGaussianBlur>
            <feColorMatrix values="0 0 0 0 0.537190083   0 0 0 0 0   0 0 0 0 1  0 0 0 1 0" type="matrix" in="shadowBlurOuter1"></feColorMatrix>
        </filter>
        <path d="M94.2,56.9 L94.3,56.9 C94.7,56.9 95,56.6 95,56.3 C95.1,55.5 95.2,54.6 95.2,53.8 C95.2,52.2 94.9,50.6 94.4,49 C94.3,48.6 93.8,48.4 93.4,48.5 C93,48.6 92.8,49.1 92.9,49.5 C93.4,50.9 93.6,52.3 93.6,53.8 C93.6,54.6 93.5,55.3 93.4,56.1 C93.5,56.5 93.8,56.9 94.2,56.9 Z" id="path-69"></path>
        <filter x="-50%" y="-50%" width="200%" height="200%" filterUnits="objectBoundingBox" id="filter-70">
            <feMorphology radius="1" operator="dilate" in="SourceAlpha" result="shadowSpreadOuter1"></feMorphology>
            <feOffset dx="0" dy="0" in="shadowSpreadOuter1" result="shadowOffsetOuter1"></feOffset>
            <feMorphology radius="1.5" operator="erode" in="SourceAlpha" result="shadowInner"></feMorphology>
            <feOffset dx="0" dy="0" in="shadowInner" result="shadowInner"></feOffset>
            <feComposite in="shadowOffsetOuter1" in2="shadowInner" operator="out" result="shadowOffsetOuter1"></feComposite>
            <feGaussianBlur stdDeviation="2.5" in="shadowOffsetOuter1" result="shadowBlurOuter1"></feGaussianBlur>
            <feColorMatrix values="0 0 0 0 0.537190083   0 0 0 0 0   0 0 0 0 1  0 0 0 1 0" type="matrix" in="shadowBlurOuter1"></feColorMatrix>
        </filter>
        <path d="M67.2,57.5 C67.1,57.1 66.7,56.9 66.3,57 C65.9,57.1 65.7,57.5 65.8,57.9 C67.4,63.4 72.1,67.6 77.7,68.6 L77.8,68.6 C78.2,68.6 78.5,68.3 78.5,68 C78.6,67.6 78.3,67.2 77.9,67.1 C72.9,66.3 68.6,62.5 67.2,57.5 Z" id="path-71"></path>
        <filter x="-50%" y="-50%" width="200%" height="200%" filterUnits="objectBoundingBox" id="filter-72">
            <feMorphology radius="1" operator="dilate" in="SourceAlpha" result="shadowSpreadOuter1"></feMorphology>
            <feOffset dx="0" dy="0" in="shadowSpreadOuter1" result="shadowOffsetOuter1"></feOffset>
            <feMorphology radius="1.5" operator="erode" in="SourceAlpha" result="shadowInner"></feMorphology>
            <feOffset dx="0" dy="0" in="shadowInner" result="shadowInner"></feOffset>
            <feComposite in="shadowOffsetOuter1" in2="shadowInner" operator="out" result="shadowOffsetOuter1"></feComposite>
            <feGaussianBlur stdDeviation="2.5" in="shadowOffsetOuter1" result="shadowBlurOuter1"></feGaussianBlur>
            <feColorMatrix values="0 0 0 0 0.537190083   0 0 0 0 0   0 0 0 0 1  0 0 0 1 0" type="matrix" in="shadowBlurOuter1"></feColorMatrix>
        </filter>
        <path d="M78.1,40.5 C79.6,40.3 81.1,40.3 82.5,40.5 C86.1,41.1 89.3,43.1 91.3,46.1 C91.4,46.3 91.7,46.4 91.9,46.4 C92,46.4 92.2,46.4 92.3,46.3 C92.6,46.1 92.7,45.6 92.5,45.3 C90.2,42 86.7,39.7 82.7,39.1 C81.1,38.8 79.4,38.8 77.8,39.1 C77.4,39.2 77.1,39.6 77.2,40 C77.3,40.2 77.6,40.5 78.1,40.5 Z" id="path-73"></path>
        <filter x="-50%" y="-50%" width="200%" height="200%" filterUnits="objectBoundingBox" id="filter-74">
            <feMorphology radius="1" operator="dilate" in="SourceAlpha" result="shadowSpreadOuter1"></feMorphology>
            <feOffset dx="0" dy="0" in="shadowSpreadOuter1" result="shadowOffsetOuter1"></feOffset>
            <feMorphology radius="1.5" operator="erode" in="SourceAlpha" result="shadowInner"></feMorphology>
            <feOffset dx="0" dy="0" in="shadowInner" result="shadowInner"></feOffset>
            <feComposite in="shadowOffsetOuter1" in2="shadowInner" operator="out" result="shadowOffsetOuter1"></feComposite>
            <feGaussianBlur stdDeviation="2.5" in="shadowOffsetOuter1" result="shadowBlurOuter1"></feGaussianBlur>
            <feColorMatrix values="0 0 0 0 0.537190083   0 0 0 0 0   0 0 0 0 1  0 0 0 1 0" type="matrix" in="shadowBlurOuter1"></feColorMatrix>
        </filter>
        <path d="M11.8636407,23.736713 L60.8011586,23.736713 C66.7329789,23.736713 72.6647993,19.2860793 72.6647993,11.8683565 C72.6647993,5.93417824 68.215934,0 60.8011586,0 L11.8636407,0 C5.93182035,0 0,4.45063368 0,11.8683565 C1.48295509,19.2860793 5.93182035,23.736713 11.8636407,23.736713 Z" id="path-75"></path>
        <filter x="-50%" y="-50%" width="200%" height="200%" filterUnits="objectBoundingBox" id="filter-76">
            <feMorphology radius="1" operator="dilate" in="SourceAlpha" result="shadowSpreadOuter1"></feMorphology>
            <feOffset dx="0" dy="0" in="shadowSpreadOuter1" result="shadowOffsetOuter1"></feOffset>
            <feMorphology radius="1.5" operator="erode" in="SourceAlpha" result="shadowInner"></feMorphology>
            <feOffset dx="0" dy="0" in="shadowInner" result="shadowInner"></feOffset>
            <feComposite in="shadowOffsetOuter1" in2="shadowInner" operator="out" result="shadowOffsetOuter1"></feComposite>
            <feGaussianBlur stdDeviation="2.5" in="shadowOffsetOuter1" result="shadowBlurOuter1"></feGaussianBlur>
            <feColorMatrix values="0 0 0 0 0.537190083   0 0 0 0 0   0 0 0 0 1  0 0 0 1 0" type="matrix" in="shadowBlurOuter1"></feColorMatrix>
        </filter>
    </defs>
    <g id="Page-1" stroke="none" stroke-width="1" fill="none" fill-rule="evenodd">
        <g id="Desktop-HD" transform="translate(-136.000000, -180.000000)">
            <g id="cover" transform="translate(142.000000, 186.000000)">
                <g id="2016" transform="translate(939.627553, 175.486015) rotate(-360.000000) translate(-939.627553, -175.486015) ">
                    <use fill="black" fill-opacity="1" filter="url(#filter-2)" xlink:href="#path-1"></use>
                    <use stroke="#50C9C0" stroke-width="8" stroke-linecap="square" xlink:href="#path-1"></use>
                </g>
                <g id="LEVEL1" transform="translate(357.323674, 250.480117) rotate(-360.000000) translate(-357.323674, -250.480117) ">
                    <use fill="black" fill-opacity="1" filter="url(#filter-4)" xlink:href="#path-3"></use>
                    <use stroke="#DE0F0F" stroke-width="8" stroke-linecap="square" xlink:href="#path-3"></use>
                </g>
                <g id="Group-10" transform="translate(192.000000, 7.000000)">
                    <g id="Group-9">
                        <g id="Shape">
                            <use fill="black" fill-opacity="1" filter="url(#filter-6)" xlink:href="#path-5"></use>
                            <use stroke="#9150C9" stroke-width="1" stroke-linecap="square" xlink:href="#path-5"></use>
                        </g>
                        <g id="Shape">
                            <use fill="black" fill-opacity="1" filter="url(#filter-8)" xlink:href="#path-7"></use>
                            <use stroke="#9150C9" stroke-width="1" stroke-linecap="square" xlink:href="#path-7"></use>
                        </g>
                        <g id="Shape">
                            <use fill="black" fill-opacity="1" filter="url(#filter-10)" xlink:href="#path-9"></use>
                            <use stroke="#9150C9" stroke-width="1" stroke-linecap="square" xlink:href="#path-9"></use>
                        </g>
                        <g id="Shape">
                            <use fill="black" fill-opacity="1" filter="url(#filter-12)" xlink:href="#path-11"></use>
                            <use stroke="#9150C9" stroke-width="1" stroke-linecap="square" xlink:href="#path-11"></use>
                        </g>
                        <g id="Shape">
                            <use fill="black" fill-opacity="1" filter="url(#filter-14)" xlink:href="#path-13"></use>
                            <use stroke="#9150C9" stroke-width="1" stroke-linecap="square" xlink:href="#path-13"></use>
                        </g>
                        <g id="Shape">
                            <use fill="black" fill-opacity="1" filter="url(#filter-16)" xlink:href="#path-15"></use>
                            <use stroke="#9150C9" stroke-width="1" stroke-linecap="square" xlink:href="#path-15"></use>
                        </g>
                        <g id="Shape">
                            <use fill="black" fill-opacity="1" filter="url(#filter-18)" xlink:href="#path-17"></use>
                            <use stroke="#9150C9" stroke-width="1" stroke-linecap="square" xlink:href="#path-17"></use>
                        </g>
                        <g id="Shape">
                            <use fill="black" fill-opacity="1" filter="url(#filter-20)" xlink:href="#path-19"></use>
                            <use stroke="#9150C9" stroke-width="1" stroke-linecap="square" xlink:href="#path-19"></use>
                        </g>
                    </g>
                </g>
                <g id="Group-2" transform="translate(1123.000000, 0.000000)">
                    <g id="Group-10-Copy" transform="translate(34.500000, 143.000000) rotate(-270.000000) translate(-34.500000, -143.000000) translate(-108.500000, 108.500000)">
                        <g id="Group-9" transform="translate(0.000000, 0.000000)">
                            <g id="Shape">
                                <use fill="black" fill-opacity="1" filter="url(#filter-22)" xlink:href="#path-21"></use>
                                <use stroke="#9150C9" stroke-width="1" stroke-linecap="square" xlink:href="#path-21"></use>
                            </g>
                            <g id="Shape">
                                <use fill="black" fill-opacity="1" filter="url(#filter-24)" xlink:href="#path-23"></use>
                                <use stroke="#9150C9" stroke-width="1" stroke-linecap="square" xlink:href="#path-23"></use>
                            </g>
                            <g id="Shape">
                                <use fill="black" fill-opacity="1" filter="url(#filter-26)" xlink:href="#path-25"></use>
                                <use stroke="#9150C9" stroke-width="1" stroke-linecap="square" xlink:href="#path-25"></use>
                            </g>
                            <g id="Shape">
                                <use fill="black" fill-opacity="1" filter="url(#filter-28)" xlink:href="#path-27"></use>
                                <use stroke="#9150C9" stroke-width="1" stroke-linecap="square" xlink:href="#path-27"></use>
                            </g>
                        </g>
                    </g>
                </g>
                <g id="Group-10-Copy-3" transform="translate(357.500000, 454.000000) rotate(-180.000000) translate(-357.500000, -454.000000) translate(179.000000, 417.000000)">
                    <g id="Group-9" transform="translate(0.000000, -0.000000)">
                        <g id="Shape">
                            <use fill="black" fill-opacity="1" filter="url(#filter-30)" xlink:href="#path-29"></use>
                            <use stroke="#9150C9" stroke-width="1" stroke-linecap="square" xlink:href="#path-29"></use>
                        </g>
                        <g id="Shape">
                            <use fill="black" fill-opacity="1" filter="url(#filter-32)" xlink:href="#path-31"></use>
                            <use stroke="#9150C9" stroke-width="1" stroke-linecap="square" xlink:href="#path-31"></use>
                        </g>
                        <g id="Shape">
                            <use fill="black" fill-opacity="1" filter="url(#filter-34)" xlink:href="#path-33"></use>
                            <use stroke="#9150C9" stroke-width="1" stroke-linecap="square" xlink:href="#path-33"></use>
                        </g>
                        <g id="Shape">
                            <use fill="black" fill-opacity="1" filter="url(#filter-36)" xlink:href="#path-35"></use>
                            <use stroke="#9150C9" stroke-width="1" stroke-linecap="square" xlink:href="#path-35"></use>
                        </g>
                    </g>
                </g>
                <g id="Group-24" transform="translate(797.000000, 435.000000)">
                    <g id="Shape-Copy-2">
                        <use fill="black" fill-opacity="1" filter="url(#filter-38)" xlink:href="#path-37"></use>
                        <use stroke="#9150C9" stroke-width="1" stroke-linecap="square" xlink:href="#path-37"></use>
                    </g>
                </g>
                <g id="Group-3" transform="translate(0.000000, 418.000000)">
                    <g id="Shape">
                        <use fill="black" fill-opacity="1" filter="url(#filter-40)" xlink:href="#path-39"></use>
                        <use stroke="#9150C9" stroke-width="1" stroke-linecap="square" xlink:href="#path-39"></use>
                    </g>
                    <g id="Shape">
                        <use fill="black" fill-opacity="1" filter="url(#filter-42)" xlink:href="#path-41"></use>
                        <use stroke="#9150C9" stroke-width="1" stroke-linecap="square" xlink:href="#path-41"></use>
                    </g>
                    <g id="Shape">
                        <use fill="black" fill-opacity="1" filter="url(#filter-44)" xlink:href="#path-43"></use>
                        <use stroke="#9150C9" stroke-width="1" stroke-linecap="square" xlink:href="#path-43"></use>
                    </g>
                    <g id="Shape">
                        <use fill="black" fill-opacity="1" filter="url(#filter-46)" xlink:href="#path-45"></use>
                        <use stroke="#9150C9" stroke-width="1" stroke-linecap="square" xlink:href="#path-45"></use>
                    </g>
                </g>
                <g id="Group-23" transform="translate(678.000000, 8.000000)">
                    <g id="path-1" transform="translate(47.129980, 46.286102) rotate(12.000000) translate(-47.129980, -46.286102) ">
                        <use fill="black" fill-opacity="1" filter="url(#filter-48)" xlink:href="#path-47"></use>
                        <use stroke="#D0011B" stroke-width="1" stroke-linecap="square" xlink:href="#path-47"></use>
                    </g>
                </g>
                <g id="Group-13" filter="url(#filter-49)" transform="translate(614.000000, 416.000000)" fill="#50C9BF">
                    <path d="M80.8820066,80.5913219 C80.9654405,80.4278507 81.0488744,80.2643794 80.9654405,80.0191726 C79.9642338,76.5862765 78.8795931,73.235116 77.7949524,69.8839556 C75.2919355,62.1190716 68.1166203,57.7870838 58.8554576,58.4409687 C56.9364779,58.60444 54.9340644,58.6861756 52.9316508,58.7679112 L52.5979152,58.7679112 C52.0138779,57.6236125 50.0114644,52.9646821 52.5144813,46.3440969 C55.6015355,43.5650858 58.1045525,39.7235116 59.5229288,35.1463169 L59.5229288,34.8193744 C60.8578711,34.3289606 61.6922101,33.1029263 61.6922101,31.6316852 L61.6922101,19.1261352 C61.6922101,15.3662967 61.0247389,12.2603431 59.6897965,9.64480323 C57.9376847,6.21190716 55.1009322,3.59636731 51.2629728,1.96165489 C48.1759186,0.653884965 44.5048271,0 40.4165661,0 C26.9002746,0 19.1409221,6.94752775 19.1409221,18.962664 L19.1409221,22.3138244 L19.1409221,30.4056509 L19.1409221,31.7951564 C19.1409221,33.2663976 20.058695,34.4924319 21.3102035,34.9828456 C21.3102035,35.0645812 21.2267696,35.2280525 21.3102035,35.3097881 C22.7285797,39.8052472 25.1481628,43.5650858 28.1517831,46.3440969 C30.6548,52.9646821 28.6523865,57.7870838 28.0683492,58.9313824 C25.9825017,58.8496468 24.0635221,58.7679112 22.1445424,58.60444 C12.9668136,57.950555 5.70806452,62.2825429 3.20504758,70.0474268 C2.1204069,73.3168517 1.03576623,76.7497477 0.0345594521,80.1826438 C-0.0488744459,80.346115 0.0345594521,80.5913219 0.11799335,80.7547931 C0.201427248,80.9182644 0.451728942,81 0.618596738,81 L80.2145355,81 C80.5482711,80.8365288 80.7151389,80.7547931 80.8820066,80.5913219 Z M40.5,1.22603431 C44.4213932,1.22603431 47.9256169,1.87991927 50.8458034,3.10595358 C54.433461,4.65893037 57.0199118,7.02926337 58.6051559,10.2169526 C59.5229288,12.0151362 60.106966,14.1402624 60.3572677,16.4288597 C59.7732304,16.0201816 59.0223254,15.6932392 58.1879864,15.6932392 L22.8120136,15.6932392 C21.9776746,15.6932392 21.3102035,15.938446 20.7261662,16.4288597 C21.7273729,6.70232089 28.8192543,1.22603431 40.5,1.22603431 Z M20.4758645,22.8859738 L21.2267696,22.8859738 L21.2267696,29.7517659 L20.4758645,29.7517659 L20.4758645,22.8859738 Z M20.4758645,31.7134208 L20.4758645,30.9778002 L21.8942407,30.9778002 C22.2279763,30.9778002 22.5617119,30.7325933 22.5617119,30.3239152 L22.5617119,22.2320888 C22.5617119,21.9051463 22.3114102,21.5782038 21.8942407,21.5782038 L20.4758645,21.5782038 L20.4758645,20.9243189 C20.5592984,20.8425832 20.5592984,20.679112 20.5592984,20.5973764 C20.4758645,19.9434914 20.4758645,19.3713421 20.4758645,18.962664 C20.4758645,17.7366297 21.4770712,16.8375378 22.7285797,16.8375378 L58.2714203,16.8375378 C59.5229288,16.8375378 60.5241355,17.8183653 60.5241355,19.0443996 L60.5241355,21.5782038 L59.0223254,21.5782038 C58.6885898,21.5782038 58.3548542,21.8234107 58.3548542,22.2320888 L58.3548542,30.3239152 C58.3548542,30.6508577 58.6051559,30.9778002 59.0223254,30.9778002 L60.5241355,30.9778002 L60.5241355,31.7134208 C60.5241355,32.8577195 59.6897965,33.7568113 58.6051559,33.9202825 L46.7575424,35.7184662 C45.9232034,35.8819374 45.0888644,35.4732593 44.588261,34.8193744 C43.5036203,33.3481332 42.0018102,32.6125126 40.5,32.6125126 C38.9981898,32.6125126 37.4963797,33.4298688 36.411739,34.8193744 C35.9111356,35.4732593 35.0767966,35.8002018 34.2424576,35.7184662 L22.3948441,33.9202825 C21.3102035,33.7568113 20.4758645,32.7759839 20.4758645,31.7134208 Z M60.4407016,22.8859738 L60.4407016,29.7517659 L59.6897965,29.7517659 L59.6897965,22.8859738 L60.4407016,22.8859738 Z M22.7285797,35.2280525 L34.0755899,36.9445005 C35.3270983,37.1079717 36.6620407,36.617558 37.4963797,35.554995 C38.3307187,34.4106963 39.4153593,33.8385469 40.5834339,33.8385469 C41.7515085,33.8385469 42.8361491,34.4924319 43.6704881,35.554995 C44.3379593,36.4540868 45.4226,36.9445005 46.5072407,36.9445005 C46.6741085,36.9445005 46.8409763,36.9445005 47.0912779,36.8627649 L58.4382881,35.1463169 C55.4346677,44.1372351 48.5096542,49.9404642 40.6668678,49.9404642 C32.6572136,50.0221998 25.7322,44.2189707 22.7285797,35.2280525 Z M30.0707627,47.7336024 C33.157817,49.9404642 36.7454746,51.2482341 40.5,51.2482341 C44.1710915,51.2482341 47.7587491,50.0221998 50.7623695,47.8970737 C48.7599559,55.0080727 51.5967084,59.5852674 51.6801423,59.7487386 C51.6801423,59.8304743 51.7635762,59.8304743 51.7635762,59.8304743 C49.7611627,63.5903128 48.4262203,65.061554 46.7575424,66.9414733 C46.4238068,67.2684157 46.0900712,67.6770938 45.6729017,68.1675076 L45.7563356,68.3309788 C44.3379593,69.9656912 42.3355458,70.864783 40.1662644,70.864783 C40.1662644,70.864783 40.1662644,70.864783 40.0828305,70.864783 C37.9135492,70.864783 35.9111356,69.8839556 34.4927593,68.2492432 C32.5737797,65.9606458 30.6548,63.1816347 28.9861221,59.9122099 L29.069556,59.8304743 C29.2364238,59.5852674 32.0731763,54.8446014 30.0707627,47.7336024 Z M1.53636962,79.6104945 C2.4541425,76.5045409 3.45534927,73.3168517 4.45655605,70.2926337 C6.7092713,63.0998991 13.467417,59.0948537 22.0611085,59.7487386 C23.8966543,59.8304743 25.7322,59.9939455 27.5677458,60.0756811 C29.4032916,63.5903128 31.3222712,66.6145308 33.4081187,69.0665994 C34.9933627,70.9465187 37.4129458,72.0908174 39.9159627,72.0908174 L39.9993966,72.0908174 C42.5024136,72.0908174 44.9219966,71.0282543 46.5072407,69.148335 L46.5906746,69.0665994 L46.6741085,68.9848638 C47.007844,68.5761857 47.3415796,68.1675076 47.6753152,67.8405651 C49.4274271,65.7971746 50.9292373,64.2441978 53.0150847,60.0756811 C54.9340644,59.9939455 56.853044,59.9122099 58.7720237,59.7487386 C67.3657152,59.0948537 74.1238609,63.1816347 76.3765762,70.2926337 C77.3777829,73.3168517 78.3789897,76.4228052 79.2967626,79.6104945 L1.53636962,79.6104945 L1.53636962,79.6104945 Z" id="Shape"></path>
                    <path d="M36.6149068,22 C39.8447205,21.673913 43.1552795,21.673913 46.3850932,22 L46.4658385,22 C46.7888199,22 47.1118012,21.7826087 47.4347826,21.4565217 C47.8385093,21.0217391 48,20.2608696 48,19.5 C48,18.7391304 47.757764,17.9782609 47.4347826,17.5434783 C47.1118012,17.2173913 46.7888199,17 46.3850932,17 C43.1552795,17.326087 39.8447205,17.326087 36.6149068,17 C36.2111801,17 35.8881988,17.1086957 35.5652174,17.5434783 C35.1614907,17.9782609 35,18.7391304 35,19.5 C35,20.2608696 35.242236,21.0217391 35.5652174,21.4565217 C35.8881988,21.7826087 36.2111801,22 36.6149068,22 Z M36.3726708,18.7391304 L36.4534161,18.6304348 C39.7639752,18.9565217 43.0745342,18.9565217 46.3850932,18.6304348 C46.3850932,18.6304348 46.4658385,18.6304348 46.4658385,18.7391304 C46.5465839,18.8478261 46.7080745,19.173913 46.7080745,19.5 C46.7080745,19.9347826 46.6273292,20.1521739 46.4658385,20.2608696 L46.3850932,20.3695652 C44.7701863,20.2608696 43.0745342,20.1521739 41.378882,20.1521739 C39.6832298,20.1521739 38.068323,20.2608696 36.3726708,20.3695652 C36.3726708,20.3695652 36.2919255,20.3695652 36.2919255,20.2608696 C36.2111801,20.1521739 36.0496894,19.826087 36.0496894,19.5 C36.0496894,19.173913 36.2919255,18.8478261 36.3726708,18.7391304 Z" id="Shape"></path>
                </g>
                <g id="Group-14" filter="url(#filter-50)" transform="translate(1034.000000, 379.000000)" fill="#FF0928">
                    <path d="M12,12.5401904 L12,18.4742015 C12,18.7746578 12.2258065,19 12.5268817,19 C12.827957,19 13.0537634,18.7746578 13.0537634,18.4742015 L13.0537634,13.0659889 L18.4731183,13.0659889 C18.7741935,13.0659889 19,12.8406467 19,12.5401904 C19,12.2397342 18.7741935,12.014392 18.4731183,12.014392 L12.5268817,12.014392 C12.2258065,11.9392779 12,12.1646201 12,12.5401904 Z" id="Shape"></path>
                    <path d="M19,73.4731183 C19,73.172043 18.7741935,72.9462366 18.4731183,72.9462366 L13.0537634,72.9462366 L13.0537634,67.5268817 C13.0537634,67.2258065 12.827957,67 12.5268817,67 C12.2258065,67 12,67.2258065 12,67.5268817 L12,73.4731183 C12,73.7741935 12.2258065,74 12.5268817,74 L18.4731183,74 C18.6989247,74 19,73.7741935 19,73.4731183 Z" id="Shape"></path>
                    <path d="M73.4623187,67 C73.1617458,67 72.936316,67.2258065 72.936316,67.5268817 L72.936316,72.9462366 L67.5260027,72.9462366 C67.2254297,72.9462366 67,73.172043 67,73.4731183 C67,73.7741935 67.2254297,74 67.5260027,74 L73.4623187,74 C73.7628917,74 73.9883214,73.7741935 73.9883214,73.4731183 L73.9883214,67.5268817 C74.0634647,67.2258065 73.7628917,67 73.4623187,67 Z" id="Shape"></path>
                    <path d="M67.5268817,13.0537634 L72.9462366,13.0537634 L72.9462366,18.4731183 C72.9462366,18.7741935 73.172043,19 73.4731183,19 C73.7741935,19 74,18.7741935 74,18.4731183 L74,12.5268817 C74,12.2258065 73.7741935,12 73.4731183,12 L67.5268817,12 C67.2258065,12 67,12.2258065 67,12.5268817 C67,12.827957 67.2258065,13.0537634 67.5268817,13.0537634 Z" id="Shape"></path>
                    <path d="M64.3417431,24 L24.6582569,24 C24.2821101,24 24,24.2821101 24,24.6582569 L24,64.3417431 C24,64.7178899 24.2821101,65 24.6582569,65 L64.3417431,65 C64.7178899,65 65,64.7178899 65,64.3417431 L65,24.6582569 C65,24.2821101 64.7178899,24 64.3417431,24 Z M63.5894495,63.6834862 L25.3165138,63.6834862 L25.3165138,25.4105505 L63.5894495,25.4105505 L63.5894495,63.6834862 Z" id="Shape"></path>
                    <path d="M34.5631068,60 L55.4368932,60 C57.961165,60 60,57.9545455 60,55.4220779 L60,34.5779221 C60,32.0454545 57.961165,30 55.4368932,30 L34.5631068,30 C32.038835,30 30,32.0454545 30,34.5779221 L30,55.5194805 C30,58.0519481 32.038835,60 34.5631068,60 Z M31.4563107,34.5779221 C31.4563107,32.8246753 32.815534,31.461039 34.5631068,31.461039 L55.4368932,31.461039 C57.184466,31.461039 58.5436893,32.8246753 58.5436893,34.5779221 L58.5436893,55.5194805 C58.5436893,57.2727273 57.184466,58.6363636 55.4368932,58.6363636 L34.5631068,58.6363636 C32.815534,58.6363636 31.4563107,57.2727273 31.4563107,55.5194805 L31.4563107,34.5779221 Z" id="Shape"></path>
                    <path d="M48,20.3225806 C48,20.7096774 48.3658537,21 48.8536585,21 C49.3414634,21 49.7073171,20.7096774 49.7073171,20.3225806 L49.7073171,10.4516129 L52.8780488,6.09677419 C53,6 53,5.90322581 53,5.70967742 L53,0.677419355 C53,0.290322581 52.6341463,0 52.1463415,0 C51.6585366,0 51.2926829,0.290322581 51.2926829,0.677419355 L51.2926829,5.51612903 L48.1219512,9.87096774 C48,9.96774194 48,10.0645161 48,10.2580645 L48,20.3225806 L48,20.3225806 Z" id="Shape"></path>
                    <path d="M52.8536585,21 C53.3414634,21 53.7073171,20.7096774 53.7073171,20.3225806 L53.7073171,10.4516129 L56.8780488,6.09677419 C57,6 57,5.90322581 57,5.70967742 L57,0.677419355 C57,0.290322581 56.6341463,0 56.1463415,0 C55.6585366,0 55.2926829,0.290322581 55.2926829,0.677419355 L55.2926829,5.51612903 L52.1219512,9.87096774 C52,9.96774194 52,10.0645161 52,10.2580645 L52,20.3225806 C52,20.7096774 52.3658537,21 52.8536585,21 Z" id="Shape"></path>
                    <path d="M57.8536585,21 C58.3414634,21 58.7073171,20.7096774 58.7073171,20.3225806 L58.7073171,10.4516129 L61.8780488,6.09677419 C62,6 62,5.90322581 62,5.70967742 L62,0.677419355 C62,0.290322581 61.6341463,0 61.1463415,0 C60.6585366,0 60.2926829,0.290322581 60.2926829,0.677419355 L60.2926829,5.51612903 L57.1219512,9.87096774 C57,9.96774194 57,10.0645161 57,10.2580645 L57,20.3225806 C57,20.7096774 57.3658537,21 57.8536585,21 Z" id="Shape"></path>
                    <path d="M38.2926829,10.4516129 L38.2926829,20.3225806 C38.2926829,20.7096774 38.6585366,21 39.1463415,21 C39.6341463,21 40,20.7096774 40,20.3225806 L40,10.2580645 C40,10.1612903 40,9.96774194 39.8780488,9.87096774 L36.7073171,5.51612903 L36.7073171,0.677419355 C36.7073171,0.290322581 36.3414634,0 35.8536585,0 C35.3658537,0 35,0.290322581 35,0.677419355 L35,5.70967742 C35,5.80645161 35,6 35.1219512,6.09677419 L38.2926829,10.4516129 Z" id="Shape"></path>
                    <path d="M33.2926829,10.4516129 L33.2926829,20.3225806 C33.2926829,20.7096774 33.6585366,21 34.1463415,21 C34.6341463,21 35,20.7096774 35,20.3225806 L35,10.2580645 C35,10.1612903 35,9.96774194 34.8780488,9.87096774 L31.7073171,5.51612903 L31.7073171,0.677419355 C31.7073171,0.290322581 31.3414634,0 30.8536585,0 C30.3658537,0 30,0.290322581 30,0.677419355 L30,5.70967742 C30,5.80645161 30,6 30.1219512,6.09677419 L33.2926829,10.4516129 Z" id="Shape"></path>
                    <path d="M27.2926829,10.4516129 L27.2926829,20.3225806 C27.2926829,20.7096774 27.6585366,21 28.1463415,21 C28.6341463,21 29,20.7096774 29,20.3225806 L29,10.2580645 C29,10.1612903 29,9.96774194 28.8780488,9.87096774 L25.7073171,5.51612903 L25.7073171,0.677419355 C25.7073171,0.290322581 25.3414634,0 24.8536585,0 C24.3658537,0 24,0.290322581 24,0.677419355 L24,5.70967742 C24,5.80645161 24,6 24.1219512,6.09677419 L27.2926829,10.4516129 Z" id="Shape"></path>
                    <path d="M41,0.680555556 L41,20.3194444 C41,20.7083333 41.2142857,21 41.5,21 C41.7857143,21 42,20.7083333 42,20.3194444 L42,0.680555556 C42,0.291666667 41.7857143,0 41.5,0 C41.2142857,-3.45402719e-15 41,0.291666667 41,0.680555556 Z" id="Shape"></path>
                    <path d="M20.3225806,40.2926829 L10.4516129,40.2926829 L6.09677419,37.1219512 C6,37 5.90322581,37 5.70967742,37 L0.677419355,37 C0.290322581,37 0,37.3658537 0,37.8536585 C0,38.3414634 0.290322581,38.7073171 0.677419355,38.7073171 L5.51612903,38.7073171 L9.87096774,41.8780488 C9.96774194,42 10.0645161,42 10.2580645,42 L20.3225806,42 C20.7096774,42 21,41.6341463 21,41.1463415 C21,40.6585366 20.7096774,40.2926829 20.3225806,40.2926829 Z" id="Shape"></path>
                    <path d="M20.3225806,35.2926829 L10.4516129,35.2926829 L6.09677419,32.1219512 C6,32 5.90322581,32 5.70967742,32 L0.677419355,32 C0.290322581,32 0,32.3658537 0,32.8536585 C0,33.3414634 0.290322581,33.7073171 0.677419355,33.7073171 L5.51612903,33.7073171 L9.87096774,36.8780488 C9.96774194,37 10.0645161,37 10.2580645,37 L20.3225806,37 C20.7096774,37 21,36.6341463 21,36.1463415 C21,35.6585366 20.7096774,35.2926829 20.3225806,35.2926829 Z" id="Shape"></path>
                    <path d="M20.2258065,32.1707317 L10.3548387,32.1707317 L6,29 L5.70967742,29 L0.677419355,29 C0.290322581,29 0,29.3658537 0,29.8536585 C0,30.3414634 0.290322581,30.7073171 0.677419355,30.7073171 L5.51612903,30.7073171 L9.87096774,33.8780488 C9.96774194,34 10.0645161,34 10.2580645,34 L20.3225806,34 C20.7096774,34 21,33.6341463 21,33.1463415 C21,32.6585366 20.6129032,32.1707317 20.2258065,32.1707317 Z" id="Shape"></path>
                    <path d="M20.3225806,48 L10.2580645,48 C10.1612903,48 9.96774194,48 9.87096774,48.1219512 L5.51612903,51.2926829 L0.677419355,51.2926829 C0.290322581,51.2926829 0,51.6585366 0,52.1463415 C0,52.6341463 0.290322581,53 0.677419355,53 L5.70967742,53 C5.80645161,53 6,53 6.09677419,52.8780488 L10.4516129,49.7073171 L20.3225806,49.7073171 C20.7096774,49.7073171 21,49.3414634 21,48.8536585 C21,48.4878049 20.7096774,48 20.3225806,48 Z" id="Shape"></path>
                    <path d="M20.3225806,55 L10.2580645,55 C10.1612903,55 9.96774194,55 9.87096774,55.1219512 L5.51612903,58.2926829 L0.677419355,58.2926829 C0.290322581,58.2926829 0,58.6585366 0,59.1463415 C0,59.6341463 0.290322581,60 0.677419355,60 L5.70967742,60 C5.80645161,60 6,60 6.09677419,59.8780488 L10.4516129,56.7073171 L20.3225806,56.7073171 C20.7096774,56.7073171 21,56.3414634 21,55.8536585 C21,55.3658537 20.7096774,55 20.3225806,55 Z" id="Shape"></path>
                    <path d="M21,59.8536585 C21,59.3658537 20.7096774,59 20.3225806,59 L10.2580645,59 C10.1612903,59 9.96774194,59 9.87096774,59.1219512 L5.51612903,62.2926829 L0.677419355,62.2926829 C0.290322581,62.2926829 0,62.6585366 0,63.1463415 C0,63.6341463 0.290322581,64 0.677419355,64 L5.70967742,64 C5.80645161,64 6,64 6.09677419,63.8780488 L10.4516129,60.7073171 L20.3225806,60.7073171 C20.7096774,60.8292683 21,60.3414634 21,59.8536585 Z" id="Shape"></path>
                    <path d="M20.3194444,45 L0.680555556,45 C0.291666667,45 0,45.2142857 0,45.5 C0,45.7857143 0.291666667,46 0.680555556,46 L20.3194444,46 C20.7083333,46 21,45.7857143 21,45.5 C21,45.2142857 20.7083333,45 20.3194444,45 Z" id="Shape"></path>
                    <path d="M41.1463415,68 C40.6585366,68 40.2926829,68.2903226 40.2926829,68.6774194 L40.2926829,78.5483871 L37.1219512,82.9032258 C37,83 37,83.0967742 37,83.2903226 L37,88.3225806 C37,88.7096774 37.3658537,89 37.8536585,89 C38.3414634,89 38.7073171,88.7096774 38.7073171,88.3225806 L38.7073171,83.483871 L41.8780488,79.1290323 C42,79.0322581 42,78.9354839 42,78.7419355 L42,68.6774194 C42,68.2903226 41.6341463,68 41.1463415,68 Z" id="Shape"></path>
                    <path d="M36.1463415,68 C35.6585366,68 35.2926829,68.2903226 35.2926829,68.6774194 L35.2926829,78.5483871 L32.1219512,82.9032258 C32,83 32,83.0967742 32,83.2903226 L32,88.3225806 C32,88.7096774 32.3658537,89 32.8536585,89 C33.3414634,89 33.7073171,88.7096774 33.7073171,88.3225806 L33.7073171,83.483871 L36.8780488,79.1290323 C37,79.0322581 37,78.9354839 37,78.7419355 L37,68.6774194 C37,68.2903226 36.6341463,68 36.1463415,68 Z" id="Shape"></path>
                    <path d="M32.1463415,68 C31.6585366,68 31.2926829,68.2903226 31.2926829,68.6774194 L31.2926829,78.5483871 L28.1219512,82.9032258 C28,83 28,83.0967742 28,83.2903226 L28,88.3225806 C28,88.7096774 28.3658537,89 28.8536585,89 C29.3414634,89 29.7073171,88.7096774 29.7073171,88.3225806 L29.7073171,83.483871 L32.8780488,79.1290323 C33,79.0322581 33,78.9354839 33,78.7419355 L33,68.6774194 C33,68.2903226 32.6341463,68 32.1463415,68 Z" id="Shape"></path>
                    <path d="M49.7073171,78.5483871 L49.7073171,68.6774194 C49.7073171,68.2903226 49.3414634,68 48.8536585,68 C48.3658537,68 48,68.2903226 48,68.6774194 L48,78.7419355 C48,78.8387097 48,79.0322581 48.1219512,79.1290323 L51.2926829,83.483871 L51.2926829,88.3225806 C51.2926829,88.7096774 51.6585366,89 52.1463415,89 C52.6341463,89 53,88.7096774 53,88.3225806 L53,83.2903226 C53,83.1935484 53,83 52.8780488,82.9032258 L49.7073171,78.5483871 Z" id="Shape"></path>
                    <path d="M56.7073171,78.5483871 L56.7073171,68.6774194 C56.7073171,68.2903226 56.3414634,68 55.8536585,68 C55.3658537,68 55,68.2903226 55,68.6774194 L55,78.7419355 C55,78.8387097 55,79.0322581 55.1219512,79.1290323 L58.2926829,83.483871 L58.2926829,88.3225806 C58.2926829,88.7096774 58.6585366,89 59.1463415,89 C59.6341463,89 60,88.7096774 60,88.3225806 L60,83.2903226 C60,83.1935484 60,83 59.8780488,82.9032258 L56.7073171,78.5483871 Z" id="Shape"></path>
                    <path d="M60.7073171,78.5483871 L60.7073171,68.6774194 C60.7073171,68.2903226 60.3414634,68 59.8536585,68 C59.3658537,68 59,68.2903226 59,68.6774194 L59,78.7419355 C59,78.8387097 59,79.0322581 59.1219512,79.1290323 L62.2926829,83.483871 L62.2926829,88.3225806 C62.2926829,88.7096774 62.6585366,89 63.1463415,89 C63.6341463,89 64,88.7096774 64,88.3225806 L64,83.2903226 C64,83.1935484 64,83 63.8780488,82.9032258 L60.7073171,78.5483871 Z" id="Shape"></path>
                    <path d="M45.4945103,68 C45.211933,68 45,68.2916667 45,68.6805556 L45,88.3194444 C45,88.7083333 45.211933,89 45.4945103,89 C45.7770876,89 45.9890206,88.7083333 45.9890206,88.3194444 L45.9890206,68.6805556 C46.059665,68.2916667 45.7770876,68 45.4945103,68 Z" id="Shape"></path>
                    <path d="M88.2258065,51.2926829 L83.3870968,51.2926829 L79.1290323,48.1219512 C79.0322581,48 78.9354839,48 78.7419355,48 L68.6774194,48 C68.2903226,48 68,48.3658537 68,48.8536585 C68,49.3414634 68.2903226,49.7073171 68.6774194,49.7073171 L78.5483871,49.7073171 L82.9032258,52.8780488 C83,53 83.0967742,53 83.2903226,53 L88.3225806,53 C88.7096774,53 89,52.6341463 89,52.1463415 C89,51.6585366 88.6129032,51.2926829 88.2258065,51.2926829 Z" id="Shape"></path>
                    <path d="M88.2258065,55.1707317 L83.3870968,55.1707317 L79.1290323,52.1219512 C79.0322581,52 78.9354839,52 78.7419355,52 L68.6774194,52 C68.2903226,52 68,52.3658537 68,52.8536585 C68,53.3414634 68.2903226,53.7073171 68.6774194,53.7073171 L78.5483871,53.7073171 L82.9032258,56.8780488 C83,57 83.0967742,57 83.2903226,57 L88.3225806,57 C88.7096774,57 89,56.6341463 89,56.1463415 C89,55.6585366 88.6129032,55.1707317 88.2258065,55.1707317 Z" id="Shape"></path>
                    <path d="M88.2258065,60.2926829 L83.3870968,60.2926829 L79.1290323,57.1219512 C79.0322581,57 78.9354839,57 78.7419355,57 L68.6774194,57 C68.2903226,57 68,57.3658537 68,57.8536585 C68,58.3414634 68.2903226,58.7073171 68.6774194,58.7073171 L78.5483871,58.7073171 L82.9032258,61.8780488 C83,62 83.0967742,62 83.2903226,62 L88.3225806,62 C88.7096774,62 89,61.6341463 89,61.1463415 C89,60.6585366 88.6129032,60.2926829 88.2258065,60.2926829 Z" id="Shape"></path>
                    <path d="M88.2258065,35 L83.1935484,35 C83.0967742,35 82.9032258,35 82.8064516,35.1219512 L78.4516129,38.2926829 L68.6774194,38.2926829 C68.2903226,38.2926829 68,38.6585366 68,39.1463415 C68,39.6341463 68.2903226,40 68.6774194,40 L78.7419355,40 C78.8387097,40 79.0322581,40 79.1290323,39.8780488 L83.483871,36.7073171 L88.3225806,36.7073171 C88.7096774,36.7073171 89,36.3414634 89,35.8536585 C89,35.3658537 88.6129032,35 88.2258065,35 Z" id="Shape"></path>
                    <path d="M88.2258065,30 L83.1935484,30 C83.0967742,30 82.9032258,30 82.8064516,30.1219512 L78.4516129,33.2926829 L68.6774194,33.2926829 C68.2903226,33.2926829 68,33.6585366 68,34.1463415 C68,34.6341463 68.2903226,35 68.6774194,35 L78.7419355,35 C78.8387097,35 79.0322581,35 79.1290323,34.8780488 L83.483871,31.7073171 L88.3225806,31.7073171 C88.7096774,31.7073171 89,31.3414634 89,30.8536585 C89,30.3658537 88.6129032,30 88.2258065,30 Z" id="Shape"></path>
                    <path d="M88.2258065,24 L83.1935484,24 C83.0967742,24 82.9032258,24 82.8064516,24.1219512 L78.4516129,27.2926829 L68.6774194,27.2926829 C68.2903226,27.2926829 68,27.6585366 68,28.1463415 C68,28.6341463 68.2903226,29 68.6774194,29 L78.7419355,29 C78.8387097,29 79.0322581,29 79.1290323,28.8780488 L83.483871,25.7073171 L88.3225806,25.7073171 C88.7096774,25.7073171 89,25.3414634 89,24.8536585 C89,24.4878049 88.6129032,24 88.2258065,24 Z" id="Shape"></path>
                    <path d="M88.3048346,41 L68.6800662,41 C68.291457,41 68,41.2142857 68,41.5 C68,41.7857143 68.291457,42 68.6800662,42 L88.3048346,42 C88.6934439,42 88.9849008,41.7857143 88.9849008,41.5 C89.0820531,41.2142857 88.6934439,41 88.3048346,41 Z" id="Shape"></path>
                </g>
                <g id="Group-16" transform="translate(7.000000, 3.000000)">
                    <g id="Shape">
                        <use fill="black" fill-opacity="1" filter="url(#filter-52)" xlink:href="#path-51"></use>
                        <use stroke="#50E3C2" stroke-width="1" stroke-linecap="square" xlink:href="#path-51"></use>
                    </g>
                    <g id="Shape">
                        <use fill="black" fill-opacity="1" filter="url(#filter-54)" xlink:href="#path-53"></use>
                        <use stroke="#50E3C2" stroke-width="1" stroke-linecap="square" xlink:href="#path-53"></use>
                    </g>
                    <g id="Shape">
                        <use fill="black" fill-opacity="1" filter="url(#filter-56)" xlink:href="#path-55"></use>
                        <use stroke="#50E3C2" stroke-width="1" stroke-linecap="square" xlink:href="#path-55"></use>
                    </g>
                    <g id="Shape">
                        <use fill="black" fill-opacity="1" filter="url(#filter-58)" xlink:href="#path-57"></use>
                        <use stroke="#50E3C2" stroke-width="1" stroke-linecap="square" xlink:href="#path-57"></use>
                    </g>
                    <g id="Shape">
                        <use fill="black" fill-opacity="1" filter="url(#filter-60)" xlink:href="#path-59"></use>
                        <use stroke="#50E3C2" stroke-width="1" stroke-linecap="square" xlink:href="#path-59"></use>
                    </g>
                    <g id="Shape">
                        <use fill="black" fill-opacity="1" filter="url(#filter-62)" xlink:href="#path-61"></use>
                        <use stroke="#50E3C2" stroke-width="1" stroke-linecap="square" xlink:href="#path-61"></use>
                    </g>
                    <g id="Shape">
                        <use fill="black" fill-opacity="1" filter="url(#filter-64)" xlink:href="#path-63"></use>
                        <use stroke="#50E3C2" stroke-width="1" stroke-linecap="square" xlink:href="#path-63"></use>
                    </g>
                    <g id="Shape">
                        <use fill="black" fill-opacity="1" filter="url(#filter-66)" xlink:href="#path-65"></use>
                        <use stroke="#50E3C2" stroke-width="1" stroke-linecap="square" xlink:href="#path-65"></use>
                    </g>
                    <g id="Shape">
                        <use fill="black" fill-opacity="1" filter="url(#filter-68)" xlink:href="#path-67"></use>
                        <use stroke="#50E3C2" stroke-width="1" stroke-linecap="square" xlink:href="#path-67"></use>
                    </g>
                    <g id="Shape">
                        <use fill="black" fill-opacity="1" filter="url(#filter-70)" xlink:href="#path-69"></use>
                        <use stroke="#50E3C2" stroke-width="1" stroke-linecap="square" xlink:href="#path-69"></use>
                    </g>
                    <g id="Shape">
                        <use fill="black" fill-opacity="1" filter="url(#filter-72)" xlink:href="#path-71"></use>
                        <use stroke="#50E3C2" stroke-width="1" stroke-linecap="square" xlink:href="#path-71"></use>
                    </g>
                    <g id="Shape">
                        <use fill="black" fill-opacity="1" filter="url(#filter-74)" xlink:href="#path-73"></use>
                        <use stroke="#50E3C2" stroke-width="1" stroke-linecap="square" xlink:href="#path-73"></use>
                    </g>
                </g>
                <g id="Group-22" transform="translate(860.000000, 444.000000)">
                    <g id="Shape">
                        <use fill="black" fill-opacity="1" filter="url(#filter-76)" xlink:href="#path-75"></use>
                        <use stroke="#9150C9" stroke-width="1" stroke-linecap="square" xlink:href="#path-75"></use>
                    </g>
                </g>
            </g>
        </g>
    </g>
</svg>