<?xml version="1.0" encoding="UTF-8"?>
<svg viewBox="0 0 406 360" version="1.1" xmlns="http://www.w3.org/2000/svg" xmlns:xlink="http://www.w3.org/1999/xlink">
    <!-- Generator: Sketch 41.2 (35397) - http://www.bohemiancoding.com/sketch -->
    <title>illustration-videos</title>
    <desc>Created with Sketch.</desc>
    <defs></defs>
    <g id="Page-1" stroke="none" stroke-width="1" fill="none" fill-rule="evenodd">
        <g id="Group" transform="translate(1.000000, 1.000000)" stroke="#98F3D8" stroke-width="2">
            <path d="M183.173735,198.954774 C183.485025,198.954774 183.796315,198.954774 184.107605,198.641942 L226.131725,176.743686 C226.754305,176.430854 227.376884,175.492357 227.376884,174.553861 C227.376884,173.615364 226.754305,172.9897 226.131725,172.364035 L184.107605,150.46578 C183.485025,150.152948 182.551156,150.152948 181.928576,150.46578 C181.305997,150.778612 180.683417,151.717109 180.683417,152.342773 L180.683417,196.139284 C180.683417,197.077781 180.994707,197.703445 181.928576,198.016277 C182.239866,198.641942 182.862446,198.954774 183.173735,198.954774 Z M185.352764,156.409592 L219.90593,174.553861 L185.352764,192.698129 L185.352764,156.409592 Z" id="Shape"></path>
            <path d="M87.3856668,257.829146 L317.259715,257.829146 C321.68037,257.829146 325.469502,254.024264 325.469502,249.585236 L325.469502,220.41448 L331.784724,226.755949 C332.100485,227.073022 332.732007,227.390096 333.363529,227.390096 C333.995051,227.390096 334.626573,227.073022 334.942334,226.755949 L344.415166,217.243746 C345.362449,216.292526 345.362449,214.707158 344.415166,214.073011 L324.206458,193.780312 L330.521679,190.609577 C331.468963,190.292504 331.784724,189.341283 331.784724,188.390063 L331.784724,187.438843 C331.784724,186.487622 331.153201,185.536402 330.205918,185.219329 L325.153741,183.316888 L325.153741,119.902201 C325.153741,115.463173 321.364609,111.658291 316.943954,111.658291 L87.3856668,111.658291 C82.9650121,111.658291 79.1758794,115.463173 79.1758794,119.902201 L79.1758794,249.585236 C79.1758794,254.024264 82.649251,257.829146 87.3856668,257.829146 Z M83.5965342,249.585236 L83.5965342,232.780344 L108.857419,232.780344 L108.857419,253.073044 L87.0699058,253.073044 C85.4911005,253.073044 83.5965342,251.487677 83.5965342,249.585236 Z M317.259715,253.073044 L113.593834,253.073044 L113.593834,232.780344 L320.733087,232.780344 L320.733087,249.585236 C320.733087,251.487677 319.154281,253.073044 317.259715,253.073044 Z M319.154281,190.926651 C318.522759,191.243724 317.891237,191.877871 317.891237,192.512018 C317.891237,193.146165 317.891237,194.097385 318.522759,194.414458 L339.362989,215.341305 L333.047768,221.682774 L324.206458,212.804718 L324.206458,212.804718 L311.891777,200.438854 C312.207538,200.438854 311.576016,200.12178 310.944494,200.12178 L310.628733,200.12178 C309.997211,200.12178 309.365689,200.755927 309.049928,201.390074 L306.208078,207.097396 L294.209158,176.024199 L325.153741,188.07299 L319.154281,190.926651 Z M87.3856668,116.09732 L317.259715,116.09732 C319.154281,116.09732 320.733087,117.682687 320.733087,119.585127 L320.733087,181.414448 L290.735786,169.68273 C289.788503,169.365657 288.84122,169.68273 288.209698,170.316877 C287.578176,170.951024 287.262415,171.902244 287.578176,172.853465 L303.366229,213.755938 C303.68199,214.707158 304.629273,215.341305 305.576556,215.341305 C306.523839,215.341305 307.471122,215.024232 307.786883,214.073011 L311.576016,206.463249 L320.733087,215.658379 L320.733087,228.024243 L83.5965342,228.024243 L83.5965342,119.902201 C83.5965342,117.682687 85.4911005,116.09732 87.3856668,116.09732 Z" id="Shape"></path>
            <path d="M302.246344,243.61809 L134.175423,243.61809 C132.909352,243.61809 131.959799,244.488155 131.959799,245.648241 C131.959799,246.808327 132.909352,247.678392 134.175423,247.678392 L302.246344,247.678392 C303.512415,247.678392 304.461968,246.808327 304.461968,245.648241 C304.778485,244.488155 303.828932,243.61809 302.246344,243.61809 Z" id="Shape"></path>
            <path d="M97.4472362,235.497487 C93.0485762,235.497487 89.3266332,239.21943 89.3266332,243.61809 C89.3266332,248.01675 93.0485762,251.738693 97.4472362,251.738693 C101.845896,251.738693 105.567839,248.01675 105.567839,243.61809 C105.567839,239.21943 101.845896,235.497487 97.4472362,235.497487 Z M97.4472362,246.663317 C95.7554439,246.663317 94.4020101,245.309883 94.4020101,243.61809 C94.4020101,241.926298 95.7554439,240.572864 97.4472362,240.572864 C99.1390285,240.572864 100.492462,241.926298 100.492462,243.61809 C100.492462,245.309883 99.1390285,246.663317 97.4472362,246.663317 Z" id="Shape"></path>
            <path d="M347.139138,9.47962955 C347.47195,9.81519166 348.137573,10.1507538 348.803196,10.1507538 C349.46882,10.1507538 350.134443,9.81519166 350.467254,9.47962955 C351.465689,8.47294323 351.465689,6.79513269 350.467254,6.12400847 L345.142269,0.755014743 C344.143834,-0.251671581 342.479776,-0.251671581 341.814153,0.755014743 C340.815718,1.76170107 340.815718,3.43951161 341.814153,4.11063582 L347.139138,9.47962955 Z" id="Shape"></path>
            <path d="M363.380344,25.7208356 C363.713156,26.0563977 364.378779,26.3919598 365.044402,26.3919598 C365.710026,26.3919598 366.375649,26.0563977 366.70846,25.7208356 C367.706895,24.7141493 367.706895,23.0363387 366.70846,22.3652145 L361.383475,16.9962208 C360.38504,15.9895344 358.720982,15.9895344 358.055359,16.9962208 C357.056924,18.0029071 357.056924,19.6807176 358.055359,20.3518419 L363.380344,25.7208356 Z" id="Shape"></path>
            <path d="M343.478211,26.3919598 C344.143834,26.3919598 344.809457,26.0563977 345.142269,25.7208356 L350.467254,20.3518419 C351.465689,19.3451555 351.465689,17.667345 350.467254,16.9962208 C349.46882,15.9895344 347.804762,15.9895344 347.139138,16.9962208 L341.814153,22.3652145 C340.815718,23.3719008 340.815718,25.0497114 341.814153,25.7208356 C342.146964,26.0563977 342.812588,26.3919598 343.478211,26.3919598 Z" id="Shape"></path>
            <path d="M359.719417,10.1507538 C360.38504,10.1507538 361.050663,9.81519166 361.383475,9.47962955 L366.70846,4.11063582 C367.706895,3.1039495 367.706895,1.42613896 366.70846,0.755014743 C365.710026,-0.251671581 364.045968,-0.251671581 363.380344,0.755014743 L358.055359,6.12400847 C357.056924,7.1306948 357.056924,8.80850534 358.055359,9.47962955 C358.38817,9.81519166 359.053794,10.1507538 359.719417,10.1507538 Z" id="Shape"></path>
            <path d="M4.07694209,329.639437 C3.07850729,328.632751 1.4144493,328.632751 0.748826098,329.639437 C-0.249608699,330.646123 -0.249608699,332.323934 0.748826098,332.995058 L6.07381168,338.364052 C6.40662328,338.699614 7.07224648,339.035176 7.73786968,339.035176 C8.40349287,339.035176 9.06911607,338.699614 9.40192767,338.364052 C10.4003625,337.357365 10.4003625,335.679555 9.40192767,335.008431 L4.07694209,329.639437 Z" id="Shape"></path>
            <path d="M20.3181481,345.880643 C19.3197133,344.873957 17.6556553,344.873957 16.9900321,345.880643 C15.9915973,346.887329 15.9915973,348.56514 16.9900321,349.236264 L22.3150177,354.605258 C22.6478293,354.94082 23.3134525,355.276382 23.9790757,355.276382 C24.6446989,355.276382 25.3103221,354.94082 25.6431337,354.605258 C26.6415685,353.598571 26.6415685,351.920761 25.6431337,351.249637 L20.3181481,345.880643 Z" id="Shape"></path>
            <path d="M6.07381168,345.768558 L0.748826098,351.2016 C-0.249608699,352.220296 -0.249608699,353.918121 0.748826098,354.597252 C1.0816377,354.936817 1.74726089,355.276382 2.41288409,355.276382 C3.07850729,355.276382 3.74413049,354.936817 4.07694209,354.597252 L9.40192767,349.164209 C10.4003625,348.145514 10.4003625,346.447688 9.40192767,345.768558 C8.40349287,345.089427 7.07224648,344.749862 6.07381168,345.768558 Z" id="Shape"></path>
            <path d="M22.3150177,329.527352 L16.9900321,334.960394 C15.9915973,335.97909 15.9915973,337.676915 16.9900321,338.356046 C17.3228437,338.695611 17.9884669,339.035176 18.6540901,339.035176 C19.3197133,339.035176 19.9853365,338.695611 20.3181481,338.356046 L25.6431337,332.923003 C26.6415685,331.904308 26.6415685,330.206482 25.6431337,329.527352 C24.6446989,328.848221 23.3134525,328.508656 22.3150177,329.527352 Z" id="Shape"></path>
            <path d="M12.1809045,103.537688 C13.3409907,103.537688 14.2110553,102.576038 14.2110553,101.293838 L14.2110553,63.1483734 C14.2110553,61.866173 13.3409907,60.9045226 12.1809045,60.9045226 C11.0208184,60.9045226 10.1507538,61.866173 10.1507538,63.1483734 L10.1507538,100.973287 C10.1507538,102.255488 11.0208184,103.537688 12.1809045,103.537688 Z" id="Shape"></path>
            <path d="M12.1809045,131.959799 C13.3409907,131.959799 14.2110553,130.980976 14.2110553,129.675879 L14.2110553,115.972362 C14.2110553,114.667265 13.3409907,113.688442 12.1809045,113.688442 C11.0208184,113.688442 10.1507538,114.667265 10.1507538,115.972362 L10.1507538,129.675879 C10.1507538,130.980976 11.0208184,131.959799 12.1809045,131.959799 Z" id="Shape"></path>
            <path d="M383.698492,178.653266 C384.858579,178.653266 385.728643,177.684331 385.728643,176.392417 L385.728643,138.28095 C385.728643,136.989036 384.858579,136.020101 383.698492,136.020101 C382.538406,136.020101 381.668342,136.989036 381.668342,138.28095 L381.668342,176.392417 C381.668342,177.684331 382.538406,178.653266 383.698492,178.653266 Z" id="Shape"></path>
            <path d="M383.698492,209.105528 C384.858579,209.105528 385.728643,208.126705 385.728643,206.821608 L385.728643,193.11809 C385.728643,191.812994 384.858579,190.834171 383.698492,190.834171 C382.538406,190.834171 381.668342,191.812994 381.668342,193.11809 L381.668342,206.821608 C381.668342,208.126705 382.538406,209.105528 383.698492,209.105528 Z" id="Shape"></path>
            <path d="M177.638191,38.5728643 C183.699641,38.5728643 188.80402,33.4684853 188.80402,27.4070352 C188.80402,21.3455851 183.699641,16.241206 177.638191,16.241206 C171.576741,16.241206 166.472362,21.3455851 166.472362,27.4070352 C166.472362,33.4684853 171.576741,38.5728643 177.638191,38.5728643 Z M177.638191,21.0265614 C181.147452,21.0265614 184.018665,23.8977746 184.018665,27.4070352 C184.018665,30.9162958 181.147452,33.787509 177.638191,33.787509 C174.12893,33.787509 171.257717,30.9162958 171.257717,27.4070352 C171.257717,23.8977746 174.12893,21.0265614 177.638191,21.0265614 Z" id="Shape"></path>
            <path d="M151.246231,326.854271 C145.184781,326.854271 140.080402,331.95865 140.080402,338.020101 C140.080402,344.081551 145.184781,349.18593 151.246231,349.18593 C157.307681,349.18593 162.41206,344.081551 162.41206,338.020101 C162.41206,331.95865 157.307681,326.854271 151.246231,326.854271 Z M151.246231,344.400574 C147.736971,344.400574 144.865757,341.529361 144.865757,338.020101 C144.865757,334.51084 147.736971,331.639627 151.246231,331.639627 C154.755492,331.639627 157.626705,334.51084 157.626705,338.020101 C157.626705,341.529361 154.755492,344.400574 151.246231,344.400574 Z" id="Shape"></path>
            <path d="M22.3316583,230.422111 C22.3316583,224.36066 17.2272793,219.256281 11.1658291,219.256281 C5.10437904,219.256281 0,224.36066 0,230.422111 C0,236.483561 5.10437904,241.58794 11.1658291,241.58794 C17.2272793,241.58794 22.3316583,236.802584 22.3316583,230.422111 Z M11.1658291,237.121608 C7.65656856,237.121608 4.78535535,234.250395 4.78535535,230.741134 C4.78535535,227.231874 7.65656856,224.36066 11.1658291,224.36066 C14.6750897,224.36066 17.5463029,227.231874 17.5463029,230.741134 C17.5463029,234.250395 14.9941134,237.121608 11.1658291,237.121608 Z" id="Shape"></path>
            <path d="M62.9346734,32.5047018 C62.9346734,33.652051 63.9134961,34.5125628 65.218593,34.5125628 L115.464824,34.5125628 C116.769921,34.5125628 117.748744,33.652051 117.748744,32.5047018 C117.748744,31.3573527 116.769921,30.4968408 115.464824,30.4968408 L65.5448672,30.4968408 C64.2397703,30.2100036 62.9346734,31.3573527 62.9346734,32.5047018 Z" id="Shape"></path>
            <path d="M34.7028894,34.5125628 L50.5634422,34.5125628 C51.8322864,34.5125628 52.7839196,33.6424982 52.7839196,32.4824121 C52.7839196,31.3223259 51.8322864,30.4522613 50.5634422,30.4522613 L34.7028894,30.4522613 C33.4340452,30.4522613 32.4824121,31.3223259 32.4824121,32.4824121 C32.4824121,33.6424982 33.4340452,34.5125628 34.7028894,34.5125628 Z" id="Shape"></path>
            <path d="M34.8120933,18.2713568 L70.7557459,18.2713568 C72.0869923,18.2713568 73.0854271,17.4012922 73.0854271,16.241206 C73.0854271,15.0811199 72.0869923,14.2110553 70.7557459,14.2110553 L34.8120933,14.2110553 C33.4808469,14.2110553 32.4824121,15.0811199 32.4824121,16.241206 C32.4824121,17.4012922 33.4808469,18.2713568 34.8120933,18.2713568 Z" id="Shape"></path>
            <path d="M81.4960517,18.2713568 L93.0969131,18.2713568 C94.4227259,18.2713568 95.4170854,17.4012922 95.4170854,16.241206 C95.4170854,15.0811199 94.4227259,14.2110553 93.0969131,14.2110553 L81.4960517,14.2110553 C80.1702389,14.2110553 79.1758794,15.0811199 79.1758794,16.241206 C79.1758794,17.4012922 80.1702389,18.2713568 81.4960517,18.2713568 Z" id="Shape"></path>
            <path d="M371.517588,339.035176 C371.517588,337.87509 370.538765,337.005025 369.233668,337.005025 L318.987437,337.005025 C317.68234,337.005025 316.703518,337.87509 316.703518,339.035176 C316.703518,340.195262 317.68234,341.065327 318.987437,341.065327 L369.233668,341.065327 C370.538765,341.065327 371.517588,340.195262 371.517588,339.035176 Z" id="Shape"></path>
            <path d="M381.668342,339.057466 C381.668342,340.204815 382.619975,341.065327 383.888819,341.065327 L399.749372,341.065327 C401.018216,341.065327 401.969849,340.204815 401.969849,339.057466 C401.969849,337.910117 401.018216,337.049605 399.749372,337.049605 L383.888819,337.049605 C382.937186,336.762767 381.668342,337.910117 381.668342,339.057466 Z" id="Shape"></path>
            <path d="M401.670319,353.246231 L365.726666,353.246231 C364.39542,353.246231 363.396985,354.116296 363.396985,355.276382 C363.396985,356.436468 364.39542,357.306533 365.726666,357.306533 L401.670319,357.306533 C403.001565,357.306533 404,356.436468 404,355.276382 C404,354.406317 403.001565,353.246231 401.670319,353.246231 Z" id="Shape"></path>
            <path d="M352.95621,353.246231 L341.355348,353.246231 C340.029535,353.246231 339.035176,354.116296 339.035176,355.276382 C339.035176,356.436468 340.029535,357.306533 341.355348,357.306533 L352.95621,357.306533 C354.282022,357.306533 355.276382,356.436468 355.276382,355.276382 C355.276382,354.406317 354.282022,353.246231 352.95621,353.246231 Z" id="Shape"></path>
            <path d="M48.7236181,110.316688 L48.7236181,273.864497 C48.7236181,275.142215 49.6746608,276.100503 50.9427177,276.100503 L353.057282,276.100503 C354.325339,276.100503 355.276382,275.142215 355.276382,273.864497 L355.276382,110.316688 C355.276382,101.053238 347.66804,93.3869347 338.474628,93.3869347 L65.5253725,93.3869347 C56.3319597,93.3869347 48.7236181,101.053238 48.7236181,110.316688 Z M350.838183,110.316688 L350.838183,271.628492 L53.1618174,271.628492 L53.1618174,110.316688 C53.1618174,103.608673 58.5510593,98.1783744 65.2083582,98.1783744 L338.474628,98.1783744 C345.448941,97.8589451 350.838183,103.608673 350.838183,110.316688 Z" id="Shape"></path>
            <path d="M385.79805,296.40201 L389.310037,290.467723 C389.948581,289.2184 389.948581,287.656745 389.310037,286.407422 C388.671494,285.158098 387.075136,284.221106 385.79805,284.221106 L20.2321007,284.221106 C18.6357428,284.221106 17.3586565,285.158098 16.7201134,286.407422 C16.0815702,287.656745 16.0815702,289.2184 16.7201134,290.467723 L20.2321007,296.40201 C26.2982605,306.396598 37.7920371,312.643216 49.6050853,312.643216 L356.105794,312.643216 C368.238114,312.643216 379.412619,306.396598 385.79805,296.40201 Z M24.3826311,293.903363 L21.1899154,288.906069 L384.520964,288.906069 L381.328248,293.903363 C375.900631,302.648628 366.322484,307.958253 355.786522,307.958253 L49.2858137,307.958253 C39.388395,307.958253 29.8102478,302.648628 24.3826311,293.903363 Z" id="Shape"></path>
        </g>
    </g>
</svg>
