<?xml version="1.0" encoding="UTF-8"?>
<svg viewBox="0 0 372 392" version="1.1" xmlns="http://www.w3.org/2000/svg" xmlns:xlink="http://www.w3.org/1999/xlink">
    <!-- Generator: Sketch 41.2 (35397) - http://www.bohemiancoding.com/sketch -->
    <title>Group 5</title>
    <desc>Created with Sketch.</desc>
    <defs></defs>
    <g id="Page-1" stroke="none" stroke-width="1" fill="none" fill-rule="evenodd">
        <g id="Group-5" transform="translate(1.000000, 0.000000)" stroke="#98F3D7" stroke-width="2">
            <path d="M366,252 C367.5,252 369,251.076923 369,249.538462 L369,214.461538 C369,213.230769 367.875,212 366,212 C364.5,212 363,212.923077 363,214.461538 L363,249.846154 C363,251.076923 364.5,252 366,252 Z" id="Shape"></path>
            <path d="M366,265 C367.5,265 369,264.320755 369,263.188679 L369,254.811321 C369,253.90566 367.875,253 366,253 C364.5,253 363,253.679245 363,254.811321 L363,263.188679 C363,264.09434 364.5,265 366,265 Z" id="Shape"></path>
            <path d="M11.4754098,157.576 C10.6885246,156.808 9.37704918,156.808 8.59016393,157.576 C7.80327869,158.344 7.80327869,159.624 8.59016393,160.392 L12.7868852,164.488 C13.3114754,164.744 13.8360656,165 14.0983607,165 C14.6229508,165 15.147541,164.744 15.4098361,164.488 C16.1967213,163.72 16.1967213,162.44 15.4098361,161.672 L11.4754098,157.576 Z" id="Shape"></path>
            <path d="M26.331112,171.599 C25.5658047,170.85206 24.2902924,170.85206 23.524985,171.599 C22.7596776,172.34594 22.7596776,173.59084 23.524985,174.33778 L27.6066243,178.32146 C27.8617268,178.57044 28.3719317,178.81942 28.8821366,178.81942 C29.3923416,178.81942 29.9025465,178.57044 30.1576489,178.32146 C30.9229563,177.57452 30.9229563,176.32962 30.1576489,175.58268 L26.331112,171.599 Z" id="Shape"></path>
            <path d="M12.7868852,171.576 L8.59016393,175.672 C7.80327869,176.44 7.80327869,177.72 8.59016393,178.488 C8.85245902,178.744 9.37704918,179 9.90163934,179 C10.4262295,179 10.9508197,178.744 11.2131148,178.488 L15.4098361,174.392 C16.1967213,173.624 16.1967213,172.344 15.4098361,171.576 C14.8852459,170.808 13.5737705,170.808 12.7868852,171.576 Z" id="Shape"></path>
            <path d="M30.2015493,158.260785 C29.4579036,157.513845 28.2184943,157.513845 27.4748487,158.260785 L23.5087387,162.244465 C22.7650931,162.991405 22.7650931,164.236305 23.5087387,164.983245 C23.7566206,165.232225 24.2523843,165.481205 24.748148,165.481205 C25.2439118,165.481205 25.7396755,165.232225 25.9875574,164.983245 L29.9536674,160.999565 C30.9451949,160.252625 30.9451949,159.007725 30.2015493,158.260785 Z" id="Shape"></path>
            <path d="M311.142884,8.2592275 C311.389888,8.5082075 311.883896,8.7571875 312.377904,8.7571875 C312.871912,8.7571875 313.36592,8.5082075 313.612924,8.2592275 C314.353936,7.5122875 314.353936,6.2673875 313.612924,5.5204475 L309.660861,1.5367675 C308.919849,0.7898275 307.684829,0.7898275 306.943817,1.5367675 C306.202805,2.2837075 306.202805,3.5286075 306.943817,4.2755475 L311.142884,8.2592275 Z" id="Shape"></path>
            <path d="M322.888889,27.488 C323.142857,27.744 323.650794,28 324.15873,28 C324.666667,28 325.174603,27.744 325.428571,27.488 C326.190476,26.72 326.190476,25.44 325.428571,24.672 L321.365079,20.576 C320.603175,19.808 319.333333,19.808 318.571429,20.576 C317.809524,21.344 317.809524,22.624 318.571429,23.392 L322.888889,27.488 Z" id="Shape"></path>
            <path d="M308.425841,27.6529911 C308.919849,27.6529911 309.413857,27.4040111 309.660861,27.1550311 L313.612924,23.1713511 C314.353936,22.4244111 314.353936,21.1795111 313.612924,20.4325711 C312.871912,19.6856311 311.636892,19.6856311 310.89588,20.4325711 L306.943817,24.4162511 C306.202805,25.1631911 306.202805,26.4080911 306.943817,27.1550311 C307.437825,27.4040111 307.931833,27.6529911 308.425841,27.6529911 Z" id="Shape"></path>
            <path d="M320.095238,9 C320.603175,9 321.111111,8.744 321.365079,8.488 L325.428571,4.392 C326.190476,3.624 326.190476,2.344 325.428571,1.576 C324.666667,0.808 323.396825,0.808 322.634921,1.576 L318.571429,5.672 C317.809524,6.44 317.809524,7.72 318.571429,8.488 C319.333333,8.744 319.587302,9 320.095238,9 Z" id="Shape"></path>
            <path d="M349.782808,328.323018 C349.017501,327.576078 347.741989,327.576078 346.976681,328.323018 C346.211374,329.069958 346.211374,330.314858 346.976681,331.061798 L351.058321,335.045478 C351.313423,335.294458 351.823628,335.543438 352.333833,335.543438 C352.844038,335.543438 353.354243,335.294458 353.609345,335.045478 C354.374653,334.298538 354.374653,333.053638 353.609345,332.306698 L349.782808,328.323018 Z" id="Shape"></path>
            <path d="M365.344058,342.77275 C364.578751,342.02581 363.303239,342.02581 362.537931,342.77275 C361.772624,343.51969 361.772624,344.76459 362.537931,345.51153 L366.619571,349.49521 C366.874673,349.74419 367.384878,349.99317 367.895083,349.99317 C368.405288,349.99317 368.915493,349.74419 369.170595,349.49521 C369.935903,348.74827 369.935903,347.50337 369.170595,346.75643 L365.344058,342.77275 Z" id="Shape"></path>
            <path d="M351.058321,342.77275 L346.976681,346.75643 C346.211374,347.50337 346.211374,348.74827 346.976681,349.49521 C347.231784,349.74419 347.741989,349.99317 348.252194,349.99317 C348.762399,349.99317 349.272604,349.74419 349.527706,349.49521 L353.609345,345.51153 C354.374653,344.76459 354.374653,343.51969 353.609345,342.77275 C353.09914,342.02581 351.823628,342.02581 351.058321,342.77275 Z" id="Shape"></path>
            <path d="M364.001734,335.543438 C364.495742,335.543438 364.98975,335.294458 365.236753,335.045478 L369.188817,331.061798 C369.929829,330.314858 369.929829,329.069958 369.188817,328.323018 C368.447805,327.576078 367.212785,327.576078 366.471773,328.323018 L362.51971,332.306698 C361.778698,333.053638 361.778698,334.298538 362.51971,335.045478 C363.013718,335.294458 363.507726,335.543438 364.001734,335.543438 Z" id="Shape"></path>
            <path d="M350.299916,77.6712946 C356.196911,77.6712946 360.852433,73.0127272 360.852433,67.111875 C360.852433,61.2110228 356.196911,56.5524554 350.299916,56.5524554 C344.402921,56.5524554 339.747399,61.2110228 339.747399,67.111875 C339.437031,72.702156 344.402921,77.6712946 350.299916,77.6712946 Z M350.299916,60.9004517 C353.713966,60.9004517 356.196911,63.6955922 356.196911,66.8013038 C356.196911,70.2175867 353.403598,72.702156 350.299916,72.702156 C346.885866,72.702156 344.402921,69.9070155 344.402921,66.8013038 C344.092553,63.385021 346.885866,60.9004517 350.299916,60.9004517 Z" id="Shape"></path>
            <path d="M29.05745,327.762813 C23.1604552,327.762813 18.504933,332.42138 18.504933,338.322232 C18.504933,344.223084 23.1604552,348.881652 29.05745,348.881652 C34.9544448,348.881652 39.609967,344.223084 39.609967,338.322232 C39.9203351,332.42138 34.9544448,327.762813 29.05745,327.762813 Z M29.05745,344.223084 C25.6434004,344.223084 23.1604552,341.427944 23.1604552,338.322232 C23.1604552,334.905949 25.9537686,332.42138 29.05745,332.42138 C32.4714996,332.42138 34.9544448,335.21652 34.9544448,338.322232 C35.2648129,341.738515 32.4714996,344.223084 29.05745,344.223084 Z" id="Shape"></path>
            <path d="M44,23 C44,21.5 43.0571429,20 41.4857143,20 L2.2,20 C0.942857143,20 0,21.5 0,23 C0,24.5 0.942857143,26 2.51428571,26 L41.8,26 C42.7428571,25.625 44,24.5 44,23 Z" id="Shape"></path>
            <path d="M52.7142857,26 L66.2857143,26 C67.6428571,26 69,24.875 69,23 C69,21.5 67.9821429,20 66.2857143,20 L52.7142857,20 C51.3571429,20 50,21.125 50,23 C50.3392857,24.875 51.3571429,26 52.7142857,26 Z" id="Shape"></path>
            <path d="M59.6699029,37 C60.8349515,37 62,35.875 62,34 C62,32.5 61.1262136,31 59.6699029,31 L34.3300971,31 C33.1650485,31 32,32.125 32,34 C32,35.5 32.8737864,37 34.3300971,37 L59.6699029,37 Z" id="Shape"></path>
            <path d="M23,36 C23,34.5 22.25,33 21,33 L14,33 C13,33 12,34.5 12,36 C12,37.5 12.75,39 14,39 L21,39 C22,38.625 23,37.5 23,36 Z" id="Shape"></path>
            <path d="M299.718951,372.223527 C299.718951,370.55625 298.772978,368.888973 297.196357,368.888973 L257.78083,368.888973 C256.519533,368.888973 255.258237,370.139431 255.258237,372.223527 C255.258237,373.890804 256.204209,375.55808 257.78083,375.55808 L297.196357,375.55808 C298.457654,375.141261 299.718951,373.890804 299.718951,372.223527 Z" id="Shape"></path>
            <path d="M324.285714,375 C325.642857,375 327,373.875 327,372 C327,370.5 325.982143,369 324.285714,369 L310.714286,369 C309.357143,369 308,370.125 308,372 C308,373.5 309.017857,375 310.714286,375 L324.285714,375 Z" id="Shape"></path>
            <path d="M320.669903,382 L295.330097,382 C294.165049,382 293,383.125 293,385 C293,386.5 293.873786,388 295.330097,388 L320.669903,388 C321.834951,388 323,386.875 323,385 C322.708738,383.5 321.834951,382 320.669903,382 Z" id="Shape"></path>
            <path d="M283,382 L276,382 C275,382 274,383.125 274,385 C274,386.5 274.75,388 276,388 L283,388 C284,388 285,386.875 285,385 C285,383.5 284,382 283,382 Z" id="Shape"></path>
            <path d="M118.241982,368.888973 L78.8264553,368.888973 C77.5651585,368.888973 76.3038616,370.139431 76.3038616,372.223527 C76.3038616,373.890804 77.2498343,375.55808 78.8264553,375.55808 L118.241982,375.55808 C119.503279,375.55808 120.764576,374.307623 120.764576,372.223527 C120.764576,370.55625 119.503279,368.888973 118.241982,368.888973 Z" id="Shape"></path>
            <path d="M67.2857143,369 L53.7142857,369 C52.3571429,369 51,370.125 51,372 C51,373.5 52.0178571,375 53.7142857,375 L67.2857143,375 C68.6428571,375 70,373.875 70,372 C70,370.5 68.6428571,369 67.2857143,369 Z" id="Shape"></path>
            <path d="M54.1814188,357.773795 C53.0159438,357.773795 51.8504688,359.024252 51.8504688,361.108348 C51.8504688,362.775625 52.724575,364.442902 54.1814188,364.442902 L79.5305008,364.442902 C80.6959759,364.442902 81.8614509,363.192444 81.8614509,361.108348 C81.8614509,359.441071 80.9873446,357.773795 79.5305008,357.773795 L54.1814188,357.773795 Z" id="Shape"></path>
            <path d="M93.8860532,357.773795 C92.8755824,357.773795 91.8651116,359.024252 91.8651116,361.108348 C91.8651116,362.775625 92.6229647,364.442902 93.8860532,364.442902 L100.959349,364.442902 C101.969819,364.442902 102.98029,363.192444 102.98029,361.108348 C102.98029,359.441071 102.222437,357.773795 100.959349,357.773795 L93.8860532,357.773795 Z" id="Shape"></path>
            <path d="M297.06134,246.736842 C296.744853,247.894737 297.694313,249.052632 298.96026,249.342105 L334.09028,256 L334.723254,256 C335.672714,256 336.93866,255.421053 336.93866,254.263158 C337.255147,253.105263 336.305687,251.947368 335.03974,251.657895 L299.90972,245 C298.643773,245 297.377826,245.578947 297.06134,246.736842 Z" id="Shape"></path>
            <path d="M192,74 C193.5,74 195,73.0882353 195,71.5686275 L195,14.4313725 C195,13.2156863 193.875,12 192,12 C190.5,12 189,12.9117647 189,14.4313725 L189,71.5686275 C189,72.7843137 190.5,74 192,74 Z" id="Shape"></path>
            <path d="M115.587506,95.3111458 C115.877903,95.939122 116.749092,96.5670982 117.329886,96.5670982 C117.620282,96.5670982 118.201075,96.5670982 118.491472,96.2531101 C119.653058,95.6251339 119.943455,94.0551935 119.362661,93.1132292 L91.484592,42.2471577 C90.9037989,40.9912054 89.4518161,40.6772173 88.5806264,41.3051935 C87.4190402,41.9331696 87.1286436,43.5031101 87.7094367,44.4450744 L115.587506,95.3111458 Z" id="Shape"></path>
            <path d="M71.4972067,141 C72.4357542,141 73.0614525,140.703704 73.6871508,139.814815 C74.3128492,138.62963 74,137.444444 72.7486034,136.851852 L21.4413408,109.296296 C20.1899441,108.703704 18.9385475,109 18.3128492,110.185185 C17.6871508,111.37037 18,112.555556 19.2513966,113.148148 L70.2458101,140.703704 C70.5586592,140.703704 71.1843575,141 71.4972067,141 Z" id="Shape"></path>
            <path d="M95.6853933,279.163636 C95.0561798,278 93.4831461,277.709091 92.5393258,278.290909 L41.258427,305.927273 C40,306.509091 39.6853933,307.963636 40.3146067,308.836364 C40.6292135,309.418182 41.5730337,310 42.5168539,310 C42.8314607,310 43.4606742,310 43.7752809,309.709091 L94.741573,282.363636 C96,281.781818 96.3146067,280.327273 95.6853933,279.163636 Z" id="Shape"></path>
            <path d="M341.70173,305.876015 L290.9391,278.037545 C289.685701,277.451472 288.432303,277.744509 287.805604,278.916655 C287.178905,280.088801 287.492254,281.260947 288.745653,281.84702 L339.508283,309.68549 C339.821633,309.978527 340.448332,309.978527 340.761681,309.978527 C341.70173,309.978527 342.328429,309.68549 342.955128,308.806381 C343.268478,307.927271 342.955128,306.462088 341.70173,305.876015 Z" id="Shape"></path>
            <path d="M359.266667,109.299065 L308.244444,136.813084 C307,137.411215 306.688889,138.906542 307.311111,139.803738 C307.622222,140.401869 308.555556,141 309.488889,141 C309.8,141 310.422222,141 310.733333,140.700935 L361.755556,113.186916 C363,112.588785 363.311111,111.093458 362.688889,110.196262 C362.066667,109 360.511111,108.700935 359.266667,109.299065 Z" id="Shape"></path>
            <path d="M256.419823,96.2531101 C256.710219,96.5670982 257.291013,96.5670982 257.581409,96.5670982 C258.452599,96.5670982 259.033392,96.2531101 259.323788,95.3111458 L287.201858,44.4450744 C287.782651,43.189122 287.492254,41.9331696 286.330668,41.3051935 C285.169082,40.6772173 284.007496,40.9912054 283.426703,42.2471577 L255.548633,93.1132292 C254.96784,94.0551935 255.258237,95.6251339 256.419823,96.2531101 Z" id="Shape"></path>
            <path d="M152.740265,72.9729694 C152.992312,73.7912324 153.748451,74.3367411 154.504591,74.3367411 L155.008684,74.3367411 C156.016871,74.0639867 156.520964,72.9729694 156.268917,71.8819521 L147.699333,42.4244841 C147.447287,41.3334668 146.4391,40.7879581 145.430914,41.0607124 C144.422728,41.3334668 143.918634,42.4244841 144.170681,43.5155014 L152.740265,72.9729694 Z" id="Shape"></path>
            <path d="M92.2741727,109.320624 C92.5788528,109.612968 93.1882128,109.905312 93.7975729,109.905312 C94.4069329,109.905312 95.0162929,109.612968 95.625653,109.320624 C96.5396931,108.44359 96.5396931,106.981868 95.625653,106.104835 L70.3372112,83.8866589 C69.4231711,83.0096256 67.899771,83.0096256 66.9857309,83.8866589 C66.0716909,84.7636921 66.0716909,86.2254143 66.9857309,87.1024475 L92.2741727,109.320624 Z" id="Shape"></path>
            <path d="M40.0686437,251.756601 C40.3380102,252.502641 41.1461097,253 41.9542092,253 L42.4929422,253 L71.5845238,244.544889 C72.6619898,244.296209 73.2007228,243.30149 72.9313563,242.306771 C72.6619898,241.312052 71.3151573,240.814692 70.5070578,241.063372 L41.4154762,249.518484 C40.3380102,249.767163 39.7992772,250.761882 40.0686437,251.756601 Z" id="Shape"></path>
            <path d="M111.174755,305.061817 C110.300427,304.162732 108.843213,304.162732 107.968885,305.361512 L85.8192369,330.535886 C84.9449087,331.43497 84.9449087,332.933445 86.1106796,333.83253 C86.4021224,334.132225 86.9850079,334.43192 87.5678933,334.43192 C88.1507788,334.43192 88.7336643,334.132225 89.3165497,333.83253 L111.466198,308.658156 C112.049083,307.459376 112.049083,305.960902 111.174755,305.061817 Z" id="Shape"></path>
            <path d="M263.678856,308.413266 C262.781013,309.290299 262.781013,310.752021 263.978137,311.629055 L289.117756,333.847231 C289.417037,334.139575 290.0156,334.43192 290.614162,334.43192 C291.212725,334.43192 291.811287,334.139575 292.409849,333.847231 C293.307693,332.970198 293.307693,331.508475 292.110568,330.631442 L266.970949,308.413266 C266.073106,307.536233 264.5767,307.536233 263.678856,308.413266 Z" id="Shape"></path>
            <path d="M309.817803,87.8450103 L287.632557,113.09263 C286.745147,113.994331 286.745147,115.497165 287.92836,116.398866 C288.224164,116.699433 288.81577,117 289.407377,117 C289.998983,117 290.59059,116.699433 291.182197,116.098299 L313.367443,90.8506793 C314.254853,89.9489786 314.254853,88.4461441 313.07164,87.5444434 C311.888426,86.6427427 310.40941,86.9433096 309.817803,87.8450103 Z" id="Shape"></path>
            <path d="M224.817644,74.3367411 L225.396746,74.3367411 C226.2654,74.3367411 227.423604,73.8040385 227.423604,72.7386333 L234.083278,43.4399899 C234.372829,42.3745847 233.504176,41.3091795 232.345972,41.0428282 C231.187768,40.7764769 230.029563,41.5755308 229.740012,42.640936 L223.080338,71.9395793 C222.790787,73.0049846 223.65944,74.0703898 224.817644,74.3367411 Z" id="Shape"></path>
            <path d="M285.402297,207.544528 L286.008118,207.544528 L286.61394,207.544528 C286.916851,207.544528 287.219761,207.544528 287.522672,207.239406 L326.295254,189.84742 C327.203987,189.542298 327.506897,188.62693 327.506897,187.711562 C327.506897,186.796195 326.901076,185.880827 326.295254,185.575705 L287.522672,168.183719 C286.916851,167.878597 286.61394,167.878597 286.008118,168.183719 L285.402297,168.183719 L242.388964,168.183719 L242.388964,165.437616 L242.388964,164.522249 C242.388964,157.50443 236.936569,152.012224 229.969621,152.012224 L228.152156,152.012224 C225.123048,152.012224 222.09394,153.232714 219.973565,155.06345 C219.064832,149.266121 214.21826,144.994406 208.160044,144.994406 L205.433847,144.994406 C201.798917,144.994406 198.769809,146.520018 196.346523,149.266121 C194.226147,145.299528 189.985396,142.553425 185.138823,142.553425 L183.92718,142.553425 C179.98934,142.553425 176.35441,144.384161 173.931124,147.435386 C171.810748,143.468793 167.569997,141.027812 163.026335,141.027812 L161.814692,141.027812 C154.847744,141.027812 149.092439,146.825141 149.092439,153.84296 L149.092439,158.419798 C148.183706,158.419798 147.577885,158.72492 146.669152,159.030043 C146.366241,159.030043 146.063331,159.335165 145.76042,159.335165 C144.245866,159.945411 143.034223,160.860778 141.82258,161.776146 C141.519669,162.081268 141.216758,162.386391 141.216758,162.691513 C140.005115,164.217126 139.096382,166.352984 138.793472,168.183719 L81.5433312,168.183719 C70.6385425,168.183719 61.8541295,177.032273 61.8541295,188.016685 C61.8541295,199.001097 70.6385425,207.849651 81.5433312,207.849651 L101.232533,207.849651 L101.232533,207.849651 L101.232533,207.849651 L139.399293,207.849651 L139.399293,230.123597 C139.399293,243.548989 146.972063,256.059013 158.785584,262.161464 C162.117603,303.658131 162.117603,346.070165 158.785584,387.566832 L158.482673,390.007813 L225.72887,390.007813 L225.425959,387.566832 C222.09394,346.070165 222.09394,303.963254 225.425959,262.161464 C235.724926,255.753891 242.388964,244.159234 242.388964,232.564577 L242.388964,207.849651 L285.402297,207.849651 L285.402297,207.544528 Z M287.825583,202.357445 L287.825583,173.370803 L319.934127,187.711562 L287.825583,202.357445 Z M283.281921,172.760558 L283.281921,202.96769 L242.388964,202.96769 L242.388964,182.829602 L242.388964,172.760558 L283.281921,172.760558 Z M228.455067,156.589062 L230.272532,156.589062 C234.513283,156.589062 238.148213,160.250533 238.148213,164.522249 L238.148213,165.437616 L238.148213,182.524479 C238.148213,186.796195 234.513283,190.457665 230.272532,190.457665 L228.455067,190.457665 C224.214316,190.457665 220.579386,186.796195 220.579386,182.524479 L220.579386,164.522249 C220.579386,160.250533 223.911405,156.589062 228.455067,156.589062 Z M198.466898,156.894185 C198.466898,152.927592 201.798917,149.571244 205.736757,149.571244 L208.462955,149.571244 C212.400795,149.571244 215.732814,152.927592 215.732814,156.894185 L215.732814,164.522249 L215.732814,182.524479 L215.732814,182.524479 C215.732814,186.796195 212.097884,190.457665 207.857133,190.457665 L206.039668,190.457665 C201.798917,190.457665 198.163988,186.796195 198.163988,182.524479 L198.163988,156.894185 L198.466898,156.894185 Z M184.533002,146.825141 L185.744645,146.825141 C190.288307,146.825141 193.923236,150.486612 193.923236,155.06345 L193.923236,181.914234 C193.923236,186.796195 189.985396,190.762788 185.138823,190.762788 C181.503894,190.762788 178.171875,188.321808 176.960232,184.96546 L178.474786,184.96546 C185.441734,184.96546 191.197039,179.168131 191.197039,172.150313 L191.197039,170.929822 C191.197039,163.912004 185.441734,158.114675 178.474786,158.114675 L176.35441,158.114675 L176.35441,155.368572 C176.35441,150.791734 179.98934,146.825141 184.533002,146.825141 Z M166.055443,184.96546 L171.204927,184.96546 C170.296194,187.40644 168.47873,189.237175 166.055443,190.152543 L166.055443,184.96546 Z M154.241922,153.84296 C154.241922,149.266121 157.876852,145.604651 162.420514,145.604651 L163.632157,145.604651 C168.175819,145.604651 171.810748,149.266121 171.810748,153.84296 L171.810748,155.368572 L171.810748,158.114675 L154.241922,158.114675 L154.241922,153.84296 L154.241922,153.84296 Z M66.3977914,187.711562 C66.3977914,179.473254 73.0618289,172.455435 81.5433312,172.455435 L98.8092465,172.455435 L98.8092465,202.662567 L81.5433312,202.662567 C73.0618289,202.96769 66.3977914,196.254994 66.3977914,187.711562 Z M103.352908,202.96769 L103.352908,172.760558 L139.096382,172.760558 L139.096382,175.811783 L139.096382,203.272812 L103.352908,203.272812 L103.352908,202.96769 Z M222.09394,258.499994 C221.488119,258.805116 221.185208,259.720484 220.882297,260.330729 L220.882297,260.330729 C217.550278,301.827396 217.550278,343.629185 220.579386,385.125852 L163.026335,385.125852 C166.055443,343.934308 166.055443,302.132518 162.723424,260.635852 C163.026335,259.720484 162.420514,258.499994 161.511781,258.194871 C150.606993,253.007788 143.640044,241.718254 143.640044,229.513352 L143.640044,175.506661 L143.640044,169.709332 C143.640044,168.183719 144.245866,166.658107 145.154598,165.437616 C145.154598,165.132494 145.457509,165.132494 145.76042,164.827371 C146.366241,164.217126 147.274974,163.606881 148.183706,163.301759 C148.183706,163.301759 148.486617,163.301759 148.789528,162.996636 C149.69826,162.691513 150.606993,162.691513 151.515725,162.691513 L171.810748,162.691513 L176.35441,162.691513 L178.474786,162.691513 C183.018448,162.691513 186.653377,166.352984 186.653377,170.929822 L186.653377,172.150312 C186.653377,176.727151 183.018448,180.388621 178.474786,180.388621 L171.507838,180.388621 L163.632157,180.388621 C162.420514,180.388621 161.20887,181.303989 161.20887,182.829602 L161.20887,183.134724 L161.20887,183.744969 L161.20887,210.900876 C161.20887,211.511121 161.511781,212.426489 162.117603,212.731612 C162.723424,213.036734 163.632157,213.341857 164.237978,213.036734 C164.540889,212.731612 175.445678,209.070141 182.715537,223.410901 C191.49995,240.497763 195.43779,245.989969 201.193096,249.346317 C201.496006,249.65144 201.798917,249.65144 202.404739,249.65144 C203.313471,249.65144 203.919293,249.346317 204.525114,248.43095 C205.130936,247.21046 204.828025,245.989969 203.616382,245.379724 C199.07272,242.633621 195.13488,237.141415 186.956288,221.580165 C180.292251,208.765018 170.599105,207.849651 165.752532,208.154773 L165.752532,195.339626 C169.084551,194.424259 171.810748,192.593523 173.628213,189.84742 C176.051499,193.508891 179.98934,195.949871 184.533002,195.949871 C189.076664,195.949871 193.014504,193.814013 195.43779,190.152543 C197.558166,193.508891 201.496006,195.644749 205.736757,195.644749 L207.554222,195.644749 C211.794973,195.644749 215.429903,193.508891 217.853189,190.152543 C219.973565,193.508891 223.911405,195.644749 228.152156,195.644749 L229.969621,195.644749 C232.998729,195.644749 235.724926,194.424259 237.845302,192.593523 L237.845302,232.564577 C237.845302,242.633621 231.484175,253.312911 222.09394,258.499994 Z" id="Shape"></path>
        </g>
    </g>
</svg>
