<?xml version="1.0" encoding="UTF-8"?>
<svg viewBox="0 0 302 288" version="1.1" xmlns="http://www.w3.org/2000/svg" xmlns:xlink="http://www.w3.org/1999/xlink">
    <!-- Generator: Sketch 41.2 (35397) - http://www.bohemiancoding.com/sketch -->
    <title>Group 8</title>
    <desc>Created with Sketch.</desc>
    <defs></defs>
    <g id="Page-1" stroke="none" stroke-width="1" fill="none" fill-rule="evenodd" stroke-linecap="square">
        <g id="Group-8" transform="translate(1.000000, 1.000000)" stroke="#98F3D7" stroke-width="2">
            <path d="M24.5,35 C25.25,35 26,34.3043478 26,33.1449275 L26,4.85507246 C26,3.92753623 25.4375,3 24.5,3 C23.75,3 23,3.69565217 23,4.85507246 L23,33.3768116 C23.1875,34.3043478 23.75,35 24.5,35 Z" id="Shape"></path>
            <path d="M24.5,56 C25.25,56 26,55.3035714 26,54.1428571 L26,44.8571429 C26,43.9285714 25.4375,43 24.5,43 C23.75,43 23,43.6964286 23,44.8571429 L23,54.1428571 C23.1875,55.0714286 23.75,56 24.5,56 Z" id="Shape"></path>
            <path d="M87.8888889,93.488 C88.1428571,93.744 88.6507937,94 89.1587302,94 C89.6666667,94 90.1746032,93.744 90.4285714,93.488 C91.1904762,92.72 91.1904762,91.44 90.4285714,90.672 L86.3650794,86.576 C85.6031746,85.808 84.3333333,85.808 83.5714286,86.576 C82.8095238,87.344 82.8095238,88.624 83.5714286,89.392 L87.8888889,93.488 Z" id="Shape"></path>
            <path d="M99.4754098,100.576 C98.6885246,99.808 97.3770492,99.808 96.5901639,100.576 C95.8032787,101.344 95.8032787,102.624 96.5901639,103.392 L100.786885,107.488 C101.04918,107.744 101.57377,108 102.098361,108 C102.622951,108 103.147541,107.744 103.409836,107.488 C104.196721,106.72 104.196721,105.44 103.409836,104.672 L99.4754098,100.576 Z" id="Shape"></path>
            <path d="M85.0952381,108 C85.6031746,108 86.1111111,107.744 86.3650794,107.488 L90.4285714,103.392 C91.1904762,102.624 91.1904762,101.344 90.4285714,100.576 C89.6666667,99.808 88.3968254,99.808 87.6349206,100.576 L83.5714286,104.672 C82.8095238,105.44 82.8095238,106.72 83.5714286,107.488 C84.0793651,107.744 84.5873016,108 85.0952381,108 Z" id="Shape"></path>
            <path d="M103.454974,86.576 C102.690361,85.808 101.416007,85.808 100.651394,86.576 L96.5734596,90.672 C95.8088468,91.44 95.8088468,92.72 96.5734596,93.488 C96.8283305,93.744 97.3380723,94 97.8478141,94 C98.3575559,94 98.8672978,93.744 99.1221687,93.488 L103.200103,89.392 C104.219587,88.624 104.219587,87.344 103.454974,86.576 Z" id="Shape"></path>
            <path d="M3.47540984,171.576 C2.68852459,170.808 1.37704918,170.808 0.590163934,171.576 C-0.196721311,172.344 -0.196721311,173.624 0.590163934,174.392 L4.78688525,178.488 C5.04918033,178.744 5.57377049,179 6.09836066,179 C6.62295082,179 7.14754098,178.744 7.40983607,178.488 C8.19672131,177.72 8.19672131,176.44 7.40983607,175.672 L3.47540984,171.576 Z" id="Shape"></path>
            <path d="M15.3650794,185.576 C14.6031746,184.808 13.3333333,184.808 12.5714286,185.576 C11.8095238,186.344 11.8095238,187.624 12.5714286,188.392 L16.6349206,192.488 C17.1428571,193 17.6507937,193 18.1587302,193 C18.6666667,193 19.1746032,192.744 19.4285714,192.488 C20.1904762,191.72 20.1904762,190.44 19.4285714,189.672 L15.3650794,185.576 Z" id="Shape"></path>
            <path d="M4.63492063,185.393443 L0.571428571,189.590164 C-0.19047619,190.377049 -0.19047619,191.688525 0.571428571,192.47541 C1.07936508,193 1.58730159,193 2.0952381,193 C2.6031746,193 3.11111111,192.737705 3.36507937,192.47541 L7.42857143,188.278689 C8.19047619,187.491803 8.19047619,186.180328 7.42857143,185.393443 C6.66666667,184.868852 5.3968254,184.868852 4.63492063,185.393443 Z" id="Shape"></path>
            <path d="M19.4285714,171.576 C18.6666667,170.808 17.3968254,170.808 16.6349206,171.576 L12.5714286,175.672 C11.8095238,176.44 11.8095238,177.72 12.5714286,178.488 C12.8253968,178.744 13.3333333,179 13.8412698,179 C14.3492063,179 14.8571429,178.744 15.1111111,178.488 L19.4285714,174.392 C20.1904762,173.624 20.1904762,172.344 19.4285714,171.576 Z" id="Shape"></path>
            <path d="M151.47541,228.576 C150.688525,227.808 149.377049,227.808 148.590164,228.576 C147.803279,229.344 147.803279,230.624 148.590164,231.392 L152.786885,235.488 C153.04918,235.744 153.57377,236 154.098361,236 C154.622951,236 155.147541,235.744 155.409836,235.488 C156.196721,234.72 156.196721,233.44 155.409836,232.672 L151.47541,228.576 Z" id="Shape"></path>
            <path d="M160.624954,242.392 L164.801971,246.488 C165.063035,246.744 165.585162,247 166.107289,247 C166.629416,247 167.151543,246.744 167.412607,246.488 C168.195798,245.72 168.195798,244.44 167.412607,243.672 L163.23559,239.576 C162.452399,238.808 161.147081,238.808 160.36389,239.576 C159.841763,240.344 159.841763,241.624 160.624954,242.392 Z" id="Shape"></path>
            <path d="M152.786885,239.576 L148.590164,243.672 C147.803279,244.44 147.803279,245.72 148.590164,246.488 C148.852459,246.744 149.377049,247 149.901639,247 C150.42623,247 150.95082,246.744 151.213115,246.488 L155.409836,242.392 C156.196721,241.624 156.196721,240.344 155.409836,239.576 C154.885246,238.808 153.57377,238.808 152.786885,239.576 Z" id="Shape"></path>
            <path d="M162.095238,236 C162.603175,236 163.111111,235.744 163.365079,235.488 L167.428571,231.392 C168.190476,230.624 168.190476,229.344 167.428571,228.576 C166.666667,227.808 165.396825,227.808 164.634921,228.576 L160.571429,232.672 C159.809524,233.44 159.809524,234.72 160.571429,235.488 C161.333333,236 161.587302,236 162.095238,236 Z" id="Shape"></path>
            <path d="M271,176.5 C271,180.15625 273.84375,183 277.5,183 C281.15625,183 284,180.15625 284,176.5 C284,172.84375 281.15625,170 277.5,170 C274.046875,170 271,172.84375 271,176.5 Z M281.15625,176.5 C281.15625,178.328125 279.53125,179.953125 277.703125,179.953125 C275.875,179.953125 274.25,178.328125 274.25,176.5 C274.25,174.671875 275.875,173.046875 277.703125,173.046875 C279.53125,173.046875 281.15625,174.671875 281.15625,176.5 Z" id="Shape"></path>
            <path d="M133,84.5 C133,88.15625 135.84375,91 139.5,91 C143.15625,91 146,88.15625 146,84.5 C146,80.84375 143.15625,78 139.5,78 C136.046875,78 133,81.046875 133,84.5 Z M143.15625,84.5 C143.15625,86.328125 141.53125,87.953125 139.703125,87.953125 C137.875,87.953125 136.25,86.328125 136.25,84.5 C136.25,82.671875 137.875,81.046875 139.703125,81.046875 C141.53125,81.046875 143.15625,82.671875 143.15625,84.5 Z" id="Shape"></path>
            <path d="M274,117.5 C274,116.75 273.326531,116 272.204082,116 L242.795918,116 C241.897959,116 241,116.5625 241,117.5 C241,118.25 241.673469,119 242.795918,119 L272.204082,119 C273.102041,119 274,118.25 274,117.5 Z" id="Shape"></path>
            <path d="M283,117.5 C283,118.25 283.672414,119 284.793103,119 L294.206897,119 C295.103448,119 296,118.4375 296,117.5 C296,116.75 295.327586,116 294.206897,116 L284.793103,116 C283.672414,116.1875 283,116.75 283,117.5 Z" id="Shape"></path>
            <path d="M298,127.5 C298,126.75 297.242991,126 295.981308,126 L273.018692,126 C272.009346,126 271,126.5625 271,127.5 C271,128.4375 271.757009,129 273.018692,129 L295.981308,129 C297.242991,129 298,128.25 298,127.5 Z" id="Shape"></path>
            <path d="M257.73913,126 C256.869565,126 256,126.5625 256,127.5 C256,128.4375 256.652174,129 257.73913,129 L264.26087,129 C265.130435,129 266,128.4375 266,127.5 C266,126.5625 265.347826,126 264.26087,126 L257.73913,126 Z" id="Shape"></path>
            <path d="M209.204082,273 L179.795918,273 C178.897959,273 178,273.5625 178,274.5 C178,275.4375 178.673469,276 179.795918,276 L209.204082,276 C210.102041,276 211,275.4375 211,274.5 C211,273.5625 210.102041,273 209.204082,273 Z" id="Shape"></path>
            <path d="M169.206897,273 L159.793103,273 C158.896552,273 158,273.5625 158,274.5 C158,275.4375 158.672414,276 159.793103,276 L169.206897,276 C170.103448,276 171,275.4375 171,274.5 C171,273.5625 170.103448,273 169.206897,273 Z" id="Shape"></path>
            <path d="M158,260.5 C158,261.25 158.757009,262 160.018692,262 L182.981308,262 C183.990654,262 185,261.4375 185,260.5 C185,259.75 184.242991,259 182.981308,259 L160.018692,259 C158.757009,259.1875 158,259.75 158,260.5 Z" id="Shape"></path>
            <path d="M189.73913,262 L196.26087,262 C197.130435,262 198,261.4375 198,260.5 C198,259.75 197.347826,259 196.26087,259 L189.73913,259 C188.869565,259 188,259.5625 188,260.5 C188.217391,261.25 188.869565,262 189.73913,262 Z" id="Shape"></path>
            <path d="M125.801061,238.206536 C126.981432,236.786928 127.689655,234.657516 127.689655,232.764706 C127.689655,227.796078 123.676393,223.773856 118.718833,223.773856 L98.8885942,223.773856 C100.068966,222.354248 100.777188,220.224837 100.777188,218.332026 C100.777188,214.546405 98.4164456,211.233987 95.1114058,209.814379 L95.1114058,186.864052 L106.206897,186.864052 L165.697613,218.332026 C167.822281,219.515033 170.183024,219.988235 172.307692,219.988235 L184.111406,219.988235 C185.055703,219.988235 186,219.278431 186,218.095425 L186,106.89281 C186,105.946405 185.291777,105 184.111406,105 L172.543767,105 C170.183024,105 167.822281,105.473203 165.933687,106.656209 L106.206897,137.414379 L57.8116711,137.177778 L57.8116711,137.177778 C44.3554377,137.177778 33.2599469,148.298039 33.2599469,161.784314 C33.2599469,175.270588 44.1193634,186.39085 57.8116711,186.627451 L69.3793103,186.627451 L69.3793103,209.104575 C63.4774536,209.814379 58.0477454,213.126797 54.5066313,218.095425 C52.1458886,221.407843 48.132626,223.537255 44.1193634,223.537255 L40.1061008,223.537255 C39.8700265,223.300654 39.6339523,222.827451 39.397878,222.59085 C37.9814324,221.171242 35.8567639,220.461438 33.7320955,220.698039 C28.3023873,220.934641 22.6366048,221.171242 17.2068966,221.407843 C16.2625995,221.407843 15.5543767,222.354248 15.5543767,223.300654 C15.5543767,224.247059 16.4986737,224.956863 17.4429708,224.956863 C22.872679,224.956863 28.5384615,224.720261 34.204244,224.247059 C35.3846154,224.247059 36.5649867,224.48366 37.2732095,225.193464 C37.7453581,225.666667 38.2175066,226.139869 38.2175066,227.086275 L38.2175066,271.56732 C38.2175066,272.513725 37.7453581,273.223529 37.2732095,273.460131 C36.5649867,274.169935 35.3846154,274.406536 34.204244,274.406536 C26.1777188,273.933333 17.9151194,273.696732 9.88859416,273.696732 C8.94429708,273.696732 8,274.406536 8,275.589542 C8,276.535948 8.70822281,277.482353 9.88859416,277.482353 L9.88859416,277.482353 C17.9151194,277.482353 25.9416446,277.718954 33.9681698,278.192157 L34.4403183,278.192157 C36.3289125,278.192157 37.9814324,277.482353 39.397878,276.299346 L39.6339523,276.299346 C41.0503979,276.299346 45.535809,276.772549 48.132626,278.192157 C48.8408488,278.665359 49.5490716,278.901961 50.2572944,279.375163 C53.3262599,281.267974 57.1034483,283.397386 64.1856764,285.053595 C67.4907162,285.763399 72.4482759,286 77.1697613,286 C83.5437666,286 89.4456233,285.526797 90.1538462,285.526797 L107.151194,285.526797 C112.108753,285.526797 116.122016,281.504575 116.122016,276.535948 C116.122016,274.406536 115.413793,272.513725 114.233422,271.094118 L119.899204,271.094118 C124.856764,271.094118 128.870027,267.071895 128.870027,262.103268 C128.870027,259.973856 128.161804,258.081046 126.981432,256.424837 C131.466844,255.951634 135.007958,252.166013 135.007958,247.433987 C134.535809,242.228758 130.522546,238.206536 125.801061,238.206536 Z M36.801061,162.020915 C36.801061,150.427451 46.2440318,140.963399 57.8116711,140.963399 L57.8116711,140.963399 L106.679045,141.2 L106.679045,141.2 C106.915119,141.2 107.151194,141.2 107.387268,140.963399 L167.350133,109.968627 C169.002653,109.258824 170.655172,108.785621 172.307692,108.785621 L181.986737,108.785621 L181.986737,216.439216 L172.071618,216.439216 C170.419098,216.439216 168.530504,215.966013 167.114058,215.256209 L107.387268,183.551634 C107.151194,183.315033 106.915119,183.315033 106.442971,183.315033 L93.4588859,183.315033 L93.2228117,183.315033 L71.0318302,183.315033 L71.0318302,183.315033 L57.8116711,183.315033 C46.2440318,183.078431 36.801061,173.614379 36.801061,162.020915 Z M91.3342175,186.864052 L91.3342175,209.104575 L72.6843501,209.104575 L72.6843501,186.864052 L91.3342175,186.864052 Z M125.564987,252.639216 L119.66313,252.639216 L100.068966,252.639216 L94.1671088,252.639216 C93.2228117,252.639216 92.2785146,253.34902 92.2785146,254.532026 C92.2785146,255.478431 92.9867374,256.424837 94.1671088,256.424837 L100.068966,256.424837 L119.427056,256.424837 C122.496021,256.424837 124.856764,258.79085 124.856764,261.866667 C124.856764,264.942484 122.496021,267.308497 119.427056,267.308497 L106.679045,267.308497 L93.9310345,267.308497 L89.2095491,267.308497 C88.265252,267.308497 87.3209549,268.018301 87.3209549,269.201307 C87.3209549,270.147712 88.0291777,271.094118 89.2095491,271.094118 L93.9310345,271.094118 L106.679045,271.094118 C109.748011,271.094118 112.108753,273.460131 112.108753,276.535948 C112.108753,279.611765 109.748011,281.977778 106.679045,281.977778 L89.4456233,281.977778 L89.2095491,281.977778 C86.6127321,282.214379 71.5039788,283.160784 64.6578249,281.504575 C58.0477454,280.084967 54.7427056,277.955556 51.6737401,276.299346 C50.9655172,275.826144 50.2572944,275.352941 49.5490716,275.11634 C46.9522546,273.696732 43.1750663,272.986928 41.0503979,272.986928 C41.0503979,272.513725 41.2864721,272.040523 41.2864721,271.803922 L41.2864721,227.086275 L41.2864721,227.086275 L44.1193634,227.086275 C49.3129973,227.086275 54.5066313,224.48366 57.3395225,220.224837 C60.6445623,215.49281 66.0742706,212.653595 71.9761273,212.653595 L91.0981432,212.653595 L91.5702918,212.653595 C94.6392573,212.653595 97,215.019608 97,218.095425 C97,221.171242 94.6392573,223.537255 91.5702918,223.537255 L80.2387268,223.537255 C79.2944297,223.537255 78.3501326,224.247059 78.3501326,225.430065 C78.3501326,226.613072 79.0583554,227.322876 80.2387268,227.322876 L91.5702918,227.322876 L92.7506631,227.322876 L93.2228117,227.322876 L118.482759,227.322876 C121.551724,227.322876 123.912467,229.688889 123.912467,232.764706 C123.912467,235.840523 121.551724,238.206536 118.482759,238.206536 L100.068966,238.206536 L93.2228117,238.206536 C92.2785146,238.206536 91.3342175,238.91634 91.3342175,240.099346 C91.3342175,241.282353 92.0424403,241.992157 93.2228117,241.992157 L100.068966,241.992157 L118.482759,241.992157 L125.328912,241.992157 C128.397878,241.992157 130.758621,244.35817 130.758621,247.433987 C130.994695,250.273203 128.633952,252.639216 125.564987,252.639216 Z" id="Shape"></path>
            <path d="M199.769231,114 L219.230769,114 C220.115385,114 221,113.4375 221,112.5 C221,111.75 220.336538,111 219.230769,111 L199.769231,111 C198.884615,111 198,111.5625 198,112.5 C198.221154,113.4375 198.884615,114 199.769231,114 Z" id="Shape"></path>
            <path d="M199.868613,138 L228.131387,138 C229.065693,138 230,137.4375 230,136.5 C230,135.5625 229.29927,135 228.131387,135 L199.868613,135 C198.934307,135 198,135.5625 198,136.5 C198,137.4375 198.934307,138 199.868613,138 Z" id="Shape"></path>
            <path d="M199.795918,161 L229.204082,161 C230.102041,161 231,160.4375 231,159.5 C231,158.75 230.326531,158 229.204082,158 L199.795918,158 C198.897959,158 198,158.5625 198,159.5 C198.22449,160.4375 198.897959,161 199.795918,161 Z" id="Shape"></path>
            <path d="M199.868613,184 L228.131387,184 C229.065693,184 230,183.4375 230,182.5 C230,181.75 229.29927,181 228.131387,181 L199.868613,181 C198.934307,181 198,181.5625 198,182.5 C198.233577,183.4375 198.934307,184 199.868613,184 Z" id="Shape"></path>
            <path d="M219.230769,205 L199.769231,205 C198.884615,205 198,205.5625 198,206.5 C198,207.25 198.663462,208 199.769231,208 L219.230769,208 C220.115385,208 221,207.4375 221,206.5 C221,205.5625 220.336538,205 219.230769,205 Z" id="Shape"></path>
            <path d="M122.898305,148 C123.135593,148 123.372881,148 123.610169,147.767677 L162.050847,128.252525 C163,127.787879 163.237288,126.858586 162.762712,125.929293 C162.288136,125 161.338983,124.767677 160.389831,125.232323 L121.949153,144.747475 C121,145.212121 120.762712,146.141414 121.237288,147.070707 C121.711864,147.535354 122.423729,148 122.898305,148 Z" id="Shape"></path>
            <path d="M30,263.040816 L30,254.959184 C30,253.979592 29.4375,253 28.5,253 C27.75,253 27,253.734694 27,254.959184 L27,263.040816 C27,264.020408 27.5625,265 28.5,265 C29.25,265 30,264.020408 30,263.040816 Z" id="Shape"></path>
            <path d="M245.071504,78.5583431 C248.174554,79.5194477 251.277603,80 254.619348,80 C260.109358,80 265.599368,78.5583431 270.611986,75.9153055 C278.488957,71.5903349 284.217664,64.3820505 286.604625,55.9723854 C289.230282,47.3224441 288.036801,38.1919506 283.978968,30.5031139 C279.682438,22.5740011 272.521555,16.8073736 264.167192,14.4046121 C255.574132,11.7615745 246.503681,12.9629552 238.865406,17.0476497 C230.749739,20.892068 225.021032,28.1003524 222.395375,36.7502937 C219.769718,45.400235 220.963199,54.5307285 225.021032,62.2195652 C229.556258,70.148678 236.478445,75.9153055 245.071504,78.5583431 Z M225.975817,37.7113983 C228.124082,30.0225616 233.375396,23.7753818 240.297582,19.9309635 C244.832808,17.528202 249.60673,16.3268213 254.619348,16.3268213 C257.483701,16.3268213 260.348054,16.8073736 262.973711,17.528202 C270.611986,19.6906873 276.818085,24.9767625 280.637222,31.9447708 C284.45636,38.912779 285.411144,47.082168 283.024183,54.7710047 C280.875918,62.4598413 275.624604,68.7070211 268.702418,72.5514395 C261.780231,76.3958578 253.664564,77.3569624 246.026289,74.9542009 C238.388014,72.7917156 232.181915,67.5056404 228.362778,60.5376322 C224.54364,53.5696239 223.588856,45.400235 225.975817,37.7113983 Z" id="Shape"></path>
            <path d="M250.675624,69.2593521 C252.600429,69.7531174 254.525234,70 256.450039,70 C259.818447,70 263.186855,69.0124695 266.074062,67.5311736 C270.886074,64.8154646 274.254483,60.3715772 275.938687,55.1870418 C276.179287,54.1995113 275.698086,53.2119808 274.735684,52.9650981 L239.126796,42.1022621 C238.645595,41.8553795 238.164393,42.1022621 237.683192,42.3491448 C237.201991,42.5960274 236.96139,43.0897927 236.72079,43.3366753 C233.833583,54.4463939 239.848598,66.0498778 250.675624,69.2593521 Z M239.848598,46.2992669 L271.848477,55.9276898 C270.404873,59.6309293 267.758267,62.5935209 264.389858,64.3216994 C260.540249,66.5436431 255.968837,67.0374084 251.638027,65.8029952 C243.457606,63.3341688 238.404994,54.6932766 239.848598,46.2992669 Z" id="Shape"></path>
            <path d="M265.166667,37.510736 C269.716667,34.7691714 272.316667,39.5046011 272.75,40.0030674 C272.966667,40.5015337 273.616667,41 274.266667,41 C274.483333,41 274.916667,41 275.133333,40.7507669 C276,40.2523006 276.216667,39.0061349 275.783333,38.2584354 C274.266667,35.2676377 269.933333,30.7814411 263.866667,34.2707051 C263,34.7691714 262.783333,35.766104 263.216667,36.7630366 C263.433333,37.510736 264.516667,37.7599691 265.166667,37.510736 Z" id="Shape"></path>
            <path d="M243.166667,32.510736 C247.716667,29.7691714 250.316667,34.5046011 250.75,35.0030674 C250.966667,35.5015337 251.616667,36 252.266667,36 C252.483333,36 252.916667,36 253.133333,35.7507669 C254,35.2523006 254.216667,34.0061349 253.783333,33.2584354 C252.266667,30.2676377 247.933333,25.7814411 241.866667,29.2707051 C241,29.7691714 240.783333,30.766104 241.216667,31.7630366 C241.433333,32.7599691 242.516667,33.0092023 243.166667,32.510736 Z" id="Shape"></path>
            <path d="M83,2.03846154 L83,51.4145299 L83,51.6410256 L83,52.0940171 C83,52.3205128 83.2319202,52.3205128 83.2319202,52.3205128 C83.2319202,52.3205128 83.2319202,52.5470085 83.4638404,52.5470085 L83.4638404,52.5470085 C83.6957606,52.7735043 83.6957606,52.7735043 83.9276808,52.7735043 L83.9276808,52.7735043 C84.159601,52.7735043 84.3915212,53 84.6234414,53 L174.144638,53 C174.376559,53 174.608479,53 174.840399,52.7735043 L175.072319,52.7735043 C175.304239,52.7735043 175.304239,52.5470085 175.53616,52.5470085 L175.53616,52.5470085 C175.53616,52.5470085 175.53616,52.3205128 175.76808,52.3205128 L176,52.0940171 L176,51.6410256 L176,51.4145299 L176,2.03846154 C176,2.03846154 176,2.03846154 176,1.81196581 L176,1.81196581 L176,1.81196581 C176,1.58547009 176,1.35897436 175.76808,1.13247863 C175.76808,1.13247863 175.76808,1.13247863 175.76808,0.905982906 C175.76808,0.679487179 175.76808,0.679487179 175.53616,0.452991453 L175.53616,0.452991453 C175.53616,0.452991453 175.53616,0.452991453 175.304239,0.226495726 C175.072319,0.226495726 175.072319,0 174.840399,0 L174.608479,0 L174.144638,0 L174.144638,0 L174.144638,0 L84.6234414,0 L84.6234414,0 L84.6234414,0 L84.159601,0 L83.9276808,0 C83.6957606,0 83.6957606,0.226495726 83.4638404,0.226495726 C83.4638404,0.226495726 83.4638404,0.226495726 83.2319202,0.452991453 L83.2319202,0.452991453 C83.2319202,0.452991453 83,0.679487179 83,0.905982906 C83,0.905982906 83,0.905982906 83,1.13247863 C83,1.58547009 83,1.58547009 83,2.03846154 C83,1.81196581 83,1.81196581 83,2.03846154 L83,2.03846154 L83,2.03846154 Z M86.478803,5.66239316 L110.830424,26.2735043 L86.478803,47.7905983 L86.478803,5.66239316 Z M113.613466,28.5384615 L126.369077,39.4102564 C127.296758,40.0897436 128.456359,40.542735 129.61596,40.542735 C130.775561,40.542735 131.935162,40.0897436 132.862843,39.4102564 L145.618454,28.5384615 L169.970075,49.8290598 L89.2618454,49.8290598 L113.613466,28.5384615 Z M148.169576,26.2735043 L172.521197,5.66239316 L172.521197,47.7905983 L148.169576,26.2735043 Z M130.311721,36.6923077 C129.84788,37.1452991 129.15212,37.1452991 128.456359,36.6923077 L89.4937656,3.62393162 L169.738155,3.62393162 L130.311721,36.6923077 Z" id="Shape"></path>
            <path d="M11.6725352,100.445312 C14.0316901,100.445312 15.9190141,99.4765625 17.5704225,98.265625 L32.9049296,108.4375 C32.4330986,109.648438 32.1971831,110.859375 32.1971831,112.070312 C32.1971831,117.640625 36.443662,122 41.8697183,122 C47.2957746,122 51.5422535,117.640625 51.5422535,112.070312 C51.5422535,106.5 47.2957746,102.140625 41.8697183,102.140625 C39.0387324,102.140625 36.6795775,103.351562 34.7922535,105.289062 L19.9295775,95.6015625 C20.6373239,94.1484375 21.3450704,92.453125 21.3450704,90.7578125 C21.3450704,89.546875 21.1091549,88.578125 20.8732394,87.609375 L51.778169,76.2265625 C53.665493,78.40625 56.2605634,79.859375 59.3274648,79.859375 C64.7535211,79.859375 69,75.5 69,69.9296875 C69,64.359375 64.7535211,60 59.3274648,60 C53.9014085,60 49.6549296,64.359375 49.6549296,69.9296875 C49.6549296,70.8984375 49.8908451,71.8671875 50.1267606,72.8359375 L18.9859155,83.9765625 C17.0985915,81.796875 14.5035211,80.5859375 11.6725352,80.5859375 C6.24647887,80.5859375 2,84.9453125 2,90.515625 C2,95.84375 6.24647887,100.445312 11.6725352,100.445312 Z M41.8697183,105.773438 C45.1725352,105.773438 48.0035211,108.679688 48.0035211,112.070312 C48.0035211,115.460938 45.1725352,118.367188 41.8697183,118.367188 C38.5669014,118.367188 35.7359155,115.460938 35.7359155,112.070312 C35.7359155,108.4375 38.5669014,105.773438 41.8697183,105.773438 Z M59.0915493,63.390625 C62.3943662,63.390625 65.2253521,66.296875 65.2253521,69.6875 C65.2253521,73.078125 62.3943662,75.984375 59.0915493,75.984375 C55.7887324,75.984375 52.9577465,73.078125 52.9577465,69.6875 C52.9577465,66.296875 55.7887324,63.390625 59.0915493,63.390625 Z M11.6725352,84.21875 C14.9753521,84.21875 17.806338,87.125 17.806338,90.515625 C17.806338,93.90625 14.9753521,96.8125 11.6725352,96.8125 C8.36971831,96.8125 5.53873239,93.90625 5.53873239,90.515625 C5.53873239,87.125 8.13380282,84.21875 11.6725352,84.21875 Z" id="Shape"></path>
            <path d="M296.441224,228.895766 C292.457738,220.128726 285.193735,213.494209 276.055149,210.176951 C266.916564,206.859692 257.309333,207.333586 248.639394,211.598633 C239.969454,215.626732 233.408418,222.97209 230.1279,232.213024 C224.269833,248.799316 230.830868,267.044238 245.827521,275.811278 C245.827521,276.996013 244.89023,280.313271 243.484294,283.393583 C243.249972,283.867477 243.249972,284.341371 243.484294,284.815265 C243.718617,285.289159 243.95294,285.526106 244.421585,285.763053 C244.655908,285.763053 244.89023,286 245.358876,286 C246.764812,286 248.639394,285.052212 252.388557,282.682742 C254.028816,281.734953 256.13772,280.313271 257.075011,280.076324 C274.41489,283.63053 291.989093,273.678755 297.84716,256.855515 C301.127678,247.614581 300.659033,237.662806 296.441224,228.895766 Z M294.566642,255.433833 C289.17722,270.598443 273.243277,279.60243 257.543656,276.522119 C256.13772,276.285172 254.731784,276.996013 250.513975,279.365483 C249.811007,279.839377 249.108039,280.313271 248.170748,280.787165 C250.279652,274.152649 248.639394,273.20486 247.936425,272.967913 C234.111386,265.148661 228.018996,248.562369 233.408418,233.39776 C236.454613,225.104614 242.312681,218.470097 250.04533,214.915891 C254.497461,212.783368 259.183915,211.83558 263.870369,211.83558 C267.619532,211.83558 271.368695,212.546421 274.883536,213.731156 C283.08483,216.811468 289.645866,222.735143 293.160706,230.554395 C296.909869,238.373647 297.378515,247.140687 294.566642,255.433833 Z" id="Shape"></path>
            <path d="M287.038929,245.567349 L248.596107,226.197392 C247.635036,225.707014 246.673966,226.197392 246.19343,226.93296 C245.712895,227.913718 246.19343,228.894475 246.914233,229.384854 L285.357056,248.754811 C285.597324,249 285.837591,249 286.077859,249 C286.798662,249 287.279197,248.509621 287.759732,248.019243 C288.240268,247.038485 288,245.812539 287.038929,245.567349 Z" id="Shape"></path>
            <path d="M278.934852,258.567349 L240.589523,239.197392 C239.63089,238.707014 238.672256,239.197392 238.19294,239.93296 C237.713623,240.913718 238.19294,241.894475 238.911915,242.384854 L277.257244,261.754811 C277.496902,262 277.73656,262 277.976219,262 C278.695194,262 279.17451,261.509621 279.653827,261.019243 C280.372802,260.038485 279.893485,259.057728 278.934852,258.567349 Z" id="Shape"></path>
        </g>
    </g>
</svg>
