<?xml version="1.0" encoding="UTF-8"?>
<svg viewBox="0 0 384 351" version="1.1" xmlns="http://www.w3.org/2000/svg" xmlns:xlink="http://www.w3.org/1999/xlink">
    <!-- Generator: Sketch 41.2 (35397) - http://www.bohemiancoding.com/sketch -->
    <title>Group</title>
    <desc>Created with Sketch.</desc>
    <defs></defs>
    <g id="Page-1" stroke="none" stroke-width="1" fill="none" fill-rule="evenodd">
        <g id="Group" transform="translate(1.000000, 1.000000)" stroke="#98F3D7" stroke-width="2">
            <path d="M25,131 C26.1428571,131 27,130.091743 27,128.880734 L27,100.119266 C27,98.9082569 26.1428571,98 25,98 C23.8571429,98 23,98.9082569 23,100.119266 L23,128.880734 C23,130.091743 23.8571429,131 25,131 Z" id="Shape"></path>
            <path d="M25,154 C26.1428571,154 27,153.0625 27,151.8125 L27,141.1875 C27,139.9375 26.1428571,139 25,139 C23.8571429,139 23,139.9375 23,141.1875 L23,151.8125 C23,152.75 23.8571429,154 25,154 Z" id="Shape"></path>
            <path d="M158.5,46 C164.888889,46 170,41.3333333 170,35.5 C170,29.6666667 164.888889,25 158.5,25 C152.111111,25 147,29.6666667 147,35.5 C147,41.3333333 152.111111,46 158.5,46 Z M158.5,29.0833333 C162.333333,29.0833333 165.527778,32 165.527778,35.5 C165.527778,39 162.333333,41.9166667 158.5,41.9166667 C154.666667,41.9166667 151.472222,39 151.472222,35.5 C151.472222,32 154.666667,29.0833333 158.5,29.0833333 Z" id="Shape"></path>
            <path d="M140.492908,324 C134.107959,324 129,328.666667 129,334.5 C129,340.333333 134.107959,345 140.492908,345 C146.877857,345 151.985817,340.333333 151.985817,334.5 C152.305064,328.958333 147.197105,324 140.492908,324 Z M140.492908,341.208333 C136.661939,341.208333 133.469464,338.291667 133.469464,334.791667 C133.469464,331.291667 136.661939,328.375 140.492908,328.375 C144.323878,328.375 147.516352,331.291667 147.516352,334.791667 C147.516352,338.291667 144.323878,341.208333 140.492908,341.208333 Z" id="Shape"></path>
            <path d="M56,27.0219587 C56,28.152268 56.8796992,29 58.0526316,29 L92.9473684,29 C94.1203008,29 95,28.152268 95,27.0219587 C95,25.8916494 94.1203008,25.0439175 92.9473684,25.0439175 L58.0526316,25.0439175 C56.8796992,24.7613401 56,25.8916494 56,27.0219587 Z" id="Shape"></path>
            <path d="M35.6066886,29 L49.4499293,29 C50.9071126,29 52,28.1428571 52,27 C52,25.8571429 50.9071126,25 49.4499293,25 L35.6066886,25 C34.1495054,25 33.056618,25.8571429 33.056618,27 C32.6923221,28.1428571 34.1495054,29 35.6066886,29 Z" id="Shape"></path>
            <path d="M35.2831248,19 L61.7664653,19 C63.0427708,19 64,18.1428571 64,17 C64,15.8571429 63.0427708,15 61.7664653,15 L35.2831248,15 C34.0068192,15 33.0495901,15.8571429 33.0495901,17 C32.7305137,17.8571429 34.0068192,19 35.2831248,19 Z" id="Shape"></path>
            <path d="M72.3909066,19 L77.6393043,19 C78.4168447,19 79,18.1428571 79,17 C79,15.8571429 78.4168447,15 77.6393043,15 L72.3909066,15 C71.6133662,15 71.0302109,15.8571429 71.0302109,17 C70.8358258,17.8571429 71.6133662,19 72.3909066,19 Z" id="Shape"></path>
            <path d="M357,332 C357,330.857143 356.120301,330 354.947368,330 L320.052632,330 C318.879699,330 318,330.857143 318,332 C318,333.142857 318.879699,334 320.052632,334 L354.654135,334 C355.827068,334 357,333.142857 357,332 Z" id="Shape"></path>
            <path d="M363,332.021959 C363,333.152268 364.096154,334 365.557692,334 L379.442308,334 C380.903846,334 382,333.152268 382,332.021959 C382,330.891649 380.903846,330.043917 379.442308,330.043917 L365.557692,330.043917 C364.096154,329.76134 363,330.891649 363,332.021959 Z" id="Shape"></path>
            <path d="M379.762887,345 L353.237113,345 C351.958763,345 351,345.857143 351,347 C351,348.142857 351.958763,349 353.237113,349 L379.762887,349 C381.041237,349 382,348.142857 382,347 C382,345.857143 381.041237,345 379.762887,345 Z" id="Shape"></path>
            <path d="M338.634146,345 L333.365854,345 C332.585366,345 332,345.857143 332,347 C332,348.142857 332.585366,349 333.365854,349 L338.634146,349 C339.414634,349 340,348.142857 340,347 C340,345.857143 339.414634,345 338.634146,345 Z" id="Shape"></path>
            <path d="M348.590164,24.6033058 C348.786885,24.8016529 349.180328,25 349.57377,25 C349.967213,25 350.360656,24.8016529 350.557377,24.6033058 C351.147541,24.0082645 351.147541,23.0165289 350.557377,22.6198347 L347.409836,19.446281 C346.819672,18.8512397 345.836066,18.8512397 345.442623,19.446281 C344.852459,20.0413223 344.852459,21.0330579 345.442623,21.4297521 L348.590164,24.6033058 Z" id="Shape"></path>
            <path d="M362.590164,38.6033058 C362.786885,38.8016529 363.180328,39 363.57377,39 C363.967213,39 364.360656,38.8016529 364.557377,38.6033058 C365.147541,38.0082645 365.147541,37.0165289 364.557377,36.6198347 L361.409836,33.446281 C360.819672,32.8512397 359.836066,32.8512397 359.442623,33.446281 C358.852459,34.0413223 358.852459,35.0330579 359.442623,35.4297521 L362.590164,38.6033058 Z" id="Shape"></path>
            <path d="M346.42623,39 C346.819672,39 347.213115,38.8016529 347.409836,38.6033058 L350.557377,35.4297521 C351.147541,34.8347107 351.147541,33.8429752 350.557377,33.446281 C349.967213,32.8512397 348.983607,32.8512397 348.590164,33.446281 L345.442623,36.6198347 C344.852459,37.214876 344.852459,38.2066116 345.442623,38.6033058 C345.639344,39 346.032787,39 346.42623,39 Z" id="Shape"></path>
            <path d="M360.42623,25 C360.819672,25 361.213115,24.8016529 361.409836,24.6033058 L364.557377,21.4297521 C365.147541,20.8347107 365.147541,19.8429752 364.557377,19.446281 C363.967213,18.8512397 362.983607,18.8512397 362.590164,19.446281 L359.442623,22.6198347 C358.852459,23.214876 358.852459,24.2066116 359.442623,24.6033058 C359.639344,24.8016529 360.032787,25 360.42623,25 Z" id="Shape"></path>
            <path d="M264.367363,316.446281 C263.770217,315.85124 262.774974,315.85124 262.376877,316.446281 C261.97878,317.041322 261.779731,318.033058 262.376877,318.429752 L265.561655,321.603306 C265.760703,321.801653 266.1588,322 266.556898,322 C266.954995,322 267.353092,321.801653 267.552141,321.603306 C268.149286,321.008264 268.149286,320.016529 267.552141,319.619835 L264.367363,316.446281 Z" id="Shape"></path>
            <path d="M280.409836,328.446281 C279.819672,327.85124 278.836066,327.85124 278.442623,328.446281 C277.852459,329.041322 277.852459,330.033058 278.442623,330.429752 L281.590164,333.603306 C281.786885,333.801653 282.180328,334 282.57377,334 C282.967213,334 283.360656,333.801653 283.557377,333.603306 C284.147541,333.008264 284.147541,332.016529 283.557377,331.619835 L280.409836,328.446281 Z" id="Shape"></path>
            <path d="M265.590164,328.380029 L262.442623,331.591441 C261.852459,332.193581 261.852459,333.197147 262.442623,333.598573 C262.639344,333.799287 263.032787,334 263.42623,334 C263.819672,334 264.213115,333.799287 264.409836,333.598573 L267.557377,330.387161 C268.147541,329.785022 268.147541,328.781455 267.557377,328.380029 C266.967213,327.978602 266.180328,327.777889 265.590164,328.380029 Z" id="Shape"></path>
            <path d="M281.590164,316.305085 L278.442623,319.559322 C277.852459,320.169492 277.852459,321.186441 278.442623,321.59322 C278.639344,321.79661 279.032787,322 279.42623,322 C279.819672,322 280.213115,321.79661 280.409836,321.59322 L283.557377,318.338983 C284.147541,317.728814 284.147541,316.711864 283.557377,316.305085 C282.967213,315.898305 282.180328,315.898305 281.590164,316.305085 Z" id="Shape"></path>
            <path d="M2.40983607,326.446281 C1.81967213,325.85124 0.836065574,325.85124 0.442622951,326.446281 C-0.147540984,327.041322 -0.147540984,328.033058 0.442622951,328.429752 L3.59016393,331.603306 C3.78688525,331.801653 4.18032787,332 4.57377049,332 C4.96721311,332 5.36065574,331.801653 5.55737705,331.603306 C6.14754098,331.008264 6.14754098,330.016529 5.55737705,329.619835 L2.40983607,326.446281 Z" id="Shape"></path>
            <path d="M21.4098361,343.446281 C20.8196721,342.85124 19.8360656,342.85124 19.442623,343.446281 C18.852459,344.041322 18.852459,345.033058 19.442623,345.429752 L22.5901639,348.603306 C22.7868852,348.801653 23.1803279,349 23.5737705,349 C23.9672131,349 24.3606557,348.801653 24.557377,348.603306 C25.147541,348.008264 25.147541,347.016529 24.557377,346.619835 L21.4098361,343.446281 Z" id="Shape"></path>
            <path d="M3.59016393,343.380029 L0.442622951,346.591441 C-0.147540984,347.193581 -0.147540984,348.197147 0.442622951,348.598573 C0.639344262,348.799287 1.03278689,349 1.42622951,349 C1.81967213,349 2.21311475,348.799287 2.40983607,348.598573 L5.55737705,345.387161 C6.14754098,344.785022 6.14754098,343.781455 5.55737705,343.380029 C4.96721311,342.978602 4.18032787,342.777889 3.59016393,343.380029 Z" id="Shape"></path>
            <path d="M22.5901639,326.446281 L19.442623,329.619835 C18.852459,330.214876 18.852459,331.206612 19.442623,331.603306 C19.6393443,331.801653 20.0327869,332 20.4262295,332 C20.8196721,332 21.2131148,331.801653 21.4098361,331.603306 L24.557377,328.429752 C25.147541,327.834711 25.147541,326.842975 24.557377,326.446281 C24.1639344,325.85124 23.1803279,325.85124 22.5901639,326.446281 Z" id="Shape"></path>
            <path d="M353.589621,286.3225 C361.039832,286.3225 367,280.2975 367,272.76625 C367,271.26 366.701992,270.055 366.403983,268.85 L365.807966,266.74125 C364.913941,264.33125 364.317924,261.62 363.423899,259.21 C363.125891,258.005 362.827882,257.10125 362.231865,256.1975 C360.145807,251.07625 357.165722,246.5575 353.291613,242.64125 C350.311529,239.93 347.033436,237.52 343.457335,235.7125 C338.689201,233.3025 333.325049,231.79625 327.66289,231.19375 C324.682805,230.8925 321.404713,230.8925 318.424629,231.19375 C313.656494,231.495 309.186368,231.79625 304.418233,232.0975 C302.928191,228.78375 298.756073,218.24 304.716242,203.1775 L304.716242,202.575 C320.808696,206.19 333.027041,199.5625 333.623058,199.26125 C334.219075,198.96 334.517083,198.65875 334.517083,198.05625 L338.391192,185.1025 L338.391192,184.80125 C338.689201,181.78875 347.629453,113.405 304.120225,92.61875 C260.610997,71.8325 232.598206,103.46375 232.300197,103.46375 C199.221264,138.1075 217.399777,195.345 218.293802,197.755 C218.293802,198.05625 218.59181,198.65875 219.187827,198.96 C224.551979,203.1775 232.598206,204.08125 239.750408,204.08125 C242.432483,204.08125 245.114559,203.78 247.498627,203.78 C252.56477,218.54125 248.988669,228.78375 247.200618,232.0975 C242.730492,231.79625 238.260366,231.495 233.79024,231.495 C218.889819,230.29 205.47944,235.41125 197.135205,245.05125 C191.473045,242.34 185.214868,240.5325 178.658683,239.93 C175.082582,239.62875 171.208473,239.62875 167.334363,239.93 C161.970212,240.23125 156.308052,240.5325 150.049876,240.83375 L150.049876,240.83375 C148.261825,237.21875 143.195682,223.96375 150.049876,205.5875 C158.394111,198.05625 164.950296,187.5125 169.420422,174.86 C175.976607,175.16125 181.04275,165.52125 181.04275,152.86875 C181.04275,142.325 177.764658,133.89 172.996523,131.48 L172.996523,130.8775 C173.890549,123.94875 174.784574,116.71875 175.082582,109.79 C177.168641,79.0625 169.122414,75.14625 153.625977,70.32625 C152.433943,70.025 151.241909,69.4225 150.049876,69.12125 C137.533522,65.205 124.71916,64.30125 116.076917,64 C107.434673,64 94.6203108,64.90375 82.1039575,69.12125 C80.9119238,69.4225 79.7198902,70.025 78.5278565,70.32625 C63.0314191,75.14625 54.9851919,79.0625 57.0712508,109.79 C57.3692592,117.02 58.2632845,123.94875 59.1573097,130.8775 L59.1573097,131.17875 L59.1573097,131.17875 C54.3891751,133.58875 51.1110826,142.02375 51.1110826,152.5675 C51.1110826,165.52125 56.1772256,174.86 62.7334106,174.55875 C66.3095116,185.1025 71.3756546,194.14 77.9318397,201.37 L77.9318397,202.27375 C86.2760752,224.265 77.6338313,239.3275 77.3358229,239.62875 C77.0378145,239.93 77.0378145,240.23125 77.0378145,240.5325 C72.8656967,240.23125 68.6935789,240.23125 64.5214611,239.93 C38.2967208,237.82125 17.7341403,250.775 10.8799468,273.36875 C9.9859216,276.08 9.09189636,278.79125 8.49587954,281.5025 L6.70782906,284.515 C5.217787,289.335 6.11181223,294.45625 9.09189636,298.67375 C12.0719805,302.89125 16.8401151,305 21.6082497,305 L209.35355,305 C217.995794,305 225.147996,297.77 225.147996,289.03375 C225.147996,288.13 224.849987,286.925 224.849987,285.72 L353.589621,285.72 L353.589621,286.3225 Z M222.167911,195.64625 C220.081853,189.01875 205.777449,137.20375 235.876298,106.47625 C237.068332,105.27125 262.101039,76.95375 302.332174,96.535 C341.967293,115.51375 334.517083,180.2825 334.219075,183.8975 L330.642974,195.9475 C327.364881,197.45375 314.550519,202.575 299.35209,196.55 C314.252511,182.6925 316.934587,162.50875 316.934587,161.30375 C316.934587,160.4 316.636578,159.49625 316.040561,159.195 C294.881964,145.94 290.411838,113.10375 290.411838,112.50125 C290.411838,111.5975 289.517813,110.995 288.623787,110.69375 C287.729762,110.3925 286.835737,110.69375 286.23972,111.5975 C268.061207,138.40875 246.604601,133.2875 244.518542,132.685 C240.346425,130.57625 236.770324,129.97375 234.088248,131.48 C231.108164,132.98625 229.91613,135.99875 229.618122,137.80625 C228.426088,155.27875 232.598206,160.70125 234.684265,162.50875 C239.154391,178.77625 245.710576,190.82625 253.756803,198.3575 C249.882694,198.96 231.704181,201.9725 222.167911,195.64625 Z M238.856383,160.4 C238.558374,159.7975 238.260366,159.195 237.664349,158.89375 C237.664349,158.89375 232.896214,155.88125 234.088248,138.1075 C234.088248,138.1075 234.386256,135.99875 236.174307,135.095 C236.770324,134.79375 237.068332,134.79375 237.664349,134.79375 C239.154391,134.79375 240.644433,135.39625 242.730492,136.3 C242.730492,136.3 243.0285,136.3 243.0285,136.60125 C243.326509,136.60125 266.869173,143.83125 286.835737,118.225 C288.921796,128.16625 295.477981,150.45875 312.46446,161.90625 C311.272427,168.2325 305.01425,194.44125 280.57756,202.575 C280.57756,202.575 272.829342,204.985 263.591081,199.86375 C252.862778,194.14 244.220534,180.2825 238.856383,160.4 Z M255.544854,202.27375 C256.14087,201.9725 256.736887,201.67125 257.034896,200.7675 C258.524938,201.9725 260.01498,202.87625 261.505022,203.47875 C267.167182,206.49125 272.233325,207.395 275.809426,207.395 C279.385527,207.395 281.769594,206.7925 281.769594,206.49125 C287.431754,204.68375 291.90188,201.9725 296.073998,198.96 C296.372006,199.26125 296.670015,199.5625 296.968023,199.86375 C298.160057,200.46625 299.35209,200.7675 300.842132,201.37 L300.842132,201.37 C293.093914,221.55375 301.140141,234.5075 301.438149,235.11 C296.968023,243.545 293.987939,247.16 290.11383,251.67875 C289.219804,252.5825 288.623787,253.48625 287.729762,254.39 C287.729762,254.39 287.431754,254.69125 287.431754,254.9925 C284.45167,258.6075 279.683535,260.71625 274.9154,260.71625 C270.147266,260.71625 265.67714,258.6075 262.697056,254.9925 C258.226929,249.57 254.054812,242.9425 250.180702,235.41125 C250.478711,234.80875 257.928921,222.15625 251.670744,203.1775 C253.756803,202.87625 255.246845,202.575 255.544854,202.27375 Z M233.194223,235.7125 C237.36634,236.01375 241.538458,236.315 245.710576,236.315 C249.882694,244.75 254.650828,251.98 259.418963,257.70375 C263.293072,262.2225 268.955232,264.93375 274.9154,264.93375 L274.9154,264.93375 C280.875569,264.93375 286.537729,262.2225 290.411838,257.70375 C290.411838,257.70375 290.709846,257.4025 291.007855,257.10125 C291.90188,256.1975 292.497897,255.29375 293.391922,254.39 C297.56404,249.57 300.842132,245.65375 305.610267,236.01375 C310.080393,235.7125 314.252511,235.7125 318.722637,235.41125 C321.702721,235.11 324.384797,235.11 327.364881,235.41125 C332.431024,236.01375 337.199159,237.21875 341.669285,239.3275 C344.947377,240.83375 347.927462,242.9425 350.311529,245.3525 C353.589621,248.66625 356.271697,252.5825 358.059748,257.4025 C358.357756,258.30625 358.655764,259.21 358.953773,260.11375 C359.847798,262.52375 360.443815,265.235 361.33784,267.645 L361.933857,269.75375 C362.231865,270.6575 362.231865,271.56125 362.231865,272.465 C362.231865,277.285 358.059748,281.5025 353.291613,281.5025 L223.657953,281.5025 C222.763928,278.49 221.869903,275.77875 220.975878,272.76625 C220.677869,271.56125 220.081853,270.35625 219.783844,269.15125 C217.399777,262.825 213.823676,257.4025 209.055541,252.88375 C207.863508,251.67875 206.671474,250.775 205.47944,249.87125 C205.181432,249.57 204.883423,249.57 204.585415,249.26875 C203.393381,248.365 202.201348,247.46125 200.711306,246.85875 L200.711306,246.85875 C208.459524,238.725 220.081853,234.80875 233.194223,235.7125 Z M146.771783,243.84625 C146.771783,244.1475 147.069791,244.1475 146.771783,243.84625 C141.407632,254.69125 137.831531,258.90875 133.063396,264.33125 C132.169371,265.235 131.275346,266.44 130.38132,267.34375 C130.083312,267.645 130.083312,267.645 129.785304,267.94625 C125.911194,272.465 120.249034,275.17625 114.586874,275.17625 L114.586874,275.17625 C108.626706,275.17625 103.262555,272.465 99.3884454,267.94625 C93.4282772,260.71625 87.7661173,251.98 82.6999743,241.43625 C82.4019659,240.83375 82.1039575,240.5325 81.5079406,240.5325 C83.2959911,237.21875 88.3621341,224.8675 83.8920079,207.09375 C93.1302687,214.625 104.15658,219.14375 115.778908,219.14375 C125.911194,219.14375 135.447463,215.83 143.791699,210.10625 C138.725556,230.59125 146.473775,243.24375 146.771783,243.84625 Z M60.9453602,109.1875 C59.1573097,80.56875 66.0115032,78.46 79.4218818,74.2425 C80.6139154,73.94125 81.8059491,73.33875 83.2959911,73.0375 C92.8322603,70.025 104.15658,68.2175 115.778908,68.2175 C127.699245,68.2175 139.023564,70.025 148.261825,73.0375 C149.453859,73.33875 150.943901,73.94125 152.135934,74.2425 C165.546313,78.46 172.400507,80.56875 170.612456,109.1875 C170.314448,112.50125 170.016439,115.51375 169.718431,118.8275 C167.334363,111.89875 163.460254,104.3675 157.202077,103.765 C147.069791,102.56 119.355009,102.86125 118.460984,102.86125 C108.030689,102.25875 73.7597219,101.05375 68.3955705,107.38 C66.0115032,110.3925 63.6274359,115.51375 62.1373938,120.33375 C61.541377,116.4175 61.2433686,112.8025 60.9453602,109.1875 Z M64.5214611,170.04 C64.2234527,170.04 63.9254443,169.73875 63.6274359,169.73875 C63.3294275,169.73875 63.0314191,169.73875 62.7334106,170.04 C62.4354022,170.34125 62.1373938,170.34125 61.8393854,170.34125 C58.8593013,170.34125 54.9851919,163.71375 54.9851919,152.5675 C54.9851919,142.9275 58.2632845,135.6975 61.2433686,135.095 C62.1373938,134.79375 62.7334106,134.19125 63.0314191,133.2875 L63.3294275,132.0825 L63.3294275,131.48 L63.3294275,131.48 C64.8194695,126.0575 68.0975621,114.61 71.673663,110.3925 C74.3557387,107.07875 97.8984033,106.47625 118.460984,107.38 C118.758992,107.38 146.771783,107.07875 156.904069,108.28375 C163.162246,108.88625 167.334363,123.6475 168.228389,132.685 L168.228389,132.98625 L168.228389,133.2875 C168.228389,134.19125 169.122414,134.79375 170.016439,135.095 C172.996523,135.6975 176.274616,142.9275 176.274616,152.5675 C176.274616,163.4125 172.400507,170.34125 169.420422,170.34125 C169.122414,170.34125 168.824406,170.34125 168.526397,170.04 C167.93038,169.73875 167.334363,169.73875 166.738347,170.04 C166.14233,170.34125 165.844321,170.6425 165.546313,171.245 C157.500086,197.755 137.831531,214.92625 115.4809,214.92625 C93.1302687,214.92625 73.7597219,197.755 65.4154864,171.245 C65.4154864,170.6425 65.1174779,170.34125 64.5214611,170.04 Z M209.35355,300.7825 L21.6082497,300.7825 C18.0321487,300.7825 14.7540562,298.975 12.3699889,296.26375 C10.28393,293.25125 9.68791319,289.63625 10.5819384,286.02125 L11.7739721,282.40625 C12.6679973,279.695 13.5620226,276.98375 14.1580394,274.2725 C20.1182076,254.9925 36.8066787,243.84625 58.2632845,243.84625 C59.7533265,243.84625 61.541377,243.84625 63.3294275,244.1475 C68.3955705,244.44875 73.4617135,244.75 78.8258649,245.05125 C83.8920079,255.29375 89.5541678,264.03 95.514336,271.26 C99.9844622,276.6825 106.838656,279.99625 113.990858,279.99625 C121.441068,279.99625 127.997253,276.98375 132.765388,271.26 C132.765388,271.26 132.765388,270.95875 133.063396,270.95875 C133.957421,269.75375 134.851447,268.85 135.745472,267.645 C140.811615,261.92125 144.685724,257.10125 150.943901,245.05125 C156.606061,244.75 161.970212,244.44875 167.036355,244.1475 C170.612456,243.84625 174.188557,243.84625 177.46665,244.1475 C183.724826,244.75 189.684994,246.5575 194.751137,248.9675 C195.049146,249.26875 195.347154,249.26875 195.943171,249.57 C199.519272,251.3775 202.499356,253.7875 205.47944,256.49875 C209.651558,260.71625 212.929651,265.53625 215.01571,271.26 C215.313718,272.465 215.909735,273.36875 216.207743,274.57375 C217.399777,277.8875 218.293802,281.20125 219.485836,284.81625 L219.485836,284.81625 L219.783844,286.02125 C220.081853,287.22625 220.379861,288.43125 220.379861,289.335 C220.677869,295.66125 215.611726,300.7825 209.35355,300.7825 Z" id="Shape"></path>
            <path d="M201.73494,61.0878661 L206.554217,61.0878661 L206.554217,70.5564854 C206.554217,71.4728033 207.156627,72.083682 207.759036,72.6945607 C208.060241,73 208.361446,73 208.662651,73 C209.26506,73 209.566265,72.6945607 209.86747,72.3891213 L224.024096,61.0878661 L284.26506,61.0878661 C289.084337,61.0878661 293,57.1171548 293,52.2301255 L293,8.85774059 C293,3.9707113 289.084337,0 284.26506,0 L201.73494,0 C196.915663,0 193,3.9707113 193,8.85774059 L193,52.2301255 C193,57.1171548 196.915663,61.0878661 201.73494,61.0878661 Z M197.216867,8.85774059 C197.216867,6.41422594 199.325301,4.27615063 201.73494,4.27615063 L284.86747,4.27615063 C287.277108,4.27615063 289.385542,6.41422594 289.385542,8.85774059 L289.385542,52.2301255 C289.385542,54.6736402 287.277108,56.8117155 284.86747,56.8117155 L223.722892,56.8117155 C223.120482,56.8117155 222.819277,57.1171548 222.518072,57.4225941 L211.072289,66.2803347 L211.072289,59.2552301 C211.072289,58.0334728 210.168675,57.1171548 208.963855,57.1171548 L201.73494,57.1171548 C199.325301,57.1171548 197.216867,54.9790795 197.216867,52.5355649 L197.216867,8.85774059 L197.216867,8.85774059 Z" id="Shape"></path>
            <path d="M216.127451,25 L273.872549,25 C275.088235,25 276,24.1428571 276,23 C276,21.8571429 275.088235,21 273.872549,21 L216.127451,21 C214.911765,21 214,21.8571429 214,23 C214,24.1428571 214.911765,25 216.127451,25 Z" id="Shape"></path>
            <path d="M258.976562,33 L226.023438,33 C224.867188,33 224,33.8571429 224,35 C224,36.1428571 224.867188,37 226.023438,37 L258.976562,37 C260.132812,37 261,36.1428571 261,35 C261,33.8571429 260.132812,33 258.976562,33 Z" id="Shape"></path>
        </g>
    </g>
</svg>
