<?xml version="1.0" encoding="UTF-8"?>
<svg viewBox="0 0 348 390" version="1.1" xmlns="http://www.w3.org/2000/svg" xmlns:xlink="http://www.w3.org/1999/xlink">
    <!-- Generator: Sketch 41.2 (35397) - http://www.bohemiancoding.com/sketch -->
    <title>Group 6</title>
    <desc>Created with Sketch.</desc>
    <defs></defs>
    <g id="Page-1" stroke="none" stroke-width="1" fill="none" fill-rule="evenodd">
        <g id="Group-6" transform="translate(1.000000, 1.000000)" stroke="#98F3D7" stroke-width="2">
            <path d="M14.8666667,47 C15.9333333,47 17,46.0948276 17,44.5862069 L17,14.4137931 C17,13.2068966 16.2,12 14.8666667,12 C13.8,12.3017241 13,13.2068966 13,14.4137931 L13,44.5862069 C13,45.7931034 13.8,47 14.8666667,47 Z" id="Shape"></path>
            <path d="M15,66 C16,66 17,65.125 17,63.6666667 L17,54.3333333 C17,53.1666667 16.25,52 15,52 C14,52 13,52.875 13,54.3333333 L13,63.6666667 C13.25,64.8333333 14,66 15,66 Z" id="Shape"></path>
            <path d="M344,171 C345,171 346,170.094828 346,168.586207 L346,138.413793 C346,137.206897 345.25,136 344,136 C343,136 342,136.905172 342,138.413793 L342,168.586207 C342.25,170.094828 343,171 344,171 Z" id="Shape"></path>
            <path d="M344,189 C345,189 346,188.125 346,186.666667 L346,177.333333 C346,176.166667 345.25,175 344,175 C343,175 342,175.875 342,177.333333 L342,186.666667 C342.25,188.125 343,189 344,189 Z" id="Shape"></path>
            <path d="M322.786885,26.4710744 C323.04918,26.7355372 323.57377,27 324.098361,27 C324.622951,27 325.147541,26.7355372 325.409836,26.4710744 C326.196721,25.677686 326.196721,24.3553719 325.409836,23.5619835 L321.47541,19.5950413 C320.688525,18.8016529 319.377049,18.8016529 318.590164,19.5950413 C317.803279,20.3884298 317.803279,21.7107438 318.590164,22.5041322 L322.786885,26.4710744 Z" id="Shape"></path>
            <path d="M336.786885,40.4710744 C337.04918,40.7355372 337.57377,41 338.098361,41 C338.622951,41 339.147541,40.7355372 339.409836,40.4710744 C340.196721,39.677686 340.196721,38.3553719 339.409836,37.5619835 L335.47541,33.5950413 C334.688525,32.8016529 333.377049,32.8016529 332.590164,33.5950413 C331.803279,34.3884298 331.803279,35.7107438 332.590164,36.5041322 L336.786885,40.4710744 Z" id="Shape"></path>
            <path d="M320.163934,41 C320.688525,41 321.213115,40.7355372 321.47541,40.4710744 L325.409836,36.5041322 C326.196721,35.7107438 326.196721,34.3884298 325.409836,33.5950413 C324.622951,32.8016529 323.311475,32.8016529 322.52459,33.5950413 L318.590164,37.5619835 C317.803279,38.3553719 317.803279,39.677686 318.590164,40.4710744 C319.114754,40.7355372 319.639344,41 320.163934,41 Z" id="Shape"></path>
            <path d="M334.163934,27 C334.688525,27 335.213115,26.7355372 335.47541,26.4710744 L339.409836,22.5041322 C340.196721,21.7107438 340.196721,20.3884298 339.409836,19.5950413 C338.622951,18.8016529 337.311475,18.8016529 336.52459,19.5950413 L332.590164,23.5619835 C331.803279,24.3553719 331.803279,25.677686 332.590164,26.4710744 C333.114754,26.7355372 333.639344,27 334.163934,27 Z" id="Shape"></path>
            <path d="M300.437039,206.561983 L296.488169,202.595041 C295.698395,201.801653 294.382105,201.801653 293.592331,202.595041 C292.802556,203.38843 292.802556,204.710744 293.592331,205.504132 L297.541201,209.471074 C297.804459,209.735537 298.330975,210 298.857491,210 C299.384007,210 299.910523,209.735537 300.173781,209.471074 C301.226813,208.413223 301.226813,207.355372 300.437039,206.561983 Z" id="Shape"></path>
            <path d="M310.59322,217.595041 C309.779661,216.801653 308.423729,216.801653 307.610169,217.595041 C306.79661,218.38843 306.79661,219.710744 307.610169,220.504132 L311.677966,224.471074 C311.949153,224.735537 312.491525,225 313.033898,225 C313.576271,225 314.118644,224.735537 314.389831,224.471074 C315.20339,223.677686 315.20339,222.355372 314.389831,221.561983 L310.59322,217.595041 Z" id="Shape"></path>
            <path d="M297.677966,217.595041 L293.610169,221.561983 C292.79661,222.355372 292.79661,223.677686 293.610169,224.471074 C293.881356,224.735537 294.423729,225 294.966102,225 C295.508475,225 296.050847,224.735537 296.322034,224.471074 L300.389831,220.504132 C301.20339,219.710744 301.20339,218.38843 300.389831,217.595041 C299.847458,216.801653 298.491525,216.801653 297.677966,217.595041 Z" id="Shape"></path>
            <path d="M314.437039,202.595041 C313.647265,201.801653 312.330975,201.801653 311.541201,202.595041 L307.592331,206.561983 C306.802556,207.355372 306.802556,208.677686 307.592331,209.471074 C307.855589,209.735537 308.382105,210 308.908621,210 C309.435137,210 309.961653,209.735537 310.224911,209.471074 L314.173781,205.504132 C315.226813,204.710744 315.226813,203.38843 314.437039,202.595041 Z" id="Shape"></path>
            <path d="M263.494142,351 C257.010267,351 252,356.307692 252,362.5 C252,368.987179 257.304989,374 263.494142,374 C269.978017,374 274.988284,368.692308 274.988284,362.5 C275.283006,356.012821 269.978017,351 263.494142,351 Z M263.494142,369.576923 C259.662761,369.576923 256.420824,366.333333 256.420824,362.5 C256.420824,358.666667 259.662761,355.423077 263.494142,355.423077 C267.325523,355.423077 270.56746,358.666667 270.56746,362.5 C270.862182,366.333333 267.620245,369.576923 263.494142,369.576923 Z" id="Shape"></path>
            <path d="M21,187.5 C21,193.5 25.8,198 31.5,198 C37.5,198 42,193.2 42,187.5 C42,181.5 37.2,177 31.5,177 C25.8,177 21,181.8 21,187.5 Z M37.8,187.5 C37.8,190.8 35.1,193.5 31.8,193.5 C28.5,193.5 25.8,190.8 25.8,187.5 C25.8,184.2 28.5,181.5 31.8,181.5 C35.1,181.5 37.8,184.2 37.8,187.5 Z" id="Shape"></path>
            <path d="M116,14 C116,15 116.876623,16 118.337662,16 L158.954545,16 C160.123377,16 161,15 161,14 C161,13 160.123377,12 158.662338,12 L118.337662,12 C117.168831,12.25 116,13 116,14 Z" id="Shape"></path>
            <path d="M105.508197,14 L91.4918033,14 C90.2459016,14 89,14.75 89,16 C89,17.25 89.9344262,18 91.4918033,18 L105.508197,18 C106.754098,18 108,17.25 108,16 C108,14.75 106.754098,14 105.508197,14 Z" id="Shape"></path>
            <path d="M91.3362832,4 L119.663717,4 C120.831858,4 122,3.2 122,1.86666667 C122,0.533333333 120.831858,0 119.663717,0 L91.3362832,0 C90.1681416,0 89,0.8 89,2.13333333 C89,3.46666667 90.1681416,4 91.3362832,4 Z" id="Shape"></path>
            <path d="M132.382979,4 L141.617021,4 C142.808511,4 144,3.25 144,2 C144,0.75 143.106383,0 141.617021,0 L132.382979,0 C131.191489,0 130,0.75 130,2 C130,3.25 131.191489,4 132.382979,4 Z" id="Shape"></path>
            <path d="M69.6774194,384 L29.3225806,384 C28.1612903,384 27,384.75 27,386 C27,387 27.8709677,388 29.3225806,388 L69.6774194,388 C70.8387097,388 72,387.25 72,386 C72,385 70.8387097,384 69.6774194,384 Z" id="Shape"></path>
            <path d="M16.5081967,384 L2.49180328,384 C1.24590164,384 -1.77635684e-15,384.75 -1.77635684e-15,386 C-1.77635684e-15,387 0.93442623,388 2.49180328,388 L16.5081967,388 C17.7540984,388 19,387.25 19,386 C19,385 17.7540984,384 16.5081967,384 Z" id="Shape"></path>
            <path d="M2.33628319,373 L30.6637168,373 C31.8318584,373 33,372.25 33,371 C33,370 32.1238938,369 30.6637168,369 L2.33628319,369 C1.16814159,369 0,369.75 0,371 C0.292035398,372.25 1.16814159,373 2.33628319,373 Z" id="Shape"></path>
            <path d="M43.3829787,369 C42.1914894,369 41,369.75 41,371 C41,372 41.893617,373 43.3829787,373 L52.6170213,373 C53.8085106,373 55,372.25 55,371 C55,370 54.106383,369 52.6170213,369 L43.3829787,369 Z" id="Shape"></path>
            <path d="M19.6435733,140.935248 C19.6435733,142.115106 20.806979,143 21.9703846,143 L88.8662097,143 C90.0296154,143 90.9021696,142.115106 91.193021,140.935248 L92.9381295,113.798501 C93.8106837,99.9351628 85.3759928,87.2516833 72.5785306,83.1221784 C71.9968277,82.8272137 71.4151249,83.1221784 70.8334221,83.417143 C70.2517193,83.7121076 69.9608678,84.3020369 69.9608678,84.8919662 C69.379165,90.4962943 62.9804339,94.9207639 56,94.9207639 C48.7287147,94.9207639 42.620835,90.4962943 42.0391322,84.8919662 C42.0391322,84.3020369 41.4574293,83.7121076 41.1665779,83.417143 C40.5848751,83.1221784 40.0031723,83.1221784 39.4214694,83.1221784 C26.6240072,87.5466479 18.1893163,100.230127 19.0618705,113.798501 L19.6435733,140.935248 Z M37.676361,88.1365772 C40.0031723,94.6257993 46.9836062,99.3452335 55.4182972,99.3452335 C63.8529882,99.3452335 70.8334221,94.6257993 73.1602334,88.1365772 C83.0491815,92.5610468 89.1570611,102.589845 88.2845069,113.503536 L86.5393984,138.57553 L24.0063445,138.57553 L22.5520875,113.503536 C21.6795332,102.589845 27.7874129,92.5610468 37.676361,88.1365772 Z" id="Shape"></path>
            <path d="M54.6442953,82 C66.4765101,82 76,71.2911392 76,58.5 C76,45.4113924 66.4765101,35 54.6442953,35 C42.8120805,35 33,45.7088608 33,58.5 C33,71.5886076 42.8120805,82 54.6442953,82 Z M54.6442953,39.4620253 C64.1677852,39.4620253 71.6711409,48.0886076 71.6711409,58.5 C71.6711409,68.9113924 63.8791946,77.5379747 54.6442953,77.5379747 C45.1208054,77.5379747 37.6174497,68.9113924 37.6174497,58.5 C37.3288591,48.0886076 45.1208054,39.4620253 54.6442953,39.4620253 Z" id="Shape"></path>
            <path d="M181.630492,83.4881312 C181.34078,83.7827444 180.761354,84.3719708 180.761354,84.9611972 C180.181929,90.5588482 173.808249,94.9780464 166.855144,94.9780464 C159.612326,94.9780464 153.528359,90.5588482 152.948933,84.9611972 C152.948933,84.3719708 152.369508,83.7827444 152.079795,83.4881312 C151.50037,83.1935179 150.920944,83.1935179 150.341519,83.1935179 C137.594159,87.6127161 129.19249,100.281084 130.061628,113.833292 L131.799905,140.937708 C131.799905,142.11616 132.958755,143 134.117606,143 L200.751532,143 C201.910383,143 202.779521,142.11616 203.069234,140.937708 L203.938372,113.833292 C204.80751,99.986471 196.405841,87.3181029 183.658481,83.1935179 C183.079056,82.8989047 182.209918,82.8989047 181.630492,83.4881312 Z M199.592681,113.538679 L198.144117,138.580802 L135.56617,138.580802 L134.117606,113.538679 C133.538181,102.63799 139.622148,92.6211407 149.182668,88.2019425 C151.50037,94.6834332 158.453475,99.3972446 166.855144,99.3972446 C175.256813,99.3972446 182.209918,94.6834332 184.52762,88.2019425 C194.088139,92.6211407 200.461819,102.63799 199.592681,113.538679 Z" id="Shape"></path>
            <path d="M147,58.5 C147,71.5886076 156.52349,82 168.355705,82 C180.187919,82 190,71.2911392 190,58.5 C190,45.4113924 180.47651,35 168.355705,35 C156.234899,35 147,45.7088608 147,58.5 Z M168.644295,39.4620253 C178.167785,39.4620253 185.671141,48.0886076 185.671141,58.5 C185.671141,68.9113924 177.879195,77.5379747 168.644295,77.5379747 C159.120805,77.5379747 151.61745,68.9113924 151.61745,58.5 C151.328859,48.0886076 159.120805,39.4620253 168.644295,39.4620253 Z" id="Shape"></path>
            <path d="M243.643573,140.935248 C243.643573,142.115106 244.806979,143 245.970385,143 L312.86621,143 C314.029615,143 314.90217,142.115106 315.193021,140.935248 L316.93813,113.798501 C317.810684,99.9351628 309.375993,87.2516833 296.578531,83.1221784 C295.996828,82.8272137 295.415125,83.1221784 294.833422,83.417143 C294.251719,83.7121076 293.960868,84.3020369 293.960868,84.8919662 C293.379165,90.4962943 286.980434,94.9207639 280,94.9207639 C272.728715,94.9207639 266.620835,90.4962943 266.039132,84.8919662 C266.039132,84.3020369 265.457429,83.7121076 265.166578,83.417143 C264.584875,83.1221784 264.003172,83.1221784 263.421469,83.1221784 C250.624007,87.5466479 242.189316,100.230127 243.06187,113.798501 L243.643573,140.935248 Z M261.38551,88.1365772 C263.712321,94.6257993 270.692755,99.3452335 279.127446,99.3452335 C287.562137,99.3452335 294.542571,94.6257993 296.869382,88.1365772 C306.75833,92.5610468 312.86621,102.589845 311.993655,113.503536 L310.248547,138.57553 L248.006345,138.57553 L246.261236,113.503536 C245.679533,102.589845 251.787413,92.5610468 261.38551,88.1365772 Z" id="Shape"></path>
            <path d="M279.5,82 C291.253333,82 301,71.2911392 301,58.5 C301,45.4113924 291.54,35 279.5,35 C267.746667,35 258,45.7088608 258,58.5 C258.286667,71.5886076 267.746667,82 279.5,82 Z M279.5,39.4620253 C288.96,39.4620253 296.413333,48.0886076 296.413333,58.5 C296.413333,68.9113924 288.673333,77.5379747 279.5,77.5379747 C270.04,77.5379747 262.586667,68.9113924 262.586667,58.5 C262.586667,48.0886076 270.326667,39.4620253 279.5,39.4620253 Z" id="Shape"></path>
            <path d="M167,215 C166,215 165,215.910714 165,217.428571 L165,229.571429 C165,230.785714 165.75,232 167,232 C168,232 169,231.089286 169,229.571429 L169,217.428571 C168.75,215.910714 168,215 167,215 Z" id="Shape"></path>
            <path d="M169,165.428571 C169,164.214286 168.25,163 167,163 C166,163 165,163.910714 165,165.428571 L165,177.571429 C165,178.785714 165.75,180 167,180 C168,180 169,179.089286 169,177.571429 L169,165.428571 Z" id="Shape"></path>
            <path d="M169,192.428571 C169,191.214286 168.25,190 167,190 C166,190 165,190.910714 165,192.428571 L165,204.571429 C165,205.785714 165.75,207 167,207 C168,207 169,206.089286 169,204.571429 L169,192.428571 Z" id="Shape"></path>
            <path d="M225.258824,221.596685 L217.635294,229.552486 C216.788235,230.348066 216.788235,231.674033 217.635294,232.469613 C217.917647,232.734807 218.482353,233 219.047059,233 C219.611765,233 220.176471,232.734807 220.741176,232.469613 L228.364706,224.513812 C229.211765,223.718232 229.211765,222.392265 228.364706,221.596685 C227.517647,220.801105 226.105882,220.801105 225.258824,221.596685 Z" id="Shape"></path>
            <path d="M278.258824,163.913043 L270.635294,173.043478 C269.788235,173.956522 269.788235,175.478261 270.635294,176.391304 C270.917647,176.695652 271.482353,177 272.047059,177 C272.611765,177 273.176471,176.695652 273.741176,176.391304 L281.364706,167.26087 C282.211765,166.347826 282.211765,164.826087 281.364706,163.913043 C280.517647,162.695652 279.105882,162.695652 278.258824,163.913043 Z" id="Shape"></path>
            <path d="M235.047059,214 C235.611765,214 236.176471,213.734807 236.741176,213.469613 L244.364706,205.513812 C245.211765,204.718232 245.211765,203.392265 244.364706,202.596685 C243.517647,201.801105 242.105882,201.801105 241.258824,202.596685 L233.635294,210.552486 C232.788235,211.348066 232.788235,212.674033 233.635294,213.469613 C233.917647,213.734807 234.482353,214 235.047059,214 Z" id="Shape"></path>
            <path d="M260.258824,182.596685 L252.635294,190.552486 C251.788235,191.348066 251.788235,192.674033 252.635294,193.469613 C252.917647,193.734807 253.482353,194 254.047059,194 C254.611765,194 255.176471,193.734807 255.741176,193.469613 L263.364706,185.513812 C264.211765,184.718232 264.211765,183.392265 263.364706,182.596685 C262.235294,181.801105 261.105882,181.801105 260.258824,182.596685 Z" id="Shape"></path>
            <path d="M65.3647059,174.469613 C66.2117647,173.674033 66.2117647,172.348066 65.3647059,171.552486 L57.7411765,163.596685 C56.8941176,162.801105 55.4823529,162.801105 54.6352941,163.596685 C53.7882353,164.392265 53.7882353,165.718232 54.6352941,166.513812 L62.2588235,174.469613 C62.5411765,175 63.3882353,175 63.9529412,175 C64.5176471,175 65.0823529,174.734807 65.3647059,174.469613 Z" id="Shape"></path>
            <path d="M75.7411765,182.596685 C74.8941176,181.801105 73.4823529,181.801105 72.6352941,182.596685 C71.7882353,183.392265 71.7882353,184.718232 72.6352941,185.513812 L80.2588235,193.469613 C80.5411765,194 81.3882353,194 81.9529412,194 C82.5176471,194 83.0823529,193.734807 83.3647059,193.469613 C84.2117647,192.674033 84.2117647,191.348066 83.3647059,190.552486 L75.7411765,182.596685 Z" id="Shape"></path>
            <path d="M110.741176,221.596685 C109.894118,220.801105 108.482353,220.801105 107.635294,221.596685 C106.788235,222.392265 106.788235,223.718232 107.635294,224.513812 L115.258824,232.469613 C115.541176,233 116.388235,233 116.952941,233 C117.517647,233 118.082353,232.734807 118.364706,232.469613 C119.211765,231.674033 119.211765,230.348066 118.364706,229.552486 L110.741176,221.596685 Z" id="Shape"></path>
            <path d="M92.7411765,202.596685 C91.8941176,201.801105 90.4823529,201.801105 89.6352941,202.596685 C88.7882353,203.392265 88.7882353,204.718232 89.6352941,205.513812 L97.2588235,213.469613 C97.5411765,214 98.3882353,214 98.9529412,214 C99.5176471,214 100.082353,213.734807 100.364706,213.469613 C101.211765,212.674033 101.211765,211.348066 100.364706,210.552486 L92.7411765,202.596685 Z" id="Shape"></path>
            <path d="M31.7546917,337.342565 C31.5345632,337.163405 31.2827288,337.005162 31.0870589,336.793263 C28.758044,334.265017 26.4462409,331.720401 24.1081672,329.199431 C23.653416,328.709242 23.4912636,328.214506 23.6588513,327.55789 C24.0320734,326.096418 24.3618134,324.623124 24.7123885,323.155287 C25.876443,318.282503 27.0468386,313.410627 28.2072697,308.536934 C29.7726285,301.960766 31.3280228,295.381871 32.8933816,288.806613 C34.5701636,281.762993 36.2550985,274.722102 37.9336923,267.678482 C38.5351959,265.154784 39.1312643,262.629266 39.724615,260.103749 C39.7907442,259.821822 39.8197323,259.531711 39.8822379,259.139742 C39.5343804,259.048798 39.2589932,258.91511 38.983606,258.9142 C34.8301509,258.906015 30.6766957,258.9142 26.5241465,258.928751 C26.2333594,258.929661 25.9434781,259.019695 25.704326,259.059711 C25.217869,259.593553 25.1752927,260.211063 25.0375991,260.791286 C23.4749578,267.367453 21.9123166,273.94453 20.3496754,280.521607 C19.0098803,286.158321 17.6782382,291.795946 16.3275727,297.429023 C14.4560267,305.234754 12.567269,313.036847 10.6930054,320.841669 C10.2708658,322.602347 9.88586729,324.3703 9.46916296,326.131887 C9.34777514,326.643902 9.1774699,327.145004 9.0406822,327.610638 C8.87671805,327.627008 8.81693006,327.643378 8.75985972,327.635193 C8.70188345,327.627008 8.63756604,327.604272 8.59408385,327.567894 C8.45729608,327.450576 8.31597902,327.335987 8.19912062,327.19957 C5.80578833,324.408496 3.4151737,321.615603 1.11061758,318.923658 C1.04811193,318.729038 1.02274732,318.672652 1.01278265,318.613539 C1.0019121,318.555335 0.99375919,318.490764 1.0064415,318.433469 C1.18761729,317.609516 1.35429903,316.781925 1.55902768,315.963428 C7.13924219,293.65939 12.7230803,271.357171 18.3114477,249.055861 C18.354024,248.887614 18.4582,248.733919 18.533388,248.571129 C19.1629739,248.21099 19.8405714,248.361048 20.4873689,248.360139 C27.710848,248.347406 34.934327,248.351954 42.1578059,248.351954 C53.3544701,248.351954 64.5511344,248.351954 75.7477987,248.354682 C76.4625374,248.354682 77.1772754,248.381056 77.786932,248.392878 C78.260707,248.869426 78.0650369,249.283221 77.9681078,249.679737 C77.2923223,252.434434 76.6129131,255.18913 75.9289746,257.942008 C74.269404,264.619123 72.6053042,271.294419 70.9466399,277.971534 C69.5642687,283.534584 68.1855206,289.098544 66.8076787,294.663413 C64.8917448,302.39457 62.9794343,310.125727 61.0635003,317.856884 C59.8722694,322.660551 58.6792268,327.464218 57.479843,332.266065 C57.3937845,332.610744 57.255185,332.94269 57.1347031,333.298281 C56.5830228,333.443791 56.0702954,333.579298 55.5774972,333.708439 C55.2468514,334.345047 54.9325113,334.927999 55.1354283,335.697387 C55.5421679,335.867452 55.9697428,336.045702 56.4888114,336.263059 C55.5874618,339.872629 54.6978887,343.430362 53.8282449,346.912612 C53.3435996,347.14361 53.1479297,346.86714 52.9640363,346.65524 C50.7165506,344.053329 48.4899,341.43323 46.2252026,338.847689 C45.7749807,338.332946 45.6644635,337.810017 45.780416,337.181594 C45.8565098,336.768708 45.9235448,336.354002 46.0105093,335.846534 C45.5793109,335.65919 45.1653242,335.48003 44.7613022,335.304508 C44.7911961,334.104046 44.7911961,334.102227 45.690734,333.926705 C45.9217331,333.882142 46.154544,333.848493 46.4924369,333.792107 C46.700789,333.108208 46.9435646,332.436131 47.1093405,331.744956 C48.8912044,324.28845 50.661292,316.830125 52.4340971,309.37271 C53.8717271,303.324928 55.2993923,297.274418 56.7469869,291.228454 C58.4473217,284.12754 60.1684919,277.031172 61.8715443,269.930258 C62.6170828,266.820879 63.3463153,263.706044 64.0637715,260.58939 C64.1679475,260.138308 64.1715711,259.66267 64.2313591,259.115187 C63.8418311,259.034246 63.5610086,258.929661 63.2792802,258.925114 C59.2526482,258.863272 55.226922,258.848721 51.1450313,258.936936 C50.974726,259.325268 50.7844915,259.62993 50.7038683,259.961876 C48.3413358,269.696532 45.9860505,279.433915 43.6389181,289.173118 C41.9141245,296.331327 40.2029191,303.493174 38.4862785,310.653203 C36.4879094,318.986409 34.4958815,327.321435 32.4803008,335.651005 C32.3435131,336.21213 32.3534777,336.867837 31.7546917,337.342565 L31.7546917,337.342565 Z M232.338039,281.962161 C232.392392,281.738439 232.34438,281.488342 232.34438,281.175495 C231.821688,281.048173 231.320737,280.927217 230.748222,280.788073 C231.058938,279.590339 232.174075,280.333352 232.914178,279.54032 C234.862724,271.542697 236.898234,263.234954 238.873956,254.979959 C237.73436,253.638534 231.919523,248.645703 230.769057,248 C230.232777,248.344678 230.311588,248.958551 230.191106,249.458743 C228.785181,255.324637 227.408246,261.198716 226.012286,267.067338 C225.918074,267.465673 225.740522,267.843091 225.569311,268.325095 C224.814714,268.36511 224.104505,268.434228 223.39339,268.435137 C218.579549,268.444231 213.765708,268.433318 208.950961,268.444231 C208.247094,268.44605 207.509708,268.313272 206.811275,268.7398 C206.717064,269.021726 206.602017,269.299106 206.53317,269.586489 C206.155419,271.170735 205.789444,272.75771 205.417127,274.341956 C205.030317,275.986225 204.653471,277.634132 204.240391,279.272035 C204.15705,279.603071 203.932392,279.89864 203.833651,280.092351 C203.2711,280.405198 202.654197,280.055973 202.221186,280.588905 C202.766526,280.735325 203.203159,280.851734 203.791075,281.009976 C202.396927,287.05594 200.948426,292.963668 199.544314,298.8814 C198.125708,304.860064 196.651843,310.825087 195.274001,316.883782 C203.105325,323.596366 210.872331,330.253473 218.929219,337.159767 C223.456802,318.538055 227.901044,300.251018 232.338039,281.962161 L232.338039,281.962161 Z M211.820786,280.958138 C211.621493,280.897206 211.325271,280.742601 211.301717,280.593453 C211.243741,280.231495 211.552646,280.092351 211.869704,280.053245 C212.280973,280.002316 212.694053,279.973214 213.192287,279.925923 C213.488509,278.917353 213.772955,277.947889 214.04653,277.017531 C215.46242,276.684675 221.606997,276.660121 223.344473,276.984791 C223.483978,278.058841 223.134309,279.051041 222.711263,280.115996 C222.265571,280.196936 221.807196,280.279695 221.262763,280.377915 C221.477456,280.913576 222.033666,280.653476 222.320829,280.949044 C222.616146,281.447418 222.40417,281.977622 222.280065,282.490546 C220.20379,291.103861 218.113927,299.712629 216.037653,308.325943 C215.345561,311.195229 214.700575,314.077248 213.998519,316.943805 C213.847237,317.563135 213.857202,318.275227 213.235769,318.828167 C212.92777,318.649007 212.600748,318.51441 212.341666,318.297963 C210.447474,316.716445 208.594045,315.083999 206.67177,313.539768 C205.789444,312.831314 205.648127,312.098304 205.915361,311.022436 C206.964369,306.811724 207.911918,302.576458 208.908385,298.352105 C209.972793,293.835821 211.048977,289.322266 212.122443,284.807802 C212.317208,283.987486 212.532807,283.172627 212.7167,282.348673 C212.794606,282.003995 212.816347,281.645676 212.890629,281.096373 C212.398737,281.039079 212.097079,281.041807 211.820786,280.958138 L211.820786,280.958138 Z M150.003604,313.416084 C149.504465,315.40685 148.921079,317.379428 148.498033,319.385654 C148.274281,320.450609 147.757931,321.06721 146.787734,321.498286 C144.148003,322.673283 141.541789,323.922855 138.921081,325.141506 C131.497403,328.591925 124.076442,332.051438 116.643705,335.48003 C115.872802,335.834712 115.36551,336.273063 115.20064,337.147945 C114.743171,339.579789 114.225914,342.000721 113.750327,344.428928 C113.698693,344.692666 113.768445,344.980959 113.788374,345.41931 C114.641713,345.06008 115.360074,344.773606 116.065754,344.45803 C125.021274,340.448306 133.975888,336.436761 142.92869,332.42158 C146.993368,330.598151 151.043554,328.742891 155.125444,326.958568 C156.001429,326.575694 156.390051,326.04549 156.59478,325.116041 C157.411882,321.403703 158.319574,317.711374 159.2019,314.013587 C161.106057,306.030515 163.021992,298.048352 164.922525,290.06437 C166.502378,283.430908 168.071361,276.793808 169.639437,270.156709 C169.716437,269.830219 169.732743,269.490089 169.788907,269.079021 C169.261686,269.041734 168.846793,268.988077 168.432806,268.988077 C159.701945,268.984439 150.971989,268.984439 142.242033,268.992624 C141.838012,268.993534 141.434895,269.074474 141.003697,269.119946 C140.830674,269.721996 140.663992,270.233102 140.537169,270.754211 C138.916552,277.44133 137.305898,284.130268 135.685281,290.816478 C134.87452,294.159582 134.064664,297.502687 133.223102,300.837607 C133.002067,301.714308 133.062761,302.44368 133.633466,303.203063 C134.790273,304.747293 135.854681,306.361551 136.957135,307.946706 C137.645603,308.937997 138.346754,309.920193 139.014386,310.926035 C139.380362,311.478066 139.845983,311.764539 140.514522,311.734528 C140.93485,311.71543 141.35699,311.738166 141.779129,311.738166 C143.945992,311.739985 146.11376,311.729981 148.281529,311.74726 C148.869444,311.751807 149.489065,311.629942 150.192027,312.131044 C150.125898,312.596678 150.103251,313.01593 150.003604,313.416084 L150.003604,313.416084 Z M158.077704,279.561237 C157.379271,283.186269 152.731206,301.747957 152.247467,302.881121 C150.986483,303.172142 146.770523,303.226708 144.692436,302.972974 C143.893451,302.106277 143.365324,301.017676 142.766537,299.977276 C142.544597,299.590763 142.522856,299.199704 142.633373,298.759535 C143.05823,297.062518 143.44504,295.356407 143.857216,293.656662 C144.976882,289.025789 146.09836,284.395825 147.229803,279.76859 C147.328544,279.366617 147.511532,278.984652 147.667343,278.558124 C148.047812,278.486278 148.394763,278.364413 148.740809,278.365322 C151.687633,278.369869 154.634458,278.394424 157.581282,278.428983 C157.735282,278.430802 157.887469,278.579041 158.124809,278.703634 C158.111221,278.982833 158.132057,279.27931 158.077704,279.561237 L158.077704,279.561237 Z M293.915163,318.819073 C295.370005,319.990433 296.840246,321.142694 298.283312,322.330424 C298.539675,322.541414 298.892968,322.920651 298.846768,323.152558 C298.761615,323.58909 298.871227,323.83373 299.171979,324.075641 C299.68833,324.491256 300.184751,324.934153 300.723749,325.317937 C301.005478,325.518923 301.35877,325.73628 301.681263,325.739008 C302.77013,325.747193 303.452257,326.350152 304.065537,327.144095 C304.314653,327.466946 304.607252,327.848002 304.961451,327.978052 C305.841965,328.300904 306.502351,328.912957 307.206219,329.469535 C309.946503,331.639461 312.671387,333.829395 315.408047,336.002959 C315.819316,336.329448 316.265915,336.611374 316.755995,336.956962 C316.895501,336.621378 317.013265,336.413116 317.06943,336.190303 C317.601181,334.084038 318.12659,331.976863 318.64113,329.866051 C318.726282,329.516826 318.78607,329.150321 318.78607,328.791092 C318.784259,327.37964 318.773388,327.37964 319.32688,326.512943 C319.257127,326.429274 319.200057,326.292858 319.114904,326.27285 C318.546918,326.133706 318.288743,325.802669 318.43006,325.217899 C318.584059,324.577652 318.757082,323.942863 318.922858,323.303526 C319.424715,323.093445 319.855914,322.912466 320.367735,322.696929 C323.658793,309.042583 326.952569,295.378233 330.238192,281.712065 C330.275333,281.553822 330.201957,281.369206 330.17931,281.180951 C329.660242,281.03635 329.162914,280.897206 328.641128,280.751695 C328.962715,279.570331 330.105934,280.357907 330.615038,279.760405 C330.669391,279.662185 330.753637,279.563056 330.781719,279.451195 C331.568929,276.290888 332.357043,273.13058 333.122511,269.964817 C333.185923,269.704717 333.09624,269.407329 333.073594,269.066289 C332.622466,269.035368 332.268267,268.990805 331.914068,268.990805 C323.00656,268.986258 314.099958,268.984439 305.19245,268.989896 C304.79024,268.989896 304.387124,269.062651 303.916066,269.107214 C303.590856,270.41499 303.281952,271.637278 302.983918,272.862295 C302.45579,275.030402 301.938533,277.202147 301.401347,279.367526 C301.331594,279.648543 301.166724,279.905915 301.06436,280.133275 C300.530797,280.233314 300.089634,280.316073 299.297895,280.464312 C300.049775,280.708042 300.462856,280.84173 300.912172,280.98724 C299.633071,287.156887 298.052312,293.144646 296.627365,299.169692 C295.196982,305.212018 293.666952,311.231607 292.275522,317.435813 C292.907826,317.971474 293.402435,318.407096 293.915163,318.819073 L293.915163,318.819073 Z M310.695665,281.265529 C310.390384,280.730778 309.638504,281.235518 309.224518,280.619826 C309.306047,280.488867 309.38214,280.197846 309.527987,280.156921 C309.982738,280.029599 310.46376,279.997769 311.066169,279.910462 C311.347898,279.194732 311.650461,278.426255 311.940343,277.688698 C313.464031,277.416775 319.938348,277.413138 321.591577,277.690517 C321.886894,278.529022 321.422178,279.266578 321.240097,280.103264 C320.663051,280.198755 320.143077,280.285152 319.626726,280.371549 C319.619479,280.445214 319.598644,280.553437 319.61042,280.557075 C319.992701,280.682578 320.378605,280.798986 320.871404,280.949044 C320.854192,281.255525 320.884992,281.60657 320.807992,281.93215 C319.796125,286.217435 318.775199,290.500902 317.743403,294.782549 C316.81216,298.65222 315.866422,302.518254 314.92612,306.386106 C314.142535,309.608255 313.35442,312.830404 312.573552,316.054372 C312.375165,316.874688 312.210295,317.704098 312.000131,318.521685 C311.930378,318.791789 311.768226,319.038248 311.616038,319.364737 C311.30351,319.233777 311.069793,319.180121 310.888617,319.052799 C308.626637,317.454911 306.385493,315.827012 304.108113,314.250951 C303.342646,313.721656 303.201328,313.149618 303.427798,312.252909 C304.433324,308.277743 305.360038,304.282569 306.322987,300.29649 C307.639229,294.844391 308.966342,289.394112 310.281679,283.942923 C310.470101,283.163533 310.453795,283.159895 309.929292,282.132227 C310.065173,281.738439 310.831547,281.943063 310.695665,281.265529 L310.695665,281.265529 Z M297.030481,281.610207 C297.055845,281.503803 296.991528,281.376481 296.949858,281.163672 C296.486953,281.054539 295.986002,280.935402 295.368193,280.788073 C295.735979,279.644906 296.804011,280.28788 297.458961,279.712204 C298.393829,276.616467 299.029755,273.296099 299.885811,270.033025 C299.957376,269.762011 299.89487,269.45462 299.89487,269.21089 C299.750835,269.135407 299.700106,269.098119 299.643036,269.08175 C299.528895,269.04901 299.412037,269.008994 299.296084,269.005356 C298.814156,268.990805 298.333134,268.98262 297.852113,268.98353 C288.944605,268.996262 280.037097,269.011723 271.130495,269.027183 C271.071613,269.027183 271.009107,269.044462 270.954754,269.069017 C270.903119,269.092663 270.859637,269.134497 270.663967,269.27637 C269.639418,272.765895 269.040632,276.522795 267.960824,279.955934 C267.413673,280.438848 266.762346,280.054154 266.341112,280.577083 C266.837534,280.724412 267.219815,280.837183 267.665507,280.969052 C267.460779,282.605136 267.144627,284.11117 266.553994,285.576279 C265.791244,285.667223 265.095529,285.749982 264.374449,285.83547 C264.245814,286.382044 264.126239,286.846768 264.035651,287.317859 C264.016627,287.416078 264.105403,287.534305 264.157944,287.678907 C264.513954,287.826236 264.892612,287.98266 265.20967,288.114529 C265.711527,288.95758 265.708809,289.737881 265.475092,290.604578 C264.973235,292.468022 264.573743,294.359659 264.118991,296.235836 C262.553632,302.6865 260.977403,309.135346 259.422009,315.589648 C259.269821,316.2208 259.016175,316.860137 259.250798,317.663173 C260.822498,318.921839 262.487503,320.210517 264.096344,321.566494 C264.769412,322.134894 265.890891,322.429553 265.656268,323.706408 C265.636338,323.818269 265.853749,323.998338 265.989632,324.111109 C266.546747,324.571286 267.107486,325.029645 267.685437,325.462538 C267.869331,325.599864 268.120259,325.75174 268.328611,325.73537 C269.34229,325.658068 270.006299,326.274669 270.712885,326.84216 C274.424271,329.824217 278.141092,332.798998 281.859725,335.771051 C282.367017,336.176662 282.90058,336.549533 283.436861,336.947867 C284.086376,335.533687 285.928028,328.07809 286.060286,326.424727 C285.064725,325.809035 285.05476,325.806307 285.257678,324.919602 C285.378159,324.393036 285.535782,323.874655 285.68797,323.31353 C286.127321,323.127094 286.563049,322.943387 287.140094,322.698748 C290.4538,308.941635 293.745764,295.276376 297.030481,281.610207 L297.030481,281.610207 Z M288.012455,280.122362 C287.385587,280.215125 286.875577,280.292428 286.159933,280.399742 C286.662696,280.894477 287.252423,280.618917 287.671845,281.083641 C287.657351,281.26371 287.672751,281.555641 287.606622,281.829383 C286.587508,286.112849 285.561147,290.394497 284.530257,294.675235 C282.722122,302.179942 280.9158,309.684648 279.087736,317.183898 C278.921054,317.868707 278.895689,318.617177 278.38115,319.333816 C278.058657,319.193762 277.718952,319.107365 277.450812,318.919111 C275.235938,317.35942 273.046429,315.760623 270.817966,314.22003 C270.116816,313.735298 269.922958,313.219645 270.134028,312.387506 C270.995519,308.997111 271.802657,305.593073 272.625195,302.192674 C273.646121,297.973778 274.662517,293.753062 275.684348,289.518706 C275.512231,289.134921 275.34102,288.757503 275.187021,288.413735 C274.74314,288.277319 274.35633,288.159091 273.951402,288.034498 C273.849037,287.079585 274.211389,286.320202 274.498553,285.463509 C275.204232,285.344372 275.900854,285.226144 276.698027,285.090638 C277.003308,283.812873 277.566765,282.609683 277.519659,281.18368 C276.993343,281.044535 276.496922,280.913576 275.976041,280.77625 C276.329334,280.097807 276.329334,280.097807 277.870234,279.866809 C278.14381,279.152898 278.439127,278.384421 278.719949,277.65323 C280.600553,277.386764 286.982471,277.429508 288.550547,277.759635 C288.355783,278.619966 288.185478,279.364798 288.012455,280.122362 L288.012455,280.122362 Z M66.3266571,317.545855 C70.5453357,321.236367 74.7667318,324.925059 78.9881279,328.612842 C81.756494,331.032864 84.5230482,333.453795 87.2995672,335.864723 C87.5930719,336.119367 87.8530591,336.533163 88.478116,336.280338 C88.6846565,335.406365 88.902973,334.473279 89.1276314,333.542011 C91.080706,325.447987 93.0428398,317.354873 94.9886683,309.25903 C96.8493438,301.514231 98.6919014,293.764885 100.545329,286.017358 C101.795443,280.794439 103.053708,275.573339 104.296574,270.348601 C104.388068,269.964817 104.379915,269.556478 104.430645,269.03173 C102.02463,268.945333 99.7445328,268.99899 97.4662471,268.989896 C95.1789028,268.981711 92.8915585,268.988077 90.6042135,268.988077 C88.2570814,268.988077 85.909043,268.968979 83.5619109,268.992624 C81.2890601,269.01627 79.0107744,268.883491 76.7850297,269.079021 C76.3031024,270.327684 74.9714604,275.560607 74.7141907,277.224883 C74.6698027,277.511357 74.7078496,277.810563 74.7078496,278.080667 C75.3881644,278.469908 76.0648562,278.330764 76.7143715,278.332582 C81.409542,278.343496 86.1047131,278.330764 90.7989779,278.345315 C91.4430577,278.347133 92.1251844,278.183434 92.7294061,278.601777 C92.9803346,279.219287 92.7375591,279.802239 92.6007712,280.374277 C92.1405848,282.312296 91.6532219,284.243039 91.1567997,286.171054 C91.0245419,286.684888 90.8279662,287.182352 90.6277669,287.785311 C89.9257105,287.811685 89.2752896,287.855338 88.6230562,287.856248 C83.8074039,287.861704 78.9926572,287.853519 74.1770043,287.866251 C73.5283952,287.86807 72.8553271,287.732564 72.2021881,288.053596 C72.088953,288.321881 71.9322361,288.589257 71.8615779,288.87755 C69.6684446,297.907388 67.4834649,306.939046 65.3039198,315.971613 C65.2631553,316.138041 65.3138844,316.328114 65.3283785,316.62732 C65.70613,316.975636 66.0095995,317.268476 66.3266571,317.545855 L66.3266571,317.545855 Z M82.413256,318.487127 C80.1567119,316.499998 77.9110375,314.501047 75.6191639,312.465718 C75.8728098,311.338012 76.0947501,310.285789 76.3465848,309.24175 C77.3937807,304.905536 78.4464121,300.569322 79.5062903,296.235836 C79.8188185,294.957162 79.8378419,294.927151 81.0245437,294.915328 C83.3100762,294.892592 85.5956086,294.897139 87.8811418,294.91169 C88.2262813,294.914418 88.5714214,295.029917 88.9075023,295.091759 C88.8096676,296.607797 83.9070504,316.836491 83.1352414,318.851813 C82.826337,318.699026 82.5826552,318.636275 82.413256,318.487127 L82.413256,318.487127 Z M234.093633,290.202605 C233.354435,293.254689 232.620673,296.306772 231.884194,299.358856 C231.135032,302.468235 230.383152,305.577613 229.635802,308.687901 C228.902946,311.735437 228.174619,314.782974 227.42274,317.918726 C235.069264,324.264804 242.719412,330.513573 250.344196,336.793263 C250.51903,336.936954 250.747312,337.015166 251.021793,337.162496 C251.13684,336.867837 251.244639,336.663212 251.298086,336.444946 C253.534701,327.236857 255.768599,318.027859 257.992532,308.817041 C258.033297,308.651523 257.971696,308.46145 257.954485,308.244094 C257.036829,307.815747 256.065727,308.034922 255.121802,308.012186 C254.099064,307.986722 253.074515,307.974899 252.052683,308.007639 C251.115098,308.037651 250.13222,307.763909 249.229964,308.341404 C248.917436,309.646452 248.611249,310.937858 248.300532,312.227445 C247.974416,313.577055 247.681817,314.937579 247.301348,316.271729 C246.946244,317.517662 246.926314,318.880005 246.120082,320.078648 C245.750483,319.851288 245.434332,319.689408 245.155321,319.479327 C243.95322,318.570795 242.761083,317.650441 241.567134,316.730996 C240.611432,315.995258 239.671129,315.238604 238.700027,314.524692 C237.995253,314.006311 237.64196,313.448824 238.007936,312.526651 C238.272452,311.86094 238.358511,311.124293 238.528816,310.419476 C239.46006,306.546168 240.391304,302.672859 241.325264,298.79955 C241.452087,298.275712 241.504628,297.713677 242.185849,297.260776 C243.271093,297.250772 244.53117,297.228945 245.791248,297.228945 C250.185667,297.228945 254.580086,297.241678 258.97541,297.234402 C259.565138,297.233493 260.184759,297.345354 260.857827,296.892452 C261.178508,295.601046 261.552636,294.207783 261.866976,292.802697 C262.189469,291.360323 262.754738,289.953418 262.694044,288.463754 C262.21574,288.282775 261.837083,288.139993 261.481072,288.004486 C261.481072,287.736201 261.453895,287.555223 261.485601,287.383338 C261.81987,285.549905 261.822588,285.550815 263.733087,284.993328 C263.97405,284.007494 264.239473,282.961637 264.478626,281.910323 C264.529355,281.689329 264.485872,281.446508 264.485872,281.20005 C263.927851,281.041807 263.430523,280.900844 262.908737,280.753514 C263.220359,279.63763 264.202332,280.261507 264.850942,279.80133 C264.943341,279.575788 265.119988,279.259303 265.203328,278.920081 C265.938902,275.930749 266.664512,272.939598 267.371097,269.94299 C267.432697,269.684709 267.340297,269.390959 267.31765,269.082659 C266.973416,269.045372 266.737887,268.998081 266.502359,268.998081 C257.772403,268.993534 249.042447,268.991715 240.312492,268.998081 C239.969163,268.998081 239.624929,269.085387 239.25986,269.134497 C239.150249,269.501002 239.05332,269.7802 238.983567,270.067583 C238.280605,272.940507 237.577643,275.814341 236.888269,278.690902 C236.761446,279.220197 236.684447,279.759495 236.271366,280.154193 C234.992264,280.324258 234.866347,280.359726 234.831018,280.62983 C235.215111,280.713499 235.605544,280.797167 236.30126,280.947225 C235.59105,284.138453 234.829206,287.167801 234.093633,290.202605 L234.093633,290.202605 Z M252.51287,285.78636 C252.341659,286.32293 252.165919,286.87678 251.967531,287.502475 C252.467576,287.751662 252.879751,287.958105 253.39882,288.217296 C253.323631,288.586529 253.305514,289.009419 253.139738,289.363191 C253.032844,289.591461 252.72394,289.745156 252.475729,289.875206 C252.328977,289.951599 252.123342,289.928863 251.944884,289.928863 C249.544305,289.929773 247.143725,289.929773 244.744052,289.91886 C244.513959,289.91795 244.284771,289.843376 243.955031,289.785172 C243.940537,289.403207 243.857196,289.050343 243.926043,288.73113 C244.254877,287.203269 244.630817,285.684503 244.978674,284.16028 C245.139015,283.457282 245.286673,282.749737 245.415308,282.039464 C245.457884,281.811194 245.421649,281.569283 245.421649,281.23188 C245.019439,281.1182 244.626288,281.035441 244.258501,280.887202 C244.13983,280.839911 244.015725,280.612551 244.028407,280.480682 C244.04109,280.346994 244.201431,280.146008 244.328254,280.118724 C244.791157,280.018686 245.264932,279.97958 245.822048,279.905915 C246.08747,279.119249 246.351987,278.33622 246.629186,277.514086 C248.183674,277.013893 249.748128,277.319465 251.284498,277.296729 C252.77014,277.273084 254.272993,277.11666 255.78581,277.454972 C256.149068,278.427164 255.606446,279.208374 255.425271,280.095079 C254.863626,280.199665 254.358146,280.294246 253.8581,280.387919 C253.859006,280.835364 254.178782,280.697129 254.374451,280.750786 C254.595486,280.813537 254.821955,280.85719 255.032119,280.9063 C255.002225,282.490546 254.752202,283.564596 253.942347,285.570823 C253.442302,285.647216 253.031939,285.708148 252.51287,285.78636 L252.51287,285.78636 Z M186.964373,336.574997 C192.341671,314.288238 197.711721,291.99966 203.072713,269.709264 C203.111666,269.549202 203.02923,269.360038 203.004772,269.192701 C201.590695,268.931692 194.863637,268.91805 193.197726,269.185426 C192.648763,270.796046 192.376094,272.526712 191.953048,274.216453 C191.540873,275.855265 191.150439,277.497716 190.755476,279.140166 C190.346925,280.839911 189.938374,282.541475 189.538881,284.243948 C189.139388,285.948241 188.760731,287.65708 188.354897,289.358644 C187.963558,291.002004 187.540512,292.638088 187.143737,294.279629 C186.733373,295.981193 186.334787,297.685485 185.9362,299.389777 C185.539425,301.09316 185.160768,302.80109 184.752216,304.500835 C184.343665,306.202399 183.897066,307.893959 183.485797,309.595523 C183.089022,311.237064 182.729389,312.887699 182.332614,314.52833 C181.92678,316.20534 181.70031,317.934187 180.990101,319.624837 C180.682102,319.484783 180.435703,319.432036 180.269021,319.288344 C177.766078,317.126603 175.281251,314.943945 172.846249,312.67489 C172.941366,312.189248 173.006589,311.776362 173.103518,311.370751 C174.320114,306.26515 175.542145,301.160458 176.762363,296.055767 C178.444581,289.013966 180.126798,281.973074 181.809015,274.931273 C182.145097,273.522549 182.497484,272.117463 182.803671,270.702373 C182.913282,270.197634 183.149716,269.654697 182.655106,269.051738 C181.300817,268.943515 179.862282,268.993534 178.428275,268.99899 C176.93901,269.003538 175.443404,268.916231 173.874421,269.073565 C172.796425,273.116029 171.923158,277.115751 170.979232,281.099102 C170.047083,285.031524 169.113122,288.964856 168.180066,292.898188 C167.232517,296.888815 166.265944,300.874894 165.341947,304.871887 C164.419763,308.858876 163.36079,312.815853 162.595322,316.74191 C163.976788,318.209747 185.459708,336.044793 186.724315,336.799629 C186.80675,336.725964 186.943538,336.664122 186.964373,336.574997 L186.964373,336.574997 Z M122.965834,327.910753 C124.282076,322.391357 125.591072,316.870141 126.910937,311.352563 C128.215403,305.894098 129.532551,300.438362 130.838829,294.978989 C132.130612,289.580547 133.414243,284.179378 134.702402,278.780027 C135.346483,276.080807 136.012303,273.386133 136.619243,270.678728 C136.727948,270.192177 137.050441,269.659245 136.688995,269.138135 C135.015837,268.938967 109.845083,268.945333 108.330453,269.148139 C108.234431,269.344578 108.085867,269.548293 108.030608,269.775653 C104.247657,285.435316 100.471048,301.096798 96.7025911,316.760098 C96.6482382,316.98473 96.69625,317.234826 96.69625,317.611335 C98.9745357,319.561176 101.304456,321.55649 103.640718,323.544528 C103.809211,323.687309 104.030246,323.76825 104.338245,323.938315 C104.540256,323.267148 104.736832,322.709661 104.874525,322.138532 C105.312971,320.31965 105.725146,318.495312 106.153627,316.673701 C107.813197,309.624625 109.474579,302.576458 111.136867,295.527382 C112.35618,290.358119 113.572775,285.188857 114.804771,280.023233 C114.996817,279.21565 115.080158,278.358956 115.599227,277.696883 C117.634737,277.413138 123.886208,277.469523 125.18252,277.78328 C125.37819,278.448081 125.129074,279.078324 124.974168,279.71857 C124.238595,282.768835 123.497585,285.81819 122.772882,288.870274 C121.251911,295.27001 119.74634,301.672474 118.223558,308.0713 C116.517788,315.234056 114.795712,322.393176 113.09266,329.555932 C112.98486,330.009743 112.98033,330.489018 112.929601,330.950105 C113.41787,331.354806 113.822798,331.712216 114.250373,332.039615 C114.718712,332.398844 115.207887,332.729881 115.670791,333.060008 C116.171742,332.856293 116.566705,332.713511 116.946269,332.537988 C118.74625,331.701303 120.540796,330.854613 122.444954,329.961542 C122.638812,329.192156 122.811835,328.553728 122.965834,327.910753 L122.965834,327.910753 Z M302.030933,254.877192 C300.94116,253.66127 299.604083,252.643605 298.313205,251.584107 C297.045881,250.543706 295.948861,249.267761 294.323714,248.450173 C293.570023,251.56228 292.84532,254.537061 292.137828,257.51639 C292.086193,257.733746 292.166816,257.982933 292.189463,258.26395 C294.618125,260.224705 297.040445,262.180003 299.597742,264.244433 C300.296175,262.529228 301.756451,256.836128 302.030933,254.877192 L302.030933,254.877192 Z M279.202783,249.134982 C278.552361,252.126133 277.60753,255.050895 277.136472,257.998393 C278.551455,259.448952 283.423272,263.340449 284.666138,264.035262 C285.273983,262.933929 286.921777,256.511457 287.023235,254.848999 C285.740511,253.485748 280.810718,249.324146 279.545205,248.552031 C279.42744,248.745742 279.248076,248.924901 279.202783,249.134982 L279.202783,249.134982 Z M310.511772,258.251218 C311.012723,258.673198 311.56078,259.137013 312.111554,259.59719 C312.703999,260.093745 313.241185,260.612126 313.709524,261.260558 C314.087276,261.785305 314.905285,261.979926 315.507694,262.352796 C315.811164,262.541051 316.067527,262.806607 316.351973,263.028511 C316.820313,263.393197 317.293182,263.750607 317.890156,264.207146 C318.091261,263.712411 318.342189,263.352272 318.360307,262.98122 C318.386577,262.469205 318.08492,261.908989 318.20359,261.441537 C318.323166,260.965899 318.926481,260.619402 319.068705,260.141946 C319.581432,258.421283 320.076042,256.689708 320.364112,254.801709 C318.583153,253.271119 316.813066,251.742349 315.034826,250.224492 C314.395275,249.678828 313.737607,249.154081 313.077221,248.632971 C313.002033,248.572948 312.858904,248.600231 312.746575,248.586589 C312.089813,250.050789 310.49456,256.879781 310.511772,258.251218 L310.511772,258.251218 Z M105.428018,263.50233 C106.085685,260.933159 106.727048,258.360351 107.38834,255.79209 C107.557739,255.133654 107.407363,254.628915 106.880141,254.187836 C104.710562,252.372592 102.558193,250.536431 100.39133,248.717549 C100.275378,248.620239 100.080614,248.61842 99.8188148,248.541117 C98.9537004,251.715976 98.19095,254.855366 97.5269412,257.961106 C98.6946189,259.183395 103.682388,263.20949 105.121831,264.086191 C105.264053,263.819724 105.384535,263.671486 105.428018,263.50233 L105.428018,263.50233 Z M83.7956272,252.665432 C83.4160639,254.184198 83.0600539,255.708421 82.6759613,257.225368 C82.5002203,257.919272 82.8127484,258.356713 83.3218529,258.765052 C85.3881626,260.415687 87.4354495,262.090877 89.503571,263.739694 C89.7037703,263.898846 89.9981806,263.937952 90.2527329,264.034353 C91.113318,261.448812 92.415066,256.029454 92.4739482,254.828082 C90.8623894,253.180175 86.1599716,249.245025 84.8609409,248.510196 C84.480472,249.991676 84.1298969,251.325825 83.7956272,252.665432 L83.7956272,252.665432 Z M326.413571,253.215644 C326.01589,254.840814 325.46421,256.438702 325.343728,258.107526 C325.635421,258.376721 325.843773,258.592258 326.074772,258.779603 C328.135647,260.446608 330.201051,262.109066 332.26555,263.770615 C332.357949,263.845189 332.46756,263.900665 332.572642,263.95705 C332.625183,263.985243 332.686783,264.010707 332.743853,264.010707 C332.799112,264.010707 332.854371,263.978877 333.030111,263.920672 C333.151499,263.545983 333.319087,263.105813 333.435039,262.652002 C333.871673,260.958623 334.257577,259.250693 334.728634,257.566409 C335.012175,256.554201 335.066527,255.556544 334.924304,254.573439 C332.933182,252.577216 328.889338,249.209556 327.64466,248.523838 C327.036816,250.043514 326.795852,251.650496 326.413571,253.215644 L326.413571,253.215644 Z" id="Shape"></path>
        </g>
    </g>
</svg>
